<?xml version="1.0" encoding="UTF-8"?>
<svg width="1200pt" height="1200pt" version="1.1" viewBox="0 0 1200 1200" xmlns="http://www.w3.org/2000/svg">
 <g fill="currentColor">
  <path d="m755.42 355.48c-5.6172 39.758-26.09 74.734-55.664 99.098l91.461 109.75c61.062-50.637 101.79-124.97 107.96-208.77-50.789-0.015626-141.99 0.046874-143.75-0.078126z"/>
  <path d="m755.42 311.19c1.7656-0.125 92.965-0.0625 143.75-0.078125-1.25-16.98-3.9375-33.566-7.9062-49.652l110.2-183.68h142.97c12.27 0 22.223-9.9492 22.223-22.223 0-12.27-9.9492-22.223-22.223-22.223h-155.55c-7.8086 0-15.039 4.0938-19.055 10.789l-97.738 162.91c-44.801-96.117-139.07-164.72-249.88-172.88-0.015625 50.785 0.042969 142-0.078125 143.75 68.98 9.7461 123.54 64.297 133.28 133.28z"/>
  <path d="m476.53 430.25c-6.5078 4.3594-98.949 65.988-119.08 79.41 93.188 127.84 266.23 159.94 397.45 80.504-94.352-113.53-90.867-108.28-93.051-112.5-63.91 27.422-140.36 9.7891-185.32-47.418z"/>
  <path d="m100 800c0 55.141 44.859 100 100 100h411.11v-200h-411.11c-55.141 0-100 44.859-100 100z"/>
  <path d="m655.55 700h177.78v200h-177.78z"/>
  <path d="m1e3 700h-122.22v200h122.22c55.141 0 100-44.859 100-100s-44.859-100-100-100z"/>
  <path d="m366.67 966.67h177.78v200h-177.78z"/>
  <path d="m1e3 966.67h-411.11v200h411.11c55.141 0 100-44.859 100-100s-44.859-100-100-100z"/>
  <path d="m100 1066.7c0 55.141 44.859 100 100 100h122.22v-200h-122.22c-55.141 0-100 44.859-100 100z"/>
  <path d="m230.17 600.32 92.133-153.56c3.5195 8.5781 7.4062 16.965 11.676 25.125 124.99-83.223 117.43-78.551 120.36-79.977-38.066-94.555 23.016-199.81 123.52-214-0.039063-0.52734-0.078125-1.0508-0.078125-1.5859l-0.003906-142.16c-176.45 12.98-305.97 177.51-272.6 354.76l-106.65 177.75h-142.97c-12.27 0-22.223 9.9492-22.223 22.223 0 12.27 9.9492 22.223 22.223 22.223h155.55c7.8086-0.003906 15.043-4.0977 19.059-10.793z"/>
  <path d="m1144.4 122.22h-111.11c-12.27 0-22.223 9.9492-22.223 22.223 0 12.27 9.9492 22.223 22.223 22.223h111.11c12.27 0 22.223-9.9492 22.223-22.223 0-12.273-9.9531-22.223-22.223-22.223z"/>
  <path d="m1077.8 211.11h-44.445c-12.27 0-22.223 9.9492-22.223 22.223 0 12.27 9.9492 22.223 22.223 22.223h44.445c12.27 0 22.223-9.9492 22.223-22.223 0-12.27-9.9492-22.223-22.223-22.223z"/>
  <path d="m55.555 522.22h44.445c12.27 0 22.223-9.9492 22.223-22.223 0-12.27-9.9492-22.223-22.223-22.223h-44.445c-12.27 0-22.223 9.9492-22.223 22.223 0 12.27 9.9531 22.223 22.223 22.223z"/>
  <path d="m55.555 433.33h111.11c12.27 0 22.223-9.9492 22.223-22.223 0-12.27-9.9492-22.223-22.223-22.223l-111.11 0.003906c-12.27 0-22.223 9.9492-22.223 22.223 0 12.27 9.9531 22.219 22.223 22.219z"/>
 </g>
</svg>
