<?xml version="1.0" encoding="UTF-8"?>
<svg width="1200pt" height="1200pt" version="1.1" viewBox="0 0 1200 1200" xmlns="http://www.w3.org/2000/svg">
 <g fill="currentColor">
  <path d="m928.63 431.93c-10.18-10.18-23.32-15.637-36.668-16.371-0.46484-27.145-25.879-52.574-53.035-53.027-0.60938-46.785-63.66-70.375-95.91-36.664 0-0.003906-26.512 26.512-26.512 26.512-25.09-29.723-70.219-33.543-98.77-6.9023l-287.61-287.61c-26.664-27.625-74.07 1.1914-62.285 37.211-1.3984 0.78516-2.8633 1.457-4.0273 2.6211l-172.31 172.31c-29.117 27.797-29.078 78.215 0 106.12l26.438 26.438-39.75 39.75c-29.012 28.059-29.027 78.066 0 106.12l119.44 119.25c27.797 29.145 78.219 29.051 105.94 0l172.31-172.31c29.25-29.25 29.25-76.875 0-106.12l-26.438-26.438 39.75-39.75c0.03125-0.042969 75.312 75.238 75.312 75.238-40.379 35.133-56.16 93.715-37.816 143.89l-38.016 38.016c-20.895-9.9219-46.594-6.4648-63.852 10.816l-204.45 204.45c-21.918 21.938-21.918 57.605 0 79.543l154.63 154.63v-53.031l-128.11-128.12c-7.3047-7.3047-7.3047-19.207 0-26.512l204.44-204.44c7.2969-7.3242 19.207-7.3242 26.523 0l159.09 159.08c7.3164 7.3047 7.3164 19.227 0.007813 26.531l-31.219 31.219h53.039c20.23-17.059 26.797-45.523 15.508-68.562l37.996-37.988c50.676 18.367 107.95 2.7188 143.91-37.844l76.965 76.965c14.645 14.645 38.387 14.645 53.031 0 14.645-14.645 14.645-38.387 0-53.031l-76.965-76.965 45.93-45.93c28.082-26.383 18.25-77.211-17.434-91.434 12.25-21.477 9.2305-49.363-9.082-67.668zm-651.5 209.33c-14.215 14.008-38.766 14.098-53.062 0l-119.25-119.44c-14.645-13.773-14.648-39.102 0-52.875l39.75-39.75 66.188 66.188c14.625 14.625 33.938 21.938 53.062 21.938 20.785 2.7539 162.31-42.363 185.06-47.812zm145.88-304.88c-16.902 16.48-113.62 113.68-132.56 132.56-14.625 14.625-38.438 14.625-53.062 0-32.262-32.445-87.688-87.559-119.44-119.44-14.418-14.074-14.328-39.066 0-53.062l159.19-159 172.31 172.31zm505.63 228.12-106.06 106.07c-27.996 27.98-70.852 35.301-106.62 18.219-7.1758-3.4258-15.719-1.9609-21.332 3.6602l-44.402 44.402c-33.047-33.043-99.547-99.543-132.59-132.58l44.422-44.422c5.6133-5.6133 7.0859-14.152 3.6719-21.324-15.785-32.406-10.469-72.684 13.039-101.46l63.352-63.344c14.059-14.316 36.277-10.004 47.883 5.1562l-66.293 66.293c-17.184 17.395 9.0312 43.797 26.516 26.512 26.473-26.473 93.754-93.754 119.32-119.32 11.16-11.82 32.496-2.9844 32.008 13.258 0.82422 10.562-11.871 16.102-10.977 26.512-0.5625 16.055 20.867 25.203 32.008 13.254 17.816-16.695 43.637 8.6406 26.512 26.523-7.3242 7.3242-7.3242 19.191 0 26.512 7.3242 7.3242 19.191 7.3242 26.512 0 17.375-17.258 43.789 9.0977 26.523 26.523l-26.512 26.512c-17.293 17.367 9.1328 43.801 26.516 26.512 17.832-16.785 43.641 8.7461 26.512 26.516z"/>
  <path d="m468.75 871.89h262.5c31.066 0 56.25 31.066 56.25 56.25v168.75c0 31.066-25.184 56.25-56.25 56.25h-262.5c-31.066 0-56.25-31.066-56.25-56.25v-168.75c0-31.066 25.184-56.25 56.25-56.25z"/>
  <path d="m93.75 1021.9h243.75c31.066 0 56.25 31.066 56.25 56.25v18.75c0 31.066-25.184 56.25-56.25 56.25h-243.75c-31.066 0-56.25-31.066-56.25-56.25v-18.75c0-31.066 25.184-56.25 56.25-56.25z"/>
  <path d="m1106.2 759.39h-74.352c-11.727 54.652-87.094 75.109-125.25 34.109 0 0.003906-34.109-34.109-34.109-34.109-34.203-3.918-66.57 20.707-66.285 56.25v281.25c0 31.02 25.23 56.25 56.25 56.25h243.75c31.02 0 56.25-25.23 56.25-56.25v-281.25c0-31.02-25.23-56.25-56.25-56.25z"/>
 </g>
</svg>
