<?xml version="1.0" encoding="UTF-8"?>
<svg width="1200pt" height="1200pt" version="1.1" viewBox="0 0 1200 1200" xmlns="http://www.w3.org/2000/svg">
 <g fill="currentColor">
  <path d="m279.16 705.6h641.75c17.055 0 30.98-11.781 30.98-26.438v-163.64c0-14.617-13.926-26.438-30.98-26.438h-641.75c-17.129 0-30.945 11.781-30.945 26.438v163.64c0 14.652 13.816 26.438 30.945 26.438zm529.6-150.77c23.492 0 42.547 19.02 42.547 42.547 0 23.453-19.02 42.473-42.547 42.473-23.453 0-42.473-19.02-42.473-42.473-0.035156-23.527 19.02-42.547 42.473-42.547zm-320.84 2.6172c0-10 8.0742-18.035 18-18.035s18.074 8.0352 18.074 18.035v79.816c0 9.9258-8.1445 18.035-18.074 18.035-9.9258 0-18-8.1094-18-18.035zm-77.344 0c0-10 8.0352-18.035 18-18.035 10 0 18.074 8.0352 18.074 18.035v79.816c0 9.9258-8.0742 18.035-18.074 18.035-9.9648 0-18-8.1094-18-18.035zm-77.309 0c0-10 8.0742-18.035 18.035-18.035 9.8906 0 18.035 8.0352 18.035 18.035v79.816c0 9.9258-8.1445 18.035-18.035 18.035-9.9648 0-18.035-8.1094-18.035-18.035z"/>
  <path d="m248.22 929.27c0 14.547 13.816 26.438 30.945 26.438h641.75c17.055 0 30.98-11.855 30.98-26.438v-163.71c0-14.547-13.926-26.438-30.98-26.438l-641.75 0.003906c-17.129 0-30.945 11.855-30.945 26.438zm560.54-124.36c23.492 0 42.547 18.945 42.547 42.473 0 23.527-19.02 42.547-42.547 42.547-23.453 0-42.473-19.02-42.473-42.547 0-23.527 19.02-42.473 42.473-42.473zm-320.84 2.543c0-9.9258 8.0742-18.035 18-18.035s18.074 8.1094 18.074 18.035v79.82c0 10-8.1445 18.035-18.074 18.035-9.9258 0-18-8.0352-18-18.035zm-77.344 0c0-9.9258 8.0352-18.035 18-18.035 10 0 18.074 8.1094 18.074 18.035v79.82c0 10-8.0742 18.035-18.074 18.035-9.9648 0-18-8.0352-18-18.035zm-77.309 0c0-9.9258 8.0742-18.035 18.035-18.035 9.8906 0 18.035 8.1094 18.035 18.035v79.82c0 10-8.1445 18.035-18.035 18.035-9.9648 0-18.035-8.0352-18.035-18.035z"/>
  <path d="m854.55 67.891c-84.617 0-161.49 32.473-219.64 85.164-50.438-52.398-121.16-85.164-199.67-85.164-145.16 0-264.11 111.64-276.14 253.71-81.785 27.125-140.91 104.11-140.91 195.09 0 113.56 92.109 205.67 205.67 205.67h7.3828c-11.602-11.238-18.871-26.438-18.871-43.199v-163.64c0-34.363 29.926-62.289 66.762-62.289h641.75c36.871 0 66.762 27.926 66.762 62.289v163.64c0 5.4531-0.98047 10.801-2.4727 15.926 115.75-50.438 196.62-165.71 196.62-300 0.035156-180.69-146.47-327.2-327.23-327.2z"/>
  <path d="m649.09 980.55h-98.109v79.891h-320.11v71.672h738.33v-71.672h-320.11z"/>
 </g>
</svg>
