<?xml version="1.0" encoding="UTF-8"?>
<svg width="1200pt" height="1200pt" version="1.1" viewBox="0 0 1200 1200" xmlns="http://www.w3.org/2000/svg">
 <g fill="currentColor">
  <path d="m937.5 1190.6h-600c-15.527 0-28.125-12.598-28.125-28.125v-1125c0-15.527 12.598-28.125 28.125-28.125h600c56.871 0 103.12 46.254 103.12 103.12v975c0 56.871-46.254 103.12-103.12 103.12zm-571.88-56.25h571.88c25.855 0 46.875-21.02 46.875-46.875v-975c0-25.855-21.02-46.875-46.875-46.875h-571.88z"/>
  <path d="m337.5 1190.6h-150c-56.871 0-103.12-46.254-103.12-103.12v-975c0-56.871 46.254-103.12 103.12-103.12h150c15.527 0 28.125 12.598 28.125 28.125v1125c0 15.527-12.598 28.125-28.125 28.125zm-150-1125c-25.855 0-46.875 21.02-46.875 46.875v975c0 25.855 21.02 46.875 46.875 46.875h121.88v-1068.8z"/>
  <path d="m187.5 253.12h-150c-15.527 0-28.125-12.598-28.125-28.125s12.598-28.125 28.125-28.125h150c15.527 0 28.125 12.598 28.125 28.125s-12.598 28.125-28.125 28.125z"/>
  <path d="m187.5 440.62h-150c-15.527 0-28.125-12.598-28.125-28.125s12.598-28.125 28.125-28.125h150c15.527 0 28.125 12.598 28.125 28.125s-12.598 28.125-28.125 28.125z"/>
  <path d="m187.5 628.12h-150c-15.527 0-28.125-12.598-28.125-28.125s12.598-28.125 28.125-28.125h150c15.527 0 28.125 12.598 28.125 28.125s-12.598 28.125-28.125 28.125z"/>
  <path d="m187.5 815.62h-150c-15.527 0-28.125-12.598-28.125-28.125s12.598-28.125 28.125-28.125h150c15.527 0 28.125 12.598 28.125 28.125s-12.598 28.125-28.125 28.125z"/>
  <path d="m187.5 1003.1h-150c-15.527 0-28.125-12.598-28.125-28.125s12.598-28.125 28.125-28.125h150c15.527 0 28.125 12.598 28.125 28.125s-12.598 28.125-28.125 28.125z"/>
  <path d="m862.5 778.12h-375c-15.527 0-28.125-12.598-28.125-28.125s12.598-28.125 28.125-28.125h375c15.527 0 28.125 12.598 28.125 28.125s-12.598 28.125-28.125 28.125z"/>
  <path d="m675 474.37c-65.129 0-118.12-52.992-118.12-118.12s52.992-118.12 118.12-118.12 118.14 52.992 118.14 118.12-52.992 118.12-118.14 118.12zm0-179.99c-34.133 0-61.871 27.758-61.871 61.871s27.738 61.871 61.871 61.871 61.891-27.758 61.891-61.871-27.758-61.871-61.891-61.871z"/>
  <path d="m825 624.37h-300c-15.527 0-28.125-12.598-28.125-28.125 0-98.215 79.91-178.12 178.12-178.12s178.12 79.91 178.12 178.12c0 15.527-12.598 28.125-28.125 28.125zm-268.6-56.25h237.21c-12.742-53.684-61.082-93.75-118.62-93.75-57.531 0-105.87 40.066-118.6 93.75z"/>
  <path d="m862.5 928.12h-375c-15.527 0-28.125-12.598-28.125-28.125s12.598-28.125 28.125-28.125h375c15.527 0 28.125 12.598 28.125 28.125s-12.598 28.125-28.125 28.125z"/>
  <path d="m1125 328.12h-112.5c-15.527 0-28.125-12.598-28.125-28.125v-187.5c0-15.527 12.598-28.125 28.125-28.125h112.5c36.18 0 65.625 29.445 65.625 65.625v112.5c0 36.18-29.445 65.625-65.625 65.625zm-84.375-56.25h84.375c5.1641 0 9.375-4.2109 9.375-9.375v-112.5c0-5.1641-4.2109-9.375-9.375-9.375h-84.375z"/>
  <path d="m1125 515.62h-112.5c-15.527 0-28.125-12.598-28.125-28.125v-187.5c0-15.527 12.598-28.125 28.125-28.125h112.5c36.18 0 65.625 29.445 65.625 65.625v112.5c0 36.18-29.445 65.625-65.625 65.625zm-84.375-56.25h84.375c5.1641 0 9.375-4.2109 9.375-9.375v-112.5c0-5.1641-4.2109-9.375-9.375-9.375h-84.375z"/>
  <path d="m1125 703.12h-112.5c-15.527 0-28.125-12.598-28.125-28.125v-187.5c0-15.527 12.598-28.125 28.125-28.125h112.5c36.18 0 65.625 29.445 65.625 65.625v112.5c0 36.18-29.445 65.625-65.625 65.625zm-84.375-56.25h84.375c5.1641 0 9.375-4.2109 9.375-9.375v-112.5c0-5.1641-4.2109-9.375-9.375-9.375h-84.375z"/>
 </g>
</svg>
