<?xml version="1.0" encoding="UTF-8"?>
<svg width="1200pt" height="1200pt" version="1.1" viewBox="0 0 1200 1200" xmlns="http://www.w3.org/2000/svg">
 <g fill="currentColor">
  <path d="m475.04 468.75h-150c-51.684 0-93.75 42.055-93.75 93.75v125c0 10.352 8.3984 18.75 18.75 18.75h56.25v206.25c0 10.352 8.3984 18.75 18.75 18.75h56.25v-143.75c0-10.352 8.3984-18.75 18.75-18.75 10.352 0 18.75 8.3984 18.75 18.75v143.75h56.25c10.352 0 18.75-8.3984 18.75-18.75v-206.25h56.25c10.352 0 18.75-8.3984 18.75-18.75v-125c0-51.695-42.066-93.75-93.75-93.75z"/>
  <path d="m493.79 362.5c0 51.777-41.973 93.75-93.75 93.75s-93.75-41.973-93.75-93.75 41.973-93.75 93.75-93.75 93.75 41.973 93.75 93.75"/>
  <path d="m827.35 437.5c0 10.355-8.3945 18.75-18.75 18.75-10.352 0-18.75-8.3945-18.75-18.75s8.3984-18.75 18.75-18.75c10.355 0 18.75 8.3945 18.75 18.75"/>
  <path d="m963.29 428.16-35.938-35.926v-50.816c0-10.352-8.3984-18.75-18.75-18.75h-50.805l-35.938-35.926c-7.0312-7.0312-19.484-7.0312-26.516 0l-35.914 35.926h-50.828c-10.352 0-18.75 8.3984-18.75 18.75v50.816l-35.914 35.926c-7.3242 7.3242-7.3242 19.191 0 26.516l35.914 35.926v50.816c0 10.352 8.3984 18.75 18.75 18.75h18.676v164.83c0 13.832 15.582 23.09 27.711 16.469l53.539-29.113s53.402 29.039 53.539 29.113c12.301 6.6914 27.711-2.5898 27.711-16.469v-164.83h18.824c10.352 0 18.75-8.3984 18.75-18.75v-50.816s35.867-35.855 35.938-35.926c7.2422-7.2344 7.2266-19.285 0-26.512zm-154.69 65.59c-31.004 0-56.25-25.23-56.25-56.25s25.246-56.25 56.25-56.25c31.004 0 56.25 25.23 56.25 56.25s-25.242 56.25-56.25 56.25z"/>
 </g>
</svg>
