<?xml version="1.0" encoding="UTF-8"?>
<svg width="1200pt" height="1200pt" version="1.1" viewBox="0 0 1200 1200" xmlns="http://www.w3.org/2000/svg">
 <g fill="currentColor">
  <path d="m468.75 525v18.75c0 20.625-16.875 37.5-37.5 37.5v37.5c20.625 0 37.5 16.875 37.5 37.5v18.75c0 31.875 24.375 56.25 56.25 56.25h37.5v-37.5h-37.5c-11.25 0-18.75-7.5-18.75-18.75v-33.75c0-16.875-7.5-31.875-18.75-41.25 11.25-11.25 18.75-26.25 18.75-41.25v-33.75c0-11.25 7.5-18.75 18.75-18.75h37.5v-37.5h-37.5c-31.875 0-56.25 24.375-56.25 56.25z"/>
  <path d="m731.25 543.75v-18.75c0-31.875-24.375-56.25-56.25-56.25h-37.5v37.5h37.5c11.25 0 18.75 7.5 18.75 18.75v33.75c0 15 7.5 30 18.75 41.25-11.25 9.375-18.75 24.375-18.75 41.25v33.75c0 11.25-7.5 18.75-18.75 18.75h-37.5v37.5h37.5c31.875 0 56.25-24.375 56.25-56.25v-18.75c0-20.625 16.875-37.5 37.5-37.5v-37.5c-20.625 0-37.5-16.875-37.5-37.5z"/>
  <path d="m787.5 356.25h-375c-31.875 0-56.25 24.375-56.25 56.25v375c0 31.875 24.375 56.25 56.25 56.25h375c31.875 0 56.25-24.375 56.25-56.25v-375c0-31.875-24.375-56.25-56.25-56.25zm18.75 431.25c0 11.25-7.5 18.75-18.75 18.75h-375c-11.25 0-18.75-7.5-18.75-18.75v-375c0-11.25 7.5-18.75 18.75-18.75h375c11.25 0 18.75 7.5 18.75 18.75z"/>
  <path d="m1093.1 506.25c5.625 18.75 18.75 18.75 31.875 18.75 20.625 0 37.5-16.875 37.5-37.5s-16.875-37.5-37.5-37.5c-13.125 0-26.25 0-31.875 18.75h-136.88v-75h75v-93.75h61.875c5.625 18.75 18.75 18.75 31.875 18.75 20.625 0 37.5-16.875 37.5-37.5s-16.875-37.5-37.5-37.5c-13.125 0-26.25 0-31.875 18.75h-99.375v93.75h-37.5v-18.75c0-52.5-41.25-93.75-93.75-93.75h-18.75v-37.5h93.75v-99.375c11.25-5.625 18.75-18.75 18.75-31.875 0-20.625-16.875-37.5-37.5-37.5s-37.5 16.875-37.5 37.5c0 13.125 7.5 26.25 18.75 31.875v61.875h-93.75v75h-75v-136.88c11.25-5.625 18.75-18.75 18.75-31.875 0-20.625-16.875-37.5-37.5-37.5s-37.5 16.875-37.5 37.5c0 13.125 7.5 26.25 18.75 31.875v136.88h-75v-136.88c11.25-5.625 18.75-18.75 18.75-31.875 0-20.625-16.875-37.5-37.5-37.5s-37.5 16.875-37.5 37.5c0 13.125 7.5 26.25 18.75 31.875v136.88h-75v-136.88c11.25-5.625 18.75-18.75 18.75-31.875 0-20.625-16.875-37.5-37.5-37.5s-37.5 16.875-37.5 37.5c0 13.125 7.5 26.25 18.75 31.875v136.88h-75v-75h-93.75v-61.875c11.25-5.625 18.75-18.75 18.75-31.875 0-20.625-16.875-37.5-37.5-37.5s-37.5 16.875-37.5 37.5c0 13.125 7.5 26.25 18.75 31.875v99.375h93.75v37.5h-18.75c-52.5 0-93.75 41.25-93.75 93.75v18.75h-37.5v-93.75h-99.375c-5.625-18.75-18.75-18.75-31.875-18.75-20.625 0-37.5 16.875-37.5 37.5s16.875 37.5 37.5 37.5c13.125 0 26.25 0 31.875-18.75h61.875v93.75h75v75h-136.88c-5.625-18.75-18.75-18.75-31.875-18.75-20.625 0-37.5 16.875-37.5 37.5s16.875 37.5 37.5 37.5c13.125 0 26.25 0 31.875-18.75h136.88v75h-136.88c-5.625-18.75-18.75-18.75-31.875-18.75-20.625 0-37.5 16.875-37.5 37.5s16.875 37.5 37.5 37.5c13.125 0 26.25 0 31.875-18.75h136.88v75h-136.88c-5.625-18.75-18.75-18.75-31.875-18.75-20.625 0-37.5 16.875-37.5 37.5s16.875 37.5 37.5 37.5c13.125 0 26.25 0 31.875-18.75h136.88v75h-75v93.75h-61.875c-5.625-18.75-18.75-18.75-31.875-18.75-20.625 0-37.5 16.875-37.5 37.5s16.875 37.5 37.5 37.5c13.125 0 26.25 0 31.875-18.75h99.375v-93.75h37.5v18.75c0 52.5 41.25 93.75 93.75 93.75h18.75v37.5h-93.75v99.375c-18.75 5.625-18.75 18.75-18.75 31.875 0 20.625 16.875 37.5 37.5 37.5s37.5-16.875 37.5-37.5c0-13.125 0-26.25-18.75-31.875v-61.875h93.75v-75h75v136.88c-18.75 5.625-18.75 18.75-18.75 31.875 0 20.625 16.875 37.5 37.5 37.5s37.5-16.875 37.5-37.5c0-13.125 0-26.25-18.75-31.875v-136.88h75v136.88c-18.75 5.625-18.75 18.75-18.75 31.875 0 20.625 16.875 37.5 37.5 37.5s37.5-16.875 37.5-37.5c0-13.125 0-26.25-18.75-31.875v-136.88h75v136.88c-18.75 5.625-18.75 18.75-18.75 31.875 0 20.625 16.875 37.5 37.5 37.5s37.5-16.875 37.5-37.5c0-13.125 0-26.25-18.75-31.875v-136.88h75v75h93.75v61.875c-18.75 5.625-18.75 18.75-18.75 31.875 0 20.625 16.875 37.5 37.5 37.5s37.5-16.875 37.5-37.5c0-13.125 0-26.25-18.75-31.875v-99.375h-93.75v-37.5h18.75c52.5 0 93.75-41.25 93.75-93.75v-18.75h37.5v93.75h99.375c5.625 18.75 18.75 18.75 31.875 18.75 20.625 0 37.5-16.875 37.5-37.5s-16.875-37.5-37.5-37.5c-13.125 0-26.25 0-31.875 18.75h-61.875v-93.75h-75v-75h136.88c5.625 18.75 18.75 18.75 31.875 18.75 20.625 0 37.5-16.875 37.5-37.5s-16.875-37.5-37.5-37.5c-13.125 0-26.25 0-31.875 18.75h-136.88v-75h136.88c5.625 18.75 18.75 18.75 31.875 18.75 20.625 0 37.5-16.875 37.5-37.5s-16.875-37.5-37.5-37.5c-13.125 0-26.25 0-31.875 18.75h-136.88v-75zm-174.38 356.25c0 31.875-24.375 56.25-56.25 56.25h-525c-31.875 0-56.25-24.375-56.25-56.25v-525c0-31.875 24.375-56.25 56.25-56.25h525c31.875 0 56.25 24.375 56.25 56.25z"/>
 </g>
</svg>
