<?xml version="1.0" encoding="UTF-8"?>
<svg width="1200pt" height="1200pt" version="1.1" viewBox="0 0 1200 1200" xmlns="http://www.w3.org/2000/svg">
 <g fill="currentColor">
  <path d="m462.38 747.94 66 99 96.562 16.125c7.6875 1.3125 14.812 4.875 20.25 10.5l48.938 48.938 64.875 16.312c12.562 3.1875 22.5 12.562 26.625 24.75l1.3125 3.75 127.5-20.438 28.5-47.25c5.625-9.375 15.188-15.75 25.875-17.625l71.062-11.812-8.8125-26.25-56.25-18.75-56.25-75-119.62-27.562-30.375-66.188-95.812-56.25h-72.938v-75h-187.5v75h-56.25l-43.875 116.06 123.56 15.375c10.875 1.3125 20.438 7.3125 26.625 16.5z"/>
  <path d="m753.75 986.25-3.75-11.25-75-18.75-56.25-56.25-112.5-18.75-75-112.5-150-18.75-112.5 93.75-18.75 93.75-75 57v130.5h498.38c0-14.062 7.6875-27.188 20.625-33.562l114.38-57 45.188-48.188z"/>
  <path d="m1087.5 900-112.5 18.75-37.5 62.25-150 24-56.25 60-120.56 60h514.31v-150z"/>
  <path d="m600 187.5-93.75-112.5-93.75 112.5v300h187.5zm-56.25 225h-75c-10.312 0-18.75-8.4375-18.75-18.75s8.4375-18.75 18.75-18.75h75c10.312 0 18.75 8.4375 18.75 18.75s-8.4375 18.75-18.75 18.75zm0-75h-75c-10.312 0-18.75-8.4375-18.75-18.75s8.4375-18.75 18.75-18.75h75c10.312 0 18.75 8.4375 18.75 18.75s-8.4375 18.75-18.75 18.75z"/>
 </g>
</svg>
