<?xml version="1.0" encoding="UTF-8"?>
<svg width="1200pt" height="1200pt" version="1.1" viewBox="0 0 1200 1200" xmlns="http://www.w3.org/2000/svg">
 <g fill="currentColor">
  <path d="m591.35 808.67v196.33h-346.42c-9.5703 0-17.336-7.7695-17.336-17.336v-538.89h144.32v-57.727h-144.32v-113.53c0-9.5703 7.7695-17.336 17.336-17.336h140.15v-57.727h-140.15c-41.398 0-75.062 33.664-75.062 75.062v710.15c0 41.398 33.664 75.062 75.062 75.062h404.15v-254.05z"/>
  <path d="m608.65 260.18v313.71h-234.79v252.12h57.727v-194.37h234.82v-371.46h288.7c9.5703 0 17.305 7.7695 17.305 17.336v142.42h-241.67v212.65h57.727v-154.93h183.91v510c0 9.5703-7.7383 17.336-17.305 17.336h-115.48v-138.6h80.875v-317.55h-57.758v259.83h-80.844v254.05h173.21c41.398 0 75.031-33.664 75.031-75.062v-710.15c0-41.398-33.633-75.062-75.031-75.062h-437.18v57.727z"/>
  <path d="m417.09 106.23-34.453 59.59h45.758v321.44h-137.3v448.42h249.89v-194.37h152.37v412.11h46.168v-458.3h-244.71v194.37h-157.52v-356.02h137.31v-367.64h45.758l-34.422-59.59-34.453-59.652z"/>
 </g>
</svg>
