<?xml version="1.0" encoding="UTF-8"?>
<svg width="1200pt" height="1200pt" version="1.1" viewBox="0 0 1200 1200" xmlns="http://www.w3.org/2000/svg">
 <g fill="currentColor">
 <path d="m585.94 929.3c0-7.7344 6.3281-14.062 14.062-14.062s14.062 6.3281 14.062 14.062v59.297c19.688 0 35.391-2.3438 50.156 12.188 7.5 7.5 12.188 18.047 12.188 29.531v69.375c0 22.969-18.75 41.719-41.719 41.719h-69.375c-22.969 0-41.719-18.75-41.719-41.719v-69.375c0-22.969 18.75-41.719 41.719-41.719h20.625zm28.125-660.47v68.672c0 7.7344-6.3281 14.062-14.062 14.062s-14.062-6.3281-14.062-14.062v-68.672h-36.562c-30 0-54.609-24.609-54.609-54.609v-101.02c0-30 24.609-54.609 54.609-54.609h101.25c30 0 54.609 24.609 54.609 54.609v101.02c0 30-24.609 54.609-54.609 54.609zm9.8438 134.3h-47.812v34.453c0.23438 7.0312-4.4531 13.359-11.484 14.531-12.656 2.3438-25.078 6.0938-36.562 11.016-11.484 4.6875-22.5 10.781-33.047 17.812-5.625 4.2188-13.594 3.75-18.516-1.1719l-24.844-25.078-33.75 33.516 25.078 25.078c4.6875 4.6875 5.625 12.188 1.6406 17.812-7.2656 10.547-13.359 21.797-18.281 33.75-4.6875 11.25-8.4375 23.203-10.781 35.859-0.70312 7.0312-6.7969 12.422-14.062 12.422h-35.391v47.578h35.391c6.5625 0 12.422 4.6875 13.828 11.484 2.3438 12.656 6.0938 25.078 11.016 36.562 4.6875 11.484 10.781 22.5 17.812 33.047 4.2188 5.625 3.75 13.594-1.1719 18.516l-25.078 24.844 33.75 33.75 24.844-24.844c4.6875-4.6875 12.188-5.625 17.812-1.6406 10.547 7.2656 21.797 13.359 33.75 18.281 11.25 4.6875 23.203 8.4375 35.859 10.781 7.0312 0.70312 12.422 6.7969 12.422 14.062v35.391h47.578v-35.391c0-6.5625 4.6875-12.422 11.484-13.828 12.656-2.3438 25.078-6.0938 36.562-11.016 11.484-4.6875 22.5-10.781 33.047-17.812 5.625-4.2188 13.594-3.75 18.516 1.1719l25.078 24.844 33.516-33.75-25.078-25.078c-4.6875-4.6875-5.625-12.188-1.6406-17.812 14.531-21.094 24.375-45 29.062-70.312 1.1719-6.5625 6.7969-11.484 13.828-11.484h35.391v-47.578h-35.391c-6.5625 0-12.422-4.6875-13.828-11.484-2.3438-12.656-6.0938-25.078-11.016-36.562-4.6875-11.484-10.781-22.5-17.812-33.047-4.2188-5.625-3.75-13.594 1.1719-18.516l24.844-25.078-33.281-33.516-25.078 24.844c-4.6875 4.6875-12.188 5.625-17.812 1.6406-10.547-7.2656-21.797-13.359-33.75-18.281-11.25-4.6875-23.203-8.4375-35.859-10.781-7.0312-0.70312-12.422-6.7969-12.422-14.062v-34.922zm59.531 150.23c-46.172-46.172-120.94-46.172-166.88 0s-46.172 120.94 0 166.88c46.172 46.172 120.94 46.172 166.88 0 46.172-46.172 46.172-120.94 0-166.88zm-83.438-62.812c80.625 0 146.25 65.391 146.25 146.25s-65.391 146.25-146.25 146.25c-80.625 0-146.25-65.391-146.25-146.25s65.625-146.25 146.25-146.25zm-347.58-146.95h67.969c3.9844 0 7.5 1.6406 10.078 4.2188l70.547 70.547c5.625 5.625 5.625 14.531 0 19.922-5.3906 5.3906-14.297 5.3906-19.922 0l-66.562-66.562h-62.109c0 19.688 2.3438 35.391-12.188 50.156-7.5 7.5-18.047 12.188-29.531 12.188h-69.375c-22.969 0-41.719-18.75-41.719-41.719v-69.375c0-22.969 18.75-41.719 41.719-41.719h69.375c22.969 0 41.719 18.75 41.719 41.719zm688.59 28.359h-53.906l-66.328 66.328c-5.3906 5.3906-14.297 5.3906-19.922 0-5.625-5.625-5.625-14.531 0-19.922l70.547-70.547c2.5781-2.5781 6.0938-4.2188 10.078-4.2188h59.766v-22.5c0-23.672 19.219-43.125 43.359-43.125h72.891c23.906 0 43.359 19.453 43.359 43.359v72.891c0 23.672-19.219 43.125-43.359 43.125h-73.125c-23.672 0-43.125-19.219-43.125-43.359v-22.031zm-688.59 529.69h62.109l66.562-66.562c5.625-5.3906 14.531-5.3906 19.922 0 5.625 5.625 5.625 14.531 0 19.922l-70.312 70.312c-2.5781 2.5781-6.0938 4.2188-10.078 4.2188h-67.969c0 19.688 2.3438 35.391-12.188 50.156-7.5 7.5-18.047 12.188-29.531 12.188h-69.609c-22.969 0-41.719-18.75-41.719-41.719v-69.375c0-22.969 18.75-41.719 41.719-41.719h69.375c22.969 0 41.719 18.75 41.719 41.719zm688.59 28.125h-59.766c-3.9844 0-7.5-1.6406-10.078-4.2188l-70.547-70.312c-5.625-5.625-5.625-14.531 0-19.922s14.531-5.3906 19.922 0l66.562 66.562h53.906v-22.5c0-23.906 19.453-43.359 43.125-43.359h72.891c23.906 0 43.359 19.453 43.359 43.125v72.891c0 23.672-19.453 43.359-43.359 43.359h-72.656c-23.906 0-43.359-19.453-43.359-43.125z"/>
 </g>
</svg>
