<?xml version="1.0" encoding="UTF-8"?>
<svg width="1200pt" height="1200pt" version="1.1" viewBox="0 0 1200 1200" xmlns="http://www.w3.org/2000/svg">
 <g fill="currentColor">
  <path d="m1068.8 93.75h-937.5c-20.625 0-37.5 16.875-37.5 37.5v93.75h1012.5v-93.75c0-20.625-16.875-37.5-37.5-37.5zm-881.25 93.75h-18.75c-10.312 0-18.75-8.4375-18.75-18.75s8.4375-18.75 18.75-18.75h18.75c10.312 0 18.75 8.4375 18.75 18.75s-8.4375 18.75-18.75 18.75zm93.75 0h-18.75c-10.312 0-18.75-8.4375-18.75-18.75s8.4375-18.75 18.75-18.75h18.75c10.312 0 18.75 8.4375 18.75 18.75s-8.4375 18.75-18.75 18.75zm93.75 0h-18.75c-10.312 0-18.75-8.4375-18.75-18.75s8.4375-18.75 18.75-18.75h18.75c10.312 0 18.75 8.4375 18.75 18.75s-8.4375 18.75-18.75 18.75z"/>
  <path d="m243.75 393.75c10.312 0 18.75-8.4375 18.75-18.75v-53.812c-6-1.6875-12.188-2.4375-18.75-2.4375s-12.75 0.75-18.75 2.4375v53.812c0 10.312 8.4375 18.75 18.75 18.75z"/>
  <path d="m375 262.5h-281.25v487.5h281.25zm-131.25 431.25c-41.438 0-75-33.562-75-75 0-34.875 23.812-64.312 56.25-72.562v-2.4375c0-10.312 8.4375-18.75 18.75-18.75s18.75 8.4375 18.75 18.75v2.4375c32.438 8.25 56.25 37.688 56.25 72.562 0 41.438-33.562 75-75 75zm0-225c-41.438 0-75-33.562-75-75 0-34.875 23.812-64.312 56.25-72.562v-2.4375c0-10.312 8.4375-18.75 18.75-18.75s18.75 8.4375 18.75 18.75v2.4375c32.438 8.25 56.25 37.688 56.25 72.562 0 41.438-33.562 75-75 75z"/>
  <path d="m243.75 618.75c10.312 0 18.75-8.4375 18.75-18.75v-53.812c-6-1.6875-12.188-2.4375-18.75-2.4375s-12.75 0.75-18.75 2.4375v53.812c0 10.312 8.4375 18.75 18.75 18.75z"/>
  <path d="m412.5 750h693.75v-487.5h-693.75zm600-318.75c0-10.312 8.4375-18.75 18.75-18.75s18.75 8.4375 18.75 18.75v150c0 10.312-8.4375 18.75-18.75 18.75s-18.75-8.4375-18.75-18.75zm-75-37.5c0-10.312 8.4375-18.75 18.75-18.75s18.75 8.4375 18.75 18.75v225c0 10.312-8.4375 18.75-18.75 18.75s-18.75-8.4375-18.75-18.75zm-75-56.25c0-10.312 8.4375-18.75 18.75-18.75s18.75 8.4375 18.75 18.75v337.5c0 10.312-8.4375 18.75-18.75 18.75s-18.75-8.4375-18.75-18.75zm-75 56.25c0-10.312 8.4375-18.75 18.75-18.75s18.75 8.4375 18.75 18.75v225c0 10.312-8.4375 18.75-18.75 18.75s-18.75-8.4375-18.75-18.75zm-75 0c0-10.312 8.4375-18.75 18.75-18.75s18.75 8.4375 18.75 18.75v225c0 10.312-8.4375 18.75-18.75 18.75s-18.75-8.4375-18.75-18.75zm-75-56.25c0-10.312 8.4375-18.75 18.75-18.75s18.75 8.4375 18.75 18.75v337.5c0 10.312-8.4375 18.75-18.75 18.75s-18.75-8.4375-18.75-18.75zm-75 56.25c0-10.312 8.4375-18.75 18.75-18.75s18.75 8.4375 18.75 18.75v225c0 10.312-8.4375 18.75-18.75 18.75s-18.75-8.4375-18.75-18.75zm-75 37.5c0-10.312 8.4375-18.75 18.75-18.75s18.75 8.4375 18.75 18.75v150c0 10.312-8.4375 18.75-18.75 18.75s-18.75-8.4375-18.75-18.75z"/>
  <path d="m93.75 1068.8c0 20.625 16.875 37.5 37.5 37.5h937.5c20.625 0 37.5-16.875 37.5-37.5v-281.25h-1012.5zm150-37.5c0 10.312-8.4375 18.75-18.75 18.75s-18.75-8.4375-18.75-18.75v-93.75h37.5zm168.75 18.75c-10.312 0-18.75-8.4375-18.75-18.75h37.5c0 10.312-8.4375 18.75-18.75 18.75zm206.25-18.75c0 10.312-8.4375 18.75-18.75 18.75s-18.75-8.4375-18.75-18.75v-93.75h37.5zm168.75 18.75c-10.312 0-18.75-8.4375-18.75-18.75h37.5c0 10.312-8.4375 18.75-18.75 18.75zm206.25-18.75c0 10.312-8.4375 18.75-18.75 18.75s-18.75-8.4375-18.75-18.75v-93.75h37.5zm-56.25-168.75h18.75v-18.75c0-10.312 8.4375-18.75 18.75-18.75s18.75 8.4375 18.75 18.75v18.75h18.75c10.312 0 18.75 8.4375 18.75 18.75s-8.4375 18.75-18.75 18.75h-75c-10.312 0-18.75-8.4375-18.75-18.75s8.4375-18.75 18.75-18.75zm-187.5 93.75h18.75v-112.5c0-10.312 8.4375-18.75 18.75-18.75s18.75 8.4375 18.75 18.75v112.5h18.75c10.312 0 18.75 8.4375 18.75 18.75s-8.4375 18.75-18.75 18.75h-75c-10.312 0-18.75-8.4375-18.75-18.75s8.4375-18.75 18.75-18.75zm-187.5-93.75h18.75v-18.75c0-10.312 8.4375-18.75 18.75-18.75s18.75 8.4375 18.75 18.75v18.75h18.75c10.312 0 18.75 8.4375 18.75 18.75s-8.4375 18.75-18.75 18.75h-75c-10.312 0-18.75-8.4375-18.75-18.75s8.4375-18.75 18.75-18.75zm-187.5 93.75h18.75v-112.5c0-10.312 8.4375-18.75 18.75-18.75s18.75 8.4375 18.75 18.75v112.5h18.75c10.312 0 18.75 8.4375 18.75 18.75s-8.4375 18.75-18.75 18.75h-75c-10.312 0-18.75-8.4375-18.75-18.75s8.4375-18.75 18.75-18.75zm-187.5-93.75h18.75v-18.75c0-10.312 8.4375-18.75 18.75-18.75s18.75 8.4375 18.75 18.75v18.75h18.75c10.312 0 18.75 8.4375 18.75 18.75s-8.4375 18.75-18.75 18.75h-75c-10.312 0-18.75-8.4375-18.75-18.75s8.4375-18.75 18.75-18.75z"/>
 </g>
</svg>
