<?xml version="1.0" encoding="UTF-8"?>
<svg width="1200pt" height="1200pt" version="1.1" viewBox="0 0 1200 1200" xmlns="http://www.w3.org/2000/svg">
 <g fill="currentColor">
  <path d="m185.74 885.12h279.49v46.875h-279.49z"/>
  <path d="m82.383 885.12h52.969v46.875h-52.969z"/>
  <path d="m185.74 742.27h279.49v46.875h-279.49z"/>
  <path d="m82.383 742.27h52.969v46.875h-52.969z"/>
  <path d="m185.74 599.41h279.49v46.875h-279.49z"/>
  <path d="m82.383 599.41h52.969v46.875h-52.969z"/>
  <path d="m185.74 1028h279.49v46.875h-279.49z"/>
  <path d="m82.383 1028h52.969v46.875h-52.969z"/>
  <path d="m838.12 880.78h279.49v46.875h-279.49z"/>
  <path d="m734.77 880.78h52.969v46.875h-52.969z"/>
  <path d="m838.12 737.93h279.49v46.875h-279.49z"/>
  <path d="m734.77 737.93h52.969v46.875h-52.969z"/>
  <path d="m838.12 595.08h279.49v46.875h-279.49z"/>
  <path d="m734.77 595.08h52.969v46.875h-52.969z"/>
  <path d="m273.87 125.16c-105.23 0-190.9 85.664-190.9 190.9 0 105.23 85.664 190.9 190.9 190.9 105.35 0 190.9-85.664 190.9-190.9 0-105.23-85.664-190.9-190.9-190.9zm75.703 214.34h-52.383v52.266h-46.875v-52.266h-52.266v-46.875h52.266v-52.383h46.875v52.383h52.383z"/>
  <path d="m926.13 125.16c-105.35 0-190.9 85.664-190.9 190.9 0 105.23 85.664 190.9 190.9 190.9 105.23 0 190.9-85.664 190.9-190.9 0.11719-105.23-85.547-190.9-190.9-190.9zm75.82 214.34h-151.52v-46.875h151.52z"/>
  <path d="m576.56 100.66h46.875v998.55h-46.875z"/>
 </g>
</svg>
