<?xml version="1.0" encoding="UTF-8"?>
<svg width="1200pt" height="1200pt" version="1.1" viewBox="0 0 1200 1200" xmlns="http://www.w3.org/2000/svg">
 <g fill="currentColor">
  <path d="m243.71 622.5c-2.4609-7.2461-3.707-14.832-3.707-22.5 0-43.414 40.367-78.742 90-78.742s90 35.328 90 78.742c0 7.668-1.2461 15.254-3.707 22.5h116.21v-134.34c0-12.637 6.9609-24.133 18.191-30.035 10.969-5.7617 24.035-5.0039 34.188 1.9805 4.7031 3.2539 9.8047 4.8945 15.121 4.8945 18.301 0 33.742-20.617 33.742-45s-15.445-45-33.742-45c-5.3398 0-10.414 1.6328-15.121 4.8711-10.129 6.9727-23.242 7.7266-34.211 1.9688-11.207-5.8906-18.168-17.387-18.168-30v-134.33h-315c-49.703 0-90 40.297-90 90v315h116.21z"/>
  <path d="m633.8 314.81c5.8086-4.9805 12.348-8.9766 19.477-11.855 40.262-16.262 88.141 7.9336 106.73 53.953 18.59 46.008 0.96094 96.684-39.301 112.95-7.1172 2.8672-14.617 4.5352-22.246 4.9805l43.535 107.75 124.56-50.328c11.711-4.7266 24.996-2.5938 34.668 5.6172 9.4453 8.0039 13.633 20.438 10.98 32.438-1.2461 5.5781-0.875 10.922 1.1172 15.852 6.8516 16.969 31.754 23.566 54.371 14.438 22.621-9.1328 35.941-31.176 29.074-48.145-2.0039-4.957-5.4258-9.0352-10.188-12.191-10.285-6.793-15.875-18.66-14.629-30.984 1.2617-12.602 9.3125-23.363 21.023-28.094l124.54-50.316-118-292.07c-18.625-46.094-71.074-68.352-117.16-49.727l-292.07 118 43.523 107.73z"/>
  <path d="m866.29 667.5c2.4609 7.2461 3.707 14.832 3.707 22.5 0 43.414-40.367 78.742-90 78.742s-90-35.328-90-78.742c0-7.668 1.2461-15.254 3.707-22.5h-116.21v134.32c0 12.637-6.9609 24.121-18.168 30.012-10.945 5.7969-24.059 5.0039-34.188-1.9336-4.7266-3.2539-9.8047-4.8945-15.145-4.8945-18.301 0-33.742 20.617-33.742 45s15.445 45 33.742 45c5.3164 0 10.414-1.6445 15.156-4.9219 10.078-6.9258 23.184-7.7383 34.141-1.957 11.23 5.8906 18.191 17.398 18.191 30.035v134.34h315c49.703 0 90-40.297 90-90v-315h-116.21z"/>
  <path d="m532.5 956.29c-7.2461 2.4609-14.832 3.707-22.5 3.707-43.414 0-78.742-40.367-78.742-90s35.328-90 78.742-90c7.668 0 15.254 1.2461 22.5 3.707v-116.21h-134.32c-12.637 0-24.121-6.9609-30.012-18.168-5.7852-10.969-5.0273-24.059 1.9336-34.188 3.2539-4.7266 4.8945-9.8047 4.8945-15.145 0-18.301-20.617-33.742-45-33.742s-45 15.445-45 33.742c0 5.3164 1.6445 10.414 4.9219 15.156 6.9492 10.078 7.7148 23.184 1.957 34.141-5.8906 11.23-17.398 18.191-30.035 18.191h-134.34v315c0 49.703 40.297 90 90 90h315v-116.21z"/>
 </g>
</svg>
