<?xml version="1.0" encoding="UTF-8"?>
<svg width="1200pt" height="1200pt" version="1.1" viewBox="0 0 1200 1200" xmlns="http://www.w3.org/2000/svg">
 <g fill="currentColor">
  <path d="m1176.6 408.12c7.7656 0 14.062-6.2969 14.062-14.062s-6.2969-14.062-14.062-14.062h-35.465l-1.6562-94.344c-0.13672-7.7461-6.4648-14.031-14.254-13.812l-0.79297 0.019531c-7.7656 0-14.062 6.2969-14.062 14.062 0 1.918 0.38281 3.7461 1.082 5.4141l13.34 759.88h-76.621l-0.003906-1003.7c0-5.1719 4.2031-9.375 9.375-9.375h40.25c5.0781 0 9.2852 4.1328 9.3711 9.2109l2.2188 126.37c0.13672 7.6797 6.4023 13.816 14.055 13.816h0.25c7.7656-0.13672 13.949-6.543 13.812-14.305l-0.40625-23.18h39.5c7.7656 0 14.062-6.2969 14.062-14.062s-6.2969-14.062-14.062-14.062h-39.996l-1.3164-75.066c-0.35547-20.312-17.176-36.84-37.492-36.84h-40.25c-20.676 0-37.5 16.824-37.5 37.5v74.406h-100.68v-21.105c0-28.434-23.129-51.562-51.562-51.562h-26.734c-28.434 0-51.562 23.129-51.562 51.562v21.105h-264.16v-21.105c0-28.434-23.129-51.562-51.562-51.562h-26.734c-14.766 0-28.09 6.25-37.5 16.227-9.4102-9.9805-22.734-16.227-37.5-16.227h-26.734c-28.434 0-51.562 23.129-51.562 51.562v21.105h-113.71v-74.414c0-20.676-16.824-37.5-37.5-37.5h-40.25c-20.316 0-37.137 16.527-37.492 36.84l-1.3164 75.066-40 0.003906c-7.7656 0-14.062 6.2969-14.062 14.062s6.2969 14.062 14.062 14.062h39.504l-4.0391 229.97-35.465-0.003906c-7.7656 0-14.062 6.2969-14.062 14.062s6.2969 14.062 14.062 14.062h34.973l-4.0391 229.97h-30.934c-7.7656 0-14.062 6.2969-14.062 14.062s6.2969 14.062 14.062 14.062h30.441l-4.0391 229.97h-26.402c-7.7656 0-14.062 6.2969-14.062 14.062s6.2969 14.062 14.062 14.062h25.91l-2.2617 128.8c-21.723 6.0664-37.711 26.023-37.711 49.656v36.906c0 28.434 23.129 51.562 51.562 51.562h1078.1c28.434 0 51.562-23.129 51.562-51.562v-36.906c0-23.633-15.988-43.59-37.711-49.656l-2.2617-128.8h25.91c7.7656 0 14.062-6.2969 14.062-14.062s-6.2969-14.062-14.062-14.062h-26.406l-4.0391-229.97h30.441c7.7656 0 14.062-6.2969 14.062-14.062s-6.2969-14.062-14.062-14.062h-30.934l-4.0391-229.97zm-996.57 643.09v-59.891c7.0391 3.6094 15 5.6562 23.438 5.6562h26.734c28.434 0 51.562-23.129 51.562-51.562v-21.105h131.48v21.105c0 28.434 23.129 51.562 51.562 51.562h26.734c28.434 0 51.562-23.129 51.562-51.562v-21.105h255.01v21.105c0 28.434 23.129 51.562 51.562 51.562h26.734c28.434 0 51.562-23.129 51.562-51.562v-21.105h92.066v126.9zm507.68-622.09c0 12.922-10.516 23.438-23.438 23.438h-26.734c-12.922 0-23.438-10.516-23.438-23.438v-70.336c0-12.922 10.516-23.438 23.438-23.438h26.734c12.922 0 23.438 10.516 23.438 23.438zm-50.172 51.562h26.734c28.434 0 51.562-23.129 51.562-51.562v-20.996h202.47v20.996c0 28.434 23.129 51.562 51.562 51.562h26.734c8.4375 0 16.398-2.0508 23.438-5.6562v163.07h-92.066v-25.715c0-28.434-23.129-51.562-51.562-51.562h-26.734c-14.766 0-28.09 6.25-37.5 16.227-9.4102-9.9805-22.734-16.227-37.5-16.227h-26.734c-28.434 0-51.562 23.129-51.562 51.562v25.715h-153.27v-25.715c0-28.434-23.129-51.562-51.562-51.562h-26.734c-28.434 0-51.562 23.129-51.562 51.562v25.715l-233.21-0.003906v-163.07c7.0391 3.6094 15 5.6562 23.438 5.6562h26.734c28.434 0 51.562-23.129 51.562-51.562v-20.996h304.21v20.996c0 28.434 23.129 51.562 51.562 51.562zm382.5-51.562c0 12.922-10.516 23.438-23.438 23.438h-26.734c-12.922 0-23.438-10.516-23.438-23.438v-70.336c0-12.922 10.516-23.438 23.438-23.438h26.734c12.922 0 23.438 10.516 23.438 23.438zm-193.8 445.96c0-12.922 10.516-23.438 23.438-23.438h26.734c12.922 0 23.438 10.516 23.438 23.438v70.336c0 12.922-10.516 23.438-23.438 23.438h-26.734c-12.922 0-23.438-10.516-23.438-23.438zm50.172-51.562h-26.734c-28.434 0-51.562 23.129-51.562 51.562v21.105h-255.01v-21.105c0-28.434-23.129-51.562-51.562-51.562h-26.734c-28.434 0-51.562 23.129-51.562 51.562v21.105h-131.48v-21.105c0-28.434-23.129-51.562-51.562-51.562h-26.734c-8.4375 0-16.398 2.0508-23.438 5.6562v-162.96h233.21v16.496c0 28.434 23.129 51.562 51.562 51.562h26.734c28.434 0 51.562-23.129 51.562-51.562v-16.496h153.27v16.496c0 28.434 23.129 51.562 51.562 51.562h26.734c14.766 0 28.09-6.25 37.5-16.227 9.4102 9.9805 22.734 16.227 37.5 16.227h26.734c28.434 0 51.562-23.129 51.562-51.562v-16.496h92.066v229.97h-92.066v-21.105c0-28.434-23.129-51.562-51.562-51.562zm-435.04 51.562c0-12.922 10.516-23.438 23.438-23.438h26.734c12.922 0 23.438 10.516 23.438 23.438v70.336c0 12.922-10.516 23.438-23.438 23.438h-26.734c-12.922 0-23.438-10.516-23.438-23.438zm-261.34 0c0-12.922 10.516-23.438 23.438-23.438h26.734c12.922 0 23.438 10.516 23.438 23.438v70.336c0 12.922-10.516 23.438-23.438 23.438h-26.734c-12.922 0-23.438-10.516-23.438-23.438zm334.94-192.37c0 12.922-10.516 23.438-23.438 23.438h-26.734c-12.922 0-23.438-10.516-23.438-23.438v-70.336c0-12.922 10.516-23.438 23.438-23.438h26.734c12.922 0 23.438 10.516 23.438 23.438zm283.13 0c0 12.922-10.516 23.438-23.438 23.438h-26.734c-12.922 0-23.438-10.516-23.438-23.438v-70.336c0-12.922 10.516-23.438 23.438-23.438h26.734c12.922 0 23.438 10.516 23.438 23.438zm28.125-70.336c0-12.922 10.516-23.438 23.438-23.438h26.734c12.922 0 23.438 10.516 23.438 23.438v70.336c0 12.922-10.516 23.438-23.438 23.438h-26.734c-12.922 0-23.438-10.516-23.438-23.438zm-572.59-183.26c0 12.922-10.516 23.438-23.438 23.438h-26.734c-12.922 0-23.438-10.516-23.438-23.438v-70.336c0-12.922 10.516-23.438 23.438-23.438h26.734c12.922 0 23.438 10.516 23.438 23.438zm563.98-328.32c0-12.922 10.516-23.438 23.438-23.438h26.734c12.922 0 23.438 10.516 23.438 23.438v70.336c0 12.922-10.516 23.438-23.438 23.438h-26.734c-12.922 0-23.438-10.516-23.438-23.438zm-370.58-23.438h26.734c12.922 0 23.438 10.516 23.438 23.438v70.336c0 12.922-10.516 23.438-23.438 23.438h-26.734c-12.922 0-23.438-10.516-23.438-23.438v-70.336c0-12.922 10.516-23.438 23.438-23.438zm-125.17 23.438c0-12.922 10.516-23.438 23.438-23.438h26.734c12.922 0 23.438 10.516 23.438 23.438v70.336c0 12.922-10.516 23.438-23.438 23.438h-26.734c-12.922 0-23.438-10.516-23.438-23.438zm-28.125 49.23v21.105c0 28.434 23.129 51.562 51.562 51.562h26.734c14.766 0 28.09-6.25 37.5-16.227 9.4102 9.9805 22.734 16.227 37.5 16.227h26.734c28.434 0 51.562-23.129 51.562-51.562v-21.105h264.16v21.105c0 28.434 23.129 51.562 51.562 51.562h26.734c28.434 0 51.562-23.129 51.562-51.562v-21.105h100.68v162.85c-7.0391-3.6094-15-5.6562-23.438-5.6562h-26.734c-28.434 0-51.562 23.129-51.562 51.562v21.215h-202.47v-21.215c0-28.434-23.129-51.562-51.562-51.562h-26.734c-28.434 0-51.562 23.129-51.562 51.562v21.215l-304.21-0.003906v-21.215c0-28.434-23.129-51.562-51.562-51.562h-26.734c-8.4375 0-16.398 2.0508-23.438 5.6562v-162.85zm-191.46-111.91h40.25c5.1719 0 9.375 4.2031 9.375 9.375v1003.7h-76.621l17.625-1003.9c0.089844-5.0781 4.293-9.2109 9.3711-9.2109zm1060.3 1064.7v36.906c0 12.922-10.516 23.438-23.438 23.438h-1078.1c-12.922 0-23.438-10.516-23.438-23.438v-36.906c0-12.922 10.516-23.438 23.438-23.438h1078.1c12.922 0 23.438 10.516 23.438 23.438z"/>
  <path d="m1138.5 229.68c0 7.7656-6.2969 14.062-14.062 14.062-7.7695 0-14.062-6.2969-14.062-14.062s6.293-14.062 14.062-14.062c7.7656 0 14.062 6.2969 14.062 14.062"/>
 </g>
</svg>
