<?xml version="1.0" encoding="UTF-8"?>
<svg width="1200pt" height="1200pt" version="1.1" viewBox="0 0 1200 1200" xmlns="http://www.w3.org/2000/svg">
 <g fill="currentColor">
  <path d="m387.5 731.25h-100c-10.352 0-18.75 8.3984-18.75 18.75v81.25h137.5v-81.25c0-10.352-8.3984-18.75-18.75-18.75z"/>
  <path d="m268.75 950c0 10.352 8.3984 18.75 18.75 18.75h100c10.352 0 18.75-8.3984 18.75-18.75v-81.25h-137.5z"/>
  <path d="m443.75 768.75h137.5v62.5h-137.5z"/>
  <path d="m562.5 631.25h-100c-10.352 0-18.75 8.3984-18.75 18.75v81.25h137.5v-81.25c0-10.352-8.3984-18.75-18.75-18.75z"/>
  <path d="m443.75 950c0 10.352 8.3984 18.75 18.75 18.75h100c10.352 0 18.75-8.3984 18.75-18.75v-81.25h-137.5z"/>
  <path d="m618.75 668.75h137.5v62.5h-137.5z"/>
  <path d="m618.75 768.75h137.5v62.5h-137.5z"/>
  <path d="m618.75 950c0 10.352 8.3984 18.75 18.75 18.75h100c10.352 0 18.75-8.3984 18.75-18.75v-81.25h-137.5z"/>
  <path d="m737.5 531.25h-100c-10.352 0-18.75 8.3984-18.75 18.75v81.25h137.5v-81.25c0-10.352-8.3984-18.75-18.75-18.75z"/>
  <path d="m793.75 568.75h137.5v62.5h-137.5z"/>
  <path d="m793.75 668.75h137.5v62.5h-137.5z"/>
  <path d="m912.5 431.25h-100c-10.352 0-18.75 8.3984-18.75 18.75v81.25h137.5v-81.25c0-10.352-8.3984-18.75-18.75-18.75z"/>
  <path d="m793.75 950c0 10.352 8.3984 18.75 18.75 18.75h100c10.352 0 18.75-8.3984 18.75-18.75v-81.25h-137.5z"/>
  <path d="m793.75 768.75h137.5v62.5h-137.5z"/>
  <path d="m337.5 668.75c10.352 0 18.75-8.3984 18.75-18.75v-50c0-17.234 14.016-31.25 31.25-31.25h125c10.352 0 18.75-8.3984 18.75-18.75v-50c0-17.234 14.016-31.25 31.25-31.25h125c10.352 0 18.75-8.3984 18.75-18.75v-100c0-17.234 14.016-31.25 31.25-31.25h104.73l-17.992 17.992c-7.3242 7.3242-7.3242 19.191 0 26.516 7.2734 7.2695 19.281 7.2266 26.512 0 0.058594-0.058593 50-50 50-50 7.3242-7.3242 7.3242-19.191 0-26.516l-50-50c-7.3242-7.3242-19.191-7.3242-26.516 0-7.3242 7.3242-7.3242 19.191 0 26.516l17.996 17.992h-104.73c-37.914 0-68.75 30.836-68.75 68.75v81.25h-106.25c-37.914 0-68.75 30.836-68.75 68.75v31.25h-106.25c-37.914 0-68.75 30.836-68.75 68.75v50c0 10.352 8.3984 18.75 18.75 18.75z"/>
 </g>
</svg>
