<?xml version="1.0" encoding="UTF-8"?>
<svg width="1200pt" height="1200pt" version="1.1" viewBox="0 0 1200 1200" xmlns="http://www.w3.org/2000/svg">
 <g fill="currentColor">
  <path d="m1117.6 18.184h-1035.3c-39.273 0-71.453 32-71.453 71.453v107.09h1178.2l-0.003906-107.09c0-39.453-32-71.453-71.453-71.453zm-926.18 107.09h-42.727c-9.8164 0-17.816-8-17.816-17.816 0-9.8164 8-17.816 17.816-17.816h42.727c9.8164 0 17.816 8 17.816 17.816 0.003907 9.8164-7.9961 17.816-17.816 17.816zm153.09 0h-42.73c-9.8164 0-17.816-8-17.816-17.816 0-9.8164 8-17.816 17.816-17.816h42.91c9.8164 0 17.816 8 17.816 17.816-0.17969 9.8164-8.1797 17.816-17.996 17.816zm706.91 0h-507.27c-9.8164 0-17.816-8-17.816-17.816 0-9.8164 8-17.816 17.816-17.816h507.27c9.8164 0 17.816 8 17.816 17.816 0.003907 9.8164-7.9961 17.816-17.816 17.816z"/>
  <path d="m532.73 603.64 123.64 77.453-35.273 6.9102c-5.4531 1.0898-10.184 4.7266-12.727 9.6367-2.3633 4.9102-2.5469 10.727 0 15.637l43.637 89.09-35.273 17.273-43.637-89.09c-2.5469-4.9102-6.9102-8.5469-12.547-9.6367-1.0898-0.18359-2.3633-0.36328-3.6367-0.36328-4.3633 0-8.3633 1.6367-11.637 4.5469l-27.09 23.637z"/>
  <path d="m798.36 689.09h36.184v-116.18l-234.55-133.63-234.36 133.82v116h36c10 0 17.816 8 17.816 17.816 0 10-7.8164 17.816-17.816 17.816h-36v116.18l234.36 134 234.55-133.64v-116.36h-36.184c-10 0-17.816-7.8164-17.816-17.816 0-9.8203 7.8164-18.004 17.816-18.004zm-76.727 4.1836c-1.2734 7.0898-6.7266 12.91-14.184 14.363l-56.727 11.09 41.273 84.184c4.3633 8.7266 0.72656 19.453-8.1836 23.816l-67.453 33.09c-2.5469 1.2734-5.0898 1.8164-7.8164 1.8164-2 0-4-0.18359-5.6367-0.91016-4.5469-1.6367-8.1836-4.9102-10.363-9.0898l-41.09-84-43.637 38c-5.4531 4.9102-13.637 5.6367-20 2.3633-6.3633-3.4531-10.363-10.363-9.6367-17.637l22-218.55c0.72656-6.1836 4.5469-11.637 10-14.363 5.4531-2.7266 12.184-2.3633 17.273 0.91016l186.18 116.73c6.1758 3.6406 9.2695 10.914 7.9961 18.188z"/>
  <path d="m10.91 232.36v878c0 39.453 32.18 71.453 71.453 71.453h1035.3c39.453 0 71.453-32 71.453-71.453v-878zm1017.5 456.73c9.8164 0 17.816 8 17.816 17.816 0 10-8 17.816-17.816 17.816h-158.18v119.45l65.816 66.547h92.363c9.8164 0 17.816 8 17.816 17.816 0 9.8164-8 17.816-17.816 17.816h-99.637c-4.9102 0-9.4531-1.8164-12.727-5.0898l-66.727-67.453-240.36 137.1c-2.9102 1.6367-5.8164 2.3633-8.9102 2.3633-3.0898 0-6-0.72656-8.9102-2.3633l-240.18-137.27-66.91 67.637c-3.2734 3.4531-7.8164 5.0898-12.727 5.0898h-99.633c-9.8164 0-17.816-8-17.816-17.816s8-17.816 17.816-17.816h92.363l66-66.547v-119.45l-158.36-0.003907c-9.8164 0-17.816-7.8164-17.816-17.816 0-9.8164 8-17.816 17.816-17.816h158.36v-119.27l-66-66.547h-92.363c-9.8164 0-17.816-8-17.816-17.816 0-9.8164 8-17.816 17.816-17.816h99.637c4.9102 0 9.4531 1.8164 12.727 5.0898l66.91 67.453 240.18-137.09c5.4531-3.0898 12.363-3.0898 17.816 0l240.36 137.09 66.727-67.453c3.2734-3.4531 7.8164-5.0898 12.727-5.0898h99.637c9.8164 0 17.816 8 17.816 17.816 0 9.8164-8 17.816-17.816 17.816h-92.363l-65.816 66.547v119.27z"/>
 </g>
</svg>
