<?xml version="1.0" encoding="UTF-8"?>
<svg width="1200pt" height="1200pt" version="1.1" viewBox="200 200 800 800" xmlns="http://www.w3.org/2000/svg">
 <g fill="currentColor">
  <path d="m554.22 818.75h-85.473v31.25c0 10.352-8.3984 18.75-18.75 18.75s-18.75-8.3984-18.75-18.75v-31.25h-106.25c-20.117 0-40.09-6.6406-56.227-18.727l-37.523-28.148v153.12c0 24.121 19.629 43.75 43.75 43.75h350c24.121 0 43.75-19.629 43.75-43.75v-159.38l-66.285 39.77c-14.551 8.7422-31.25 13.355-48.242 13.355z"/>
  <path d="m325 781.25h106.25v-6.25c0-10.352 8.3984-18.75 18.75-18.75s18.75 8.3984 18.75 18.75v6.25h85.473c10.203 0 20.215-2.7852 28.953-8.0078l85.273-51.184c-1.543-22.73-20.336-40.809-43.449-40.809h-61.477l-15.035-45.066c-5.9609-17.898-22.633-29.934-41.504-29.934h-113.97c-18.871 0-35.547 12.035-41.504 29.906l-15.035 45.094h-61.477c-24.121 0-43.75 19.629-43.75 43.75v0.007812l60.008 45.012c9.6719 7.2266 21.684 11.23 33.742 11.23zm62.109-133.25c0.82812-2.5391 3.2227-4.2461 5.9102-4.2461h113.96c2.6836 0 5.0781 1.7109 5.9102 4.2734l11.086 33.227h-147.95z"/>
  <path d="m775 231.25c-26.75 0-49.75 15.25-61.25 37.5h122.5c-11.5-22.25-34.5-37.5-61.25-37.5z"/>
  <path d="m706.25 925c0 24 19.75 43.75 43.75 43.75h50c24 0 43.75-19.75 43.75-43.75v-243.75h-137.5z"/>
  <path d="m625 443.75h275c4.9805 0 9.7422-1.9766 13.258-5.4922l50-50c7.3242-7.3242 7.3242-19.191 0-26.516l-50-50c-3.5156-3.5156-8.2773-5.4922-13.258-5.4922h-275c-24.121 0-43.75 19.629-43.75 43.75v50c0 24.121 19.629 43.75 43.75 43.75z"/>
  <path d="m925 506.25h-275c-4.9805 0-9.7422 1.9766-13.258 5.4922l-50 50c-7.3242 7.3242-7.3242 19.191 0 26.516l50 50c3.5156 3.5156 8.2773 5.4922 13.258 5.4922h275c24.121 0 43.75-19.629 43.75-43.75v-50c0-24.121-19.629-43.75-43.75-43.75z"/>
 </g>
</svg>
