<?xml version="1.0" encoding="UTF-8" standalone="no"?>
<!DOCTYPE svg PUBLIC "-//W3C//DTD SVG 1.1//EN" "http://www.w3.org/Graphics/SVG/1.1/DTD/svg11.dtd">
<svg width="100%" height="100%" viewBox="0 0 150 90" version="1.1" xmlns="http://www.w3.org/2000/svg" xmlns:xlink="http://www.w3.org/1999/xlink" xml:space="preserve" xmlns:serif="http://www.serif.com/" style="fill-rule:evenodd;clip-rule:evenodd;stroke-linejoin:round;stroke-miterlimit:2;">
    <g transform="matrix(0.1,0,0,0.1,18.786,-17.2808)">
        <path d="M834.28,368.16L1021.5,368.16C1037.62,368.16 1052.25,374.723 1062.84,385.316C1073.44,395.91 1080,410.535 1080,426.66L1080,829.84C1080,845.965 1073.44,860.59 1062.84,871.184C1052.25,881.778 1037.62,888.34 1021.5,888.34L985.547,888.34L985.547,984.762C985.547,990.575 983.813,996.106 980.625,1000.84C977.531,1005.48 973.078,1009.18 967.594,1011.43C962.157,1013.68 956.391,1014.2 951,1013.17C945.422,1012.04 940.266,1009.37 936.141,1005.2L819.281,888.34L424.221,888.34C408.096,888.34 393.471,881.777 382.877,871.184C372.283,860.59 365.721,845.965 365.721,829.84L365.721,721.51L263.811,823.42C259.639,827.592 254.53,830.263 248.952,831.388C243.561,832.467 237.843,831.904 232.358,829.654C226.921,827.404 222.421,823.701 219.327,819.06C216.186,814.279 214.452,808.748 214.452,802.935L214.452,706.513L178.499,706.513C163.03,706.513 148.827,700.372 138.327,690.388C137.952,690.06 137.53,689.685 137.155,689.31C126.561,678.716 119.999,664.091 119.999,647.966L119.999,244.886C119.999,229.417 126.14,215.214 136.124,204.714C136.452,204.339 136.827,203.917 137.202,203.542C147.796,192.948 162.421,186.386 178.546,186.386L775.826,186.386C791.342,186.386 805.498,192.527 815.998,202.511C816.42,202.839 816.795,203.214 817.17,203.589C827.764,214.183 834.326,228.808 834.326,244.933L834.28,368.16ZM271.31,339.66L682.97,339.66C692.908,339.66 700.97,331.598 700.97,321.66C700.97,311.723 692.908,303.66 682.97,303.66L271.31,303.66C261.373,303.66 253.31,311.723 253.31,321.66C253.31,331.598 261.373,339.66 271.31,339.66ZM271.31,584.92L682.97,584.92C692.908,584.92 700.97,576.858 700.97,566.92C700.97,556.983 692.908,548.92 682.97,548.92L271.31,548.92C261.373,548.92 253.31,556.983 253.31,566.92C253.31,576.858 261.373,584.92 271.31,584.92ZM401.71,706.52L401.71,829.8C401.71,835.988 404.241,841.612 408.319,845.691C412.397,849.769 418.022,852.3 424.21,852.3L822.27,852.3C826.067,852.3 829.723,853.05 833.286,854.504C836.896,856.004 840.036,858.066 842.708,860.785L949.538,967.615L949.538,881.271C949.538,873.349 952.773,866.13 958.023,860.88L958.07,860.833C963.32,855.583 970.539,852.348 978.461,852.348L1021.49,852.348C1027.68,852.348 1033.3,849.817 1037.38,845.739C1041.46,841.661 1043.99,836.036 1043.99,829.848L1043.99,426.668C1043.99,420.481 1041.46,414.856 1037.38,410.777C1033.3,406.699 1027.68,404.168 1021.49,404.168L834.272,404.168L834.272,648.008C834.272,664.133 827.709,678.758 817.116,689.352L817.069,689.305C806.428,699.946 791.803,706.508 775.772,706.508L401.71,706.52ZM377.71,670.52L775.73,670.52C781.964,670.52 787.589,667.989 791.621,663.958L791.668,663.911L791.621,663.864C795.699,659.786 798.23,654.161 798.23,647.973L798.277,386.183L798.277,244.903C798.277,238.715 795.746,233.091 791.668,229.012L790.965,228.309C786.934,224.652 781.59,222.402 775.777,222.402L178.497,222.356C172.309,222.356 166.685,224.887 162.606,228.965C162.371,229.199 162.137,229.434 161.856,229.668C158.2,233.652 155.95,238.996 155.95,244.856L155.95,648.036C155.95,654.224 158.481,659.848 162.559,663.927C162.793,664.161 163.028,664.396 163.262,664.677C167.246,668.333 172.59,670.583 178.45,670.583L221.481,670.583C229.403,670.583 236.622,673.818 241.872,679.068L241.919,679.115L241.966,679.068C247.216,684.318 250.45,691.537 250.45,699.506L250.45,785.897L357.28,679.067C359.952,676.395 363.093,674.332 366.655,672.832L366.655,672.785C370.218,671.285 373.874,670.535 377.717,670.535L377.71,670.52ZM271.3,462.3L682.96,462.3C692.898,462.3 700.96,454.238 700.96,444.3C700.96,434.363 692.898,426.3 682.96,426.3L271.3,426.3C261.363,426.3 253.3,434.363 253.3,444.3C253.3,454.238 261.363,462.3 271.3,462.3Z"/>
    </g>
</svg>
