<?xml version="1.0" encoding="UTF-8"?>
<svg width="1200pt" height="1200pt" version="1.1" viewBox="0 0 1200 1200" xmlns="http://www.w3.org/2000/svg">
 <path d="m834.28 368.16h187.22c16.125 0 30.75 6.5625 41.344 17.156s17.156 25.219 17.156 41.344v403.18c0 16.125-6.5625 30.75-17.156 41.344s-25.219 17.156-41.344 17.156h-35.953v96.422c0 5.8125-1.7344 11.344-4.9219 16.078-3.0938 4.6406-7.5469 8.3438-13.031 10.594-5.4375 2.25-11.203 2.7656-16.594 1.7344-5.5781-1.125-10.734-3.7969-14.859-7.9688l-116.86-116.86h-395.06c-16.125 0-30.75-6.5625-41.344-17.156s-17.156-25.219-17.156-41.344v-108.33l-101.91 101.91c-4.1719 4.1719-9.2812 6.8438-14.859 7.9688-5.3906 1.0781-11.109 0.51563-16.594-1.7344-5.4375-2.25-9.9375-5.9531-13.031-10.594-3.1406-4.7812-4.875-10.312-4.875-16.125v-96.422h-35.953c-15.469 0-29.672-6.1406-40.172-16.125-0.375-0.32812-0.79688-0.70312-1.1719-1.0781-10.594-10.594-17.156-25.219-17.156-41.344v-403.08c0-15.469 6.1406-29.672 16.125-40.172 0.32812-0.375 0.70312-0.79688 1.0781-1.1719 10.594-10.594 25.219-17.156 41.344-17.156h597.28c15.516 0 29.672 6.1406 40.172 16.125 0.42188 0.32813 0.79688 0.70313 1.1719 1.0781 10.594 10.594 17.156 25.219 17.156 41.344zm-562.97-28.5h411.66c9.9375 0 18-8.0625 18-18s-8.0625-18-18-18h-411.66c-9.9375 0-18 8.0625-18 18s8.0625 18 18 18zm0 245.26h411.66c9.9375 0 18-8.0625 18-18s-8.0625-18-18-18h-411.66c-9.9375 0-18 8.0625-18 18s8.0625 18 18 18zm130.4 121.6v123.28c0 6.1875 2.5312 11.812 6.6094 15.891 4.0781 4.0781 9.7031 6.6094 15.891 6.6094h398.06c3.7969 0 7.4531 0.75 11.016 2.2031 3.6094 1.5 6.75 3.5625 9.4219 6.2812l106.83 106.83v-86.344c0-7.9219 3.2344-15.141 8.4844-20.391l0.046874-0.046875c5.25-5.25 12.469-8.4844 20.391-8.4844h43.031c6.1875 0 11.812-2.5312 15.891-6.6094 4.0781-4.0781 6.6094-9.7031 6.6094-15.891v-403.18c0-6.1875-2.5312-11.812-6.6094-15.891-4.0781-4.0781-9.7031-6.6094-15.891-6.6094h-187.22v243.84c0 16.125-6.5625 30.75-17.156 41.344l-0.046875-0.046875c-10.641 10.641-25.266 17.203-41.297 17.203zm-24-36h398.02c6.2344 0 11.859-2.5312 15.891-6.5625l0.046874-0.046875-0.046874-0.046875c4.0781-4.0781 6.6094-9.7031 6.6094-15.891l0.046876-261.79v-141.28c0-6.1875-2.5312-11.812-6.6094-15.891l-0.70312-0.70312c-4.0312-3.6562-9.375-5.9062-15.188-5.9062l-597.28-0.046876c-6.1875 0-11.812 2.5312-15.891 6.6094-0.23438 0.23437-0.46875 0.46875-0.75 0.70312-3.6562 3.9844-5.9062 9.3281-5.9062 15.188v403.18c0 6.1875 2.5312 11.812 6.6094 15.891 0.23438 0.23438 0.46875 0.46875 0.70312 0.75 3.9844 3.6562 9.3281 5.9062 15.188 5.9062h43.031c7.9219 0 15.141 3.2344 20.391 8.4844l0.046875 0.046875 0.046875-0.046875c5.25 5.25 8.4844 12.469 8.4844 20.438v86.391l106.83-106.83c2.6719-2.6719 5.8125-4.7344 9.375-6.2344v-0.046875c3.5625-1.5 7.2188-2.25 11.062-2.25zm-106.41-208.22h411.66c9.9375 0 18-8.0625 18-18s-8.0625-18-18-18h-411.66c-9.9375 0-18 8.0625-18 18s8.0625 18 18 18z" fill-rule="evenodd"/>
</svg>
