<?xml version="1.0" encoding="UTF-8"?>
<svg width="1200pt" height="1200pt" version="1.1" viewBox="0 0 1200 1200" xmlns="http://www.w3.org/2000/svg">
 <g fill="currentColor">
 <path d="m600 53.117c-301.55 0-546.88 245.33-546.88 546.88s245.32 546.88 546.88 546.88c301.55 0 546.88-245.32 546.88-546.88 0-301.55-245.33-546.88-546.88-546.88zm-114.54 549.53c-0.16797 0.88281-0.30078 1.7422-0.63672 2.6055-0.35547 0.86328-0.91797 1.5938-1.4453 2.3984-0.39453 0.60156-0.60156 1.293-1.125 1.8555-0.14844 0.14844-0.35547 0.20703-0.48828 0.35547-0.14844 0.14844-0.22656 0.375-0.39453 0.52344l-140.62 128.74c-2.6992 2.457-6.0938 3.6758-9.4883 3.6758-3.8047 0-7.5938-1.5391-10.367-4.5547-5.25-5.7383-4.8555-14.625 0.88281-19.895l129.28-118.35-129.3-118.37c-5.7383-5.25-6.1328-14.137-0.88281-19.875 5.25-5.7383 14.137-6.1133 19.875-0.88281l140.62 128.74c0.16797 0.14844 0.22656 0.35547 0.375 0.50781 0.14844 0.14844 0.35547 0.20703 0.50781 0.375 0.50781 0.5625 0.71094 1.2578 1.125 1.8555 0.52344 0.78906 1.1055 1.5391 1.4453 2.3984 0.33594 0.84375 0.44922 1.707 0.63672 2.6055 0.16797 0.88281 0.39453 1.7266 0.39453 2.6445s-0.24609 1.7422-0.39453 2.6445zm383.29 140.14h-324.99c-7.7617 0-14.062-6.3008-14.062-14.062s6.3008-14.062 14.062-14.062h324.99c7.7617 0 14.062 6.3008 14.062 14.062s-6.2969 14.062-14.062 14.062z"/>
 </g>
</svg>
