<?xml version="1.0" encoding="UTF-8"?>
<svg width="1200pt" height="1200pt" version="1.1" viewBox="0 0 1200 1200" xmlns="http://www.w3.org/2000/svg">
 <g fill="currentColor">
 <path d="m734.65 465.35c-34.484-34.484-82.105-55.832-134.65-55.832s-100.29 21.348-134.65 55.832c-34.484 34.484-55.832 82.105-55.832 134.65s21.348 100.17 55.832 134.65 82.105 55.832 134.65 55.832 100.29-21.348 134.65-55.832 55.832-82.105 55.832-134.65-21.348-100.29-55.832-134.65zm-432 22.988c0.88281-0.25391 1.7695-0.50391 2.5273-1.0117 6.5703-3.2852 9.2227-11.367 5.8086-17.938l-41.051-80.465 118.86-118.86 80.465 41.051s1.2617 0.50391 1.8945 0.75781c6.9492 2.2734 14.527-1.5156 16.801-8.5898l27.914-85.895h168.12l27.664 85.262c0.25391 0.88281 0.50391 1.7695 1.0117 2.5273 3.2852 6.5703 11.367 9.2227 17.938 5.8086l80.465-41.051 118.86 118.86-41.051 80.465s-0.63281 1.2617-0.75781 1.8945c-2.2734 6.9492 1.5156 14.527 8.5898 16.801l85.895 27.914v168.12l-85.262 27.664c-0.88281 0.25391-1.7695 0.50391-2.5273 1.0117-6.5703 3.2852-9.2227 11.367-5.8086 17.938l41.051 80.465-118.86 118.86-80.465-41.051s-1.2617-0.50391-1.8945-0.75781c-6.9492-2.2734-14.527 1.5156-16.801 8.5898l-27.914 85.895h-168.12l-27.664-85.262c-0.25391-0.88281-0.50391-1.7695-1.0117-2.5273-3.2852-6.5703-11.367-9.2227-17.938-5.8086l-80.465 41.051-118.86-118.86 41.051-80.465s0.63281-1.2617 0.75781-1.8945c2.2734-6.9492-1.5156-14.527-8.5898-16.801l-85.895-27.914v-168.12zm143.62-456.76c-13.137 0-25.012 5.3047-33.602 13.895s-13.895 20.465-13.895 33.602 5.3047 25.012 13.895 33.602c5.5586 5.5586 12.504 9.7266 20.336 12v94.359c0 7.3281 5.9375 13.262 13.262 13.262 7.3281 0 13.262-5.9375 13.262-13.262v-94.359c7.707-2.2734 14.652-6.4414 20.336-12 8.5898-8.5898 13.895-20.465 13.895-33.602s-5.3047-25.012-13.895-33.602c-8.5898-8.5898-20.465-13.895-33.602-13.895zm528.88 25.895c-13.137 0-25.012 5.3047-33.602 13.895-5.5586 5.5586-9.7266 12.504-12 20.336h-168.63c-7.3281 0-13.262 5.9375-13.262 13.262v114.06c0 7.3281 5.9375 13.262 13.262 13.262 7.3281 0 13.262-5.9375 13.262-13.262v-100.8h155.37c2.2734 7.707 6.4414 14.652 12 20.336 8.5898 8.5898 20.465 13.895 33.602 13.895 13.137 0 25.012-5.3047 33.602-13.895s13.895-20.465 13.895-33.602c0-13.137-5.3047-25.012-13.895-33.602s-20.465-13.895-33.602-13.895zm193.39 388.8c0-13.137-5.3047-25.012-13.895-33.602s-20.465-13.895-33.602-13.895-25.012 5.3047-33.602 13.895c-5.5586 5.5586-9.7266 12.504-12 20.336h-94.359c-7.3281 0-13.262 5.9375-13.262 13.262 0 7.3281 5.9375 13.262 13.262 13.262h94.359c2.2734 7.707 6.4414 14.652 12 20.336 8.5898 8.5898 20.465 13.895 33.602 13.895s25.012-5.3047 33.602-13.895c8.5898-8.5898 13.895-20.465 13.895-33.602zm-25.895 528.88c0-13.137-5.3047-25.012-13.895-33.602-5.5586-5.5586-12.504-9.7266-20.336-12v-168.63c0-7.3281-5.9375-13.262-13.262-13.262h-114.06c-7.3281 0-13.262 5.9375-13.262 13.262 0 7.3281 5.9375 13.262 13.262 13.262h100.8v155.37c-7.707 2.2734-14.652 6.4414-20.336 12-8.5898 8.5898-13.895 20.465-13.895 33.602 0 13.137 5.3047 25.012 13.895 33.602s20.465 13.895 33.602 13.895c13.137 0 25.012-5.3047 33.602-13.895s13.895-20.465 13.895-33.602zm-388.8 193.39c13.137 0 25.012-5.3047 33.602-13.895s13.895-20.465 13.895-33.602-5.3047-25.012-13.895-33.602c-5.5586-5.5586-12.504-9.7266-20.336-12v-94.359c0-7.3281-5.9375-13.262-13.262-13.262-7.3281 0-13.262 5.9375-13.262 13.262v94.359c-7.707 2.2734-14.652 6.4414-20.336 12-8.5898 8.5898-13.895 20.465-13.895 33.602s5.3047 25.012 13.895 33.602c8.5898 8.5898 20.465 13.895 33.602 13.895zm-528.88-25.895c13.137 0 25.012-5.3047 33.602-13.895 5.5586-5.5586 9.7266-12.504 12-20.336h168.63c7.3281 0 13.262-5.9375 13.262-13.262v-114.06c0-7.3281-5.9375-13.262-13.262-13.262-7.3281 0-13.262 5.9375-13.262 13.262v100.8h-155.37c-2.2734-7.707-6.4414-14.652-12-20.336-8.5898-8.5898-20.465-13.895-33.602-13.895-13.137 0-25.012 5.3047-33.602 13.895s-13.895 20.465-13.895 33.602c0 13.137 5.3047 25.012 13.895 33.602s20.465 13.895 33.602 13.895zm-193.39-388.93c0 13.137 5.3047 25.012 13.895 33.602s20.465 13.895 33.602 13.895 25.012-5.3047 33.602-13.895c5.5586-5.5586 9.7266-12.504 12-20.336h94.359c7.3281 0 13.262-5.9375 13.262-13.262 0-7.3281-5.9375-13.262-13.262-13.262h-94.359c-2.2734-7.707-6.4414-14.652-12-20.336-8.5898-8.5898-20.465-13.895-33.602-13.895s-25.012 5.3047-33.602 13.895c-8.5898 8.5898-13.895 20.465-13.895 33.602zm25.895-528.88c0 13.137 5.3047 25.012 13.895 33.602 5.5586 5.5586 12.504 9.7266 20.336 12v168.63c0 7.3281 5.9375 13.262 13.262 13.262h114.06c7.3281 0 13.262-5.9375 13.262-13.262 0-7.3281-5.9375-13.262-13.262-13.262h-100.8v-155.37c7.707-2.2734 14.652-6.4414 20.336-12 8.5898-8.5898 13.895-20.465 13.895-33.602 0-13.137-5.3047-25.012-13.895-33.602s-20.465-13.895-33.602-13.895c-13.137 0-25.012 5.3047-33.602 13.895s-13.895 20.465-13.895 33.602zm452.34 298.48c5.1797-5.1797 13.641-5.1797 18.82 0 5.1797 5.1797 5.1797 13.641 0 18.82l-61.391 61.391 54.062 54.062c5.1797 5.1797 5.1797 13.641 0 18.82-5.1797 5.1797-13.641 5.1797-18.82 0l-63.535-63.535c-5.1797-5.1797-5.1797-13.641 0-18.82l70.863-70.863zm161.56 18.82c-5.1797-5.1797-5.1797-13.641 0-18.82 5.1797-5.1797 13.641-5.1797 18.82 0l70.863 70.863c5.1797 5.1797 5.1797 13.641 0 18.82l-63.535 63.535c-5.1797 5.1797-13.641 5.1797-18.82 0-5.1797-5.1797-5.1797-13.641 0-18.82l54.062-54.062-61.391-61.391zm-42.062-25.012c3.6641-6.3164 11.746-8.4648 18.191-4.8008 6.3164 3.6641 8.4648 11.875 4.8008 18.191l-87.156 150.95c-3.6641 6.3164-11.746 8.4648-18.191 4.8008-6.3164-3.6641-8.4648-11.746-4.8008-18.191zm-29.305-134.4c60 0 114.19 24.254 153.6 63.664 39.285 39.285 63.664 93.602 63.664 153.6s-24.254 114.19-63.664 153.6c-39.285 39.285-93.602 63.664-153.6 63.664s-114.19-24.254-153.6-63.664c-39.285-39.285-63.664-93.602-63.664-153.6s24.254-114.19 63.664-153.6c39.285-39.285 93.602-63.664 153.6-63.664z" fill-rule="evenodd"/>
 </g>
</svg>
