<?xml version="1.0" encoding="UTF-8"?>
<svg width="1200pt" height="1200pt" version="1.1" viewBox="0 0 1200 1200" xmlns="http://www.w3.org/2000/svg">
 <path d="m806.25 415.91c0-4.9727-1.9766-9.7422-5.4922-13.258-3.5156-3.5156-8.2852-5.4922-13.258-5.4922h-23.75c-2.8398-8.793-6.3945-17.344-10.617-25.562l16.82-16.82-0.003906 0.003906c3.5195-3.5156 5.4922-8.2852 5.4922-13.258 0-4.9727-1.9727-9.7422-5.4922-13.258l-48.211-48.211c-3.5156-3.5195-8.2852-5.4922-13.258-5.4922-4.9727 0-9.7422 1.9727-13.258 5.4922l-16.82 16.82 0.003906-0.003906c-8.2188-4.2227-16.77-7.7734-25.562-10.617v-23.75c0-4.9727-1.9766-9.7422-5.4922-13.258-3.5156-3.5156-8.2852-5.4922-13.258-5.4922h-68.188c-4.9727 0-9.7422 1.9766-13.258 5.4922-3.5156 3.5156-5.4922 8.2852-5.4922 13.258v23.75c-8.793 2.8398-17.344 6.3945-25.562 10.617l-16.82-16.82 0.003906 0.003906c-3.5156-3.5195-8.2852-5.4922-13.258-5.4922-4.9727 0-9.7422 1.9727-13.258 5.4922l-48.211 48.211c-3.5195 3.5156-5.4922 8.2852-5.4922 13.258 0 4.9727 1.9727 9.7422 5.4922 13.258l16.82 16.82-0.003906-0.003906c-4.2227 8.2188-7.7734 16.77-10.617 25.562h-23.75c-4.9727 0-9.7422 1.9766-13.258 5.4922-3.5156 3.5156-5.4922 8.2852-5.4922 13.258v68.188c0 4.9727 1.9766 9.7422 5.4922 13.258 3.5156 3.5195 8.2852 5.4922 13.258 5.4922h23.75c2.8398 8.7969 6.3945 17.344 10.617 25.562l-16.82 16.82h0.003906c-3.5195 3.5156-5.4922 8.2812-5.4922 13.254 0 4.9727 1.9727 9.7422 5.4922 13.258l48.211 48.211c3.5156 3.5195 8.2852 5.4922 13.258 5.4922 4.9727 0 9.7422-1.9727 13.258-5.4922l16.82-16.82-0.003906 0.003906c8.2188 4.2227 16.77 7.7734 25.562 10.617v23.75c0 4.9727 1.9766 9.7422 5.4922 13.258 3.5156 3.5156 8.2852 5.4922 13.258 5.4922h68.188c4.9727 0 9.7422-1.9766 13.258-5.4922 3.5195-3.5156 5.4922-8.2852 5.4922-13.258v-23.75c8.7969-2.8398 17.344-6.3945 25.562-10.617l16.82 16.82v-0.003906c3.5156 3.5195 8.2812 5.4922 13.254 5.4922 4.9727 0 9.7422-1.9727 13.258-5.4922l48.211-48.211c3.5195-3.5156 5.4922-8.2852 5.4922-13.258 0-4.9727-1.9727-9.7422-5.4922-13.258l-16.82-16.82 0.003906 0.003906c4.2227-8.2188 7.7734-16.77 10.617-25.562h23.75c4.9727 0 9.7422-1.9766 13.258-5.4922 3.5156-3.5156 5.4922-8.2852 5.4922-13.258zm-37.5 49.438h-6.5195c-7.6289 0.058594-15.039 2.5508-21.148 7.1172-6.1133 4.5664-10.605 10.965-12.824 18.262-2.3164 7.2695-5.2461 14.324-8.7617 21.094-3.6094 6.7344-4.9688 14.449-3.8828 22.012 1.0898 7.5625 4.5703 14.578 9.9336 20.02l4.6328 4.6328-21.699 21.699-4.6328-4.6328c-5.4375-5.3672-12.453-8.8477-20.016-9.9375-7.5625-1.0859-15.273 0.27344-22.008 3.8867-6.7695 3.5117-13.832 6.4453-21.102 8.7617-7.2969 2.2188-13.695 6.7109-18.262 12.824-4.5664 6.1094-7.0586 13.52-7.1172 21.148v6.5195h-30.688v-6.5195c-0.058594-7.6289-2.5508-15.039-7.1172-21.148-4.5664-6.1133-10.965-10.605-18.262-12.824-7.2695-2.3164-14.324-5.2461-21.094-8.7617-6.7344-3.6094-14.449-4.9688-22.012-3.8789-7.5625 1.0859-14.578 4.5664-20.02 9.9297l-4.6328 4.6328-21.699-21.699 4.6328-4.6328c5.3633-5.4414 8.8438-12.453 9.9336-20.016 1.0859-7.5625-0.27344-15.273-3.8828-22.008-3.5117-6.7695-6.4453-13.832-8.7617-21.102-2.2188-7.2969-6.7109-13.695-12.824-18.262-6.1094-4.5664-13.52-7.0586-21.148-7.1172h-6.5195v-30.688h6.5195c7.6289-0.058594 15.039-2.5508 21.148-7.1172 6.1133-4.5664 10.605-10.965 12.824-18.262 2.3164-7.2695 5.2461-14.324 8.7617-21.094 3.6094-6.7344 4.9688-14.449 3.8828-22.012-1.0898-7.5625-4.5703-14.578-9.9336-20.02l-4.6328-4.6328 21.699-21.699 4.6328 4.6328c5.4375 5.3672 12.453 8.8477 20.016 9.9375s15.273-0.27344 22.008-3.8867c6.7695-3.5117 13.832-6.4453 21.102-8.7617 7.2969-2.2188 13.695-6.7109 18.262-12.824 4.5664-6.1094 7.0586-13.52 7.1172-21.148v-6.5195h30.688v6.5195c0.058594 7.6289 2.5508 15.039 7.1172 21.148 4.5625 6.1133 10.965 10.605 18.262 12.824 7.2695 2.3164 14.324 5.2461 21.094 8.7617 6.7344 3.6133 14.445 4.9727 22.012 3.8828 7.5625-1.0859 14.578-4.5703 20.02-9.9336l4.6328-4.6328 21.699 21.699-4.6328 4.6328c-5.3633 5.4414-8.8438 12.453-9.9336 20.016-1.0859 7.5625 0.27344 15.273 3.8828 22.008 3.5117 6.7695 6.4453 13.832 8.7617 21.102 2.2188 7.2969 6.7109 13.695 12.824 18.262 6.1094 4.5664 13.52 7.0586 21.148 7.1172h6.5195z"/>
 <path d="m600 337.5c-29.836 0-58.453 11.852-79.551 32.949-21.098 21.098-32.949 49.715-32.949 79.551s11.852 58.453 32.949 79.551c21.098 21.098 49.715 32.949 79.551 32.949s58.453-11.852 79.551-32.949c21.098-21.098 32.949-49.715 32.949-79.551-0.03125-29.828-11.895-58.422-32.988-79.512-21.09-21.094-49.684-32.957-79.512-32.988zm0 187.5c-19.891 0-38.969-7.9023-53.031-21.969-14.066-14.062-21.969-33.141-21.969-53.031s7.9023-38.969 21.969-53.031c14.062-14.066 33.141-21.969 53.031-21.969s38.969 7.9023 53.031 21.969c14.066 14.062 21.969 33.141 21.969 53.031-0.023438 19.883-7.9336 38.949-21.992 53.008-14.059 14.059-33.125 21.969-53.008 21.992z"/>
 <path d="m56.25 1181.2h1087.5c6.3047 0 12.184-3.168 15.652-8.4297 3.4727-5.2617 4.0625-11.914 1.5781-17.707l-112.5-262.5c-1.4453-3.375-3.8477-6.25-6.9102-8.2695s-6.6523-3.0938-10.32-3.0938h-225v37.5h212.64l96.422 225h-1030.6l96.422-225h212.64v-37.5h-225c-3.668 0-7.2578 1.0742-10.32 3.0938s-5.4648 4.8945-6.9102 8.2695l-112.5 262.5c-2.4844 5.793-1.8945 12.445 1.5781 17.707 3.4688 5.2617 9.3477 8.4297 15.652 8.4297z"/>
 <path d="m543.75 712.5h37.5v112.5h-37.5z"/>
 <path d="m543.75 862.5h37.5v37.5h-37.5z"/>
 <path d="m543.75 937.5h37.5v93.75h-37.5z"/>
 <path d="m618.75 712.5h37.5v131.25h-37.5z"/>
 <path d="m618.75 881.25h37.5v150h-37.5z"/>
 <path d="m693.75 750h37.5v168.75h-37.5z"/>
 <path d="m468.75 956.25h37.5v37.5h-37.5z"/>
 <path d="m468.75 731.25h37.5v187.5h-37.5z"/>
 <path d="m693.75 956.25h37.5v37.5h-37.5z"/>
 <path d="m900 75c-4.9727 0-9.7422 1.9766-13.258 5.4922-3.5156 3.5156-5.4922 8.2852-5.4922 13.258v112.5c0 4.9727 1.9766 9.7422 5.4922 13.258 3.5156 3.5156 8.2852 5.4922 13.258 5.4922h56.25v37.5h-37.5c-4.9727 0-9.7422 1.9766-13.258 5.4922-3.5156 3.5156-5.4922 8.2852-5.4922 13.258v93.75c0 4.9727 1.9766 9.7422 5.4922 13.258 3.5156 3.5156 8.2852 5.4922 13.258 5.4922h93.75c4.9727 0 9.7422-1.9766 13.258-5.4922 3.5156-3.5156 5.4922-8.2852 5.4922-13.258v-37.5h93.75c4.9727 0 9.7422-1.9766 13.258-5.4922 3.5156-3.5156 5.4922-8.2852 5.4922-13.258v-150c0-4.9727-1.9766-9.7422-5.4922-13.258-3.5156-3.5156-8.2852-5.4922-13.258-5.4922h-93.75v-56.25c0-4.9727-1.9766-9.7422-5.4922-13.258-3.5156-3.5156-8.2852-5.4922-13.258-5.4922zm18.75 112.5v-75h75v37.5h-18.75c-4.9727 0-9.7422 1.9766-13.258 5.4922-3.5156 3.5156-5.4922 8.2852-5.4922 13.258v18.75zm75 168.75h-56.25v-56.25h18.75v18.75c0 4.9727 1.9766 9.7422 5.4922 13.258 3.5156 3.5156 8.2852 5.4922 13.258 5.4922h18.75zm112.5-168.75v112.5h-112.5v-112.5z"/>
 <path d="m656.25 168.75c4.9727 0 9.7422-1.9766 13.258-5.4922 3.5156-3.5156 5.4922-8.2852 5.4922-13.258v-112.5c0-4.9727-1.9766-9.7422-5.4922-13.258-3.5156-3.5156-8.2852-5.4922-13.258-5.4922h-112.5c-4.9727 0-9.7422 1.9766-13.258 5.4922-3.5156 3.5156-5.4922 8.2852-5.4922 13.258v112.5c0 4.9727 1.9766 9.7422 5.4922 13.258 3.5156 3.5156 8.2852 5.4922 13.258 5.4922zm-93.75-112.5h75v75h-75z"/>
 <path d="m75 581.25h112.5c4.9727 0 9.7422-1.9766 13.258-5.4922 3.5156-3.5156 5.4922-8.2852 5.4922-13.258v-56.25h93.75c4.9727 0 9.7422-1.9766 13.258-5.4922 3.5156-3.5156 5.4922-8.2852 5.4922-13.258v-150c0-4.9727-1.9766-9.7422-5.4922-13.258-3.5156-3.5156-8.2852-5.4922-13.258-5.4922h-150c-4.9727 0-9.7422 1.9766-13.258 5.4922-3.5156 3.5156-5.4922 8.2852-5.4922 13.258v93.75h-56.25c-4.9727 0-9.7422 1.9766-13.258 5.4922-3.5156 3.5156-5.4922 8.2852-5.4922 13.258v112.5c0 4.9727 1.9766 9.7422 5.4922 13.258 3.5156 3.5156 8.2852 5.4922 13.258 5.4922zm93.75-225h112.5v112.5h-112.5zm-75 112.5h37.5v18.75c0 4.9727 1.9766 9.7422 5.4922 13.258 3.5156 3.5156 8.2852 5.4922 13.258 5.4922h18.75v37.5h-75z"/>
 <path d="m187.5 262.5h93.75c4.9727 0 9.7422-1.9766 13.258-5.4922 3.5156-3.5156 5.4922-8.2852 5.4922-13.258v-93.75c0-4.9727-1.9766-9.7422-5.4922-13.258-3.5156-3.5156-8.2852-5.4922-13.258-5.4922h-93.75c-4.9727 0-9.7422 1.9766-13.258 5.4922-3.5156 3.5156-5.4922 8.2852-5.4922 13.258v93.75c0 4.9727 1.9766 9.7422 5.4922 13.258 3.5156 3.5156 8.2852 5.4922 13.258 5.4922zm18.75-93.75h56.25v56.25h-56.25z"/>
 <path d="m881.25 581.25c-4.9727 0-9.7422 1.9766-13.258 5.4922-3.5156 3.5156-5.4922 8.2852-5.4922 13.258v75c0 4.9727 1.9766 9.7422 5.4922 13.258 3.5156 3.5156 8.2852 5.4922 13.258 5.4922h75c4.9727 0 9.7422-1.9766 13.258-5.4922 3.5156-3.5156 5.4922-8.2852 5.4922-13.258v-75c0-4.9727-1.9766-9.7422-5.4922-13.258-3.5156-3.5156-8.2852-5.4922-13.258-5.4922zm56.25 75h-37.5v-37.5h37.5z"/>
 <path d="m219.24 975h137.01v-37.5h-150c-3.8164 0-7.543 1.1641-10.68 3.3398-3.1406 2.1758-5.5391 5.2539-6.8789 8.8281l-56.25 150c-2.1602 5.7578-1.3555 12.207 2.1484 17.262 3.5039 5.0547 9.2617 8.0703 15.41 8.0703h900c6.1484 0 11.906-3.0156 15.41-8.0703 3.5039-5.0547 4.3086-11.504 2.1484-17.262l-56.25-150c-1.3398-3.5742-3.7383-6.6523-6.8789-8.8281-3.1367-2.1758-6.8633-3.3398-10.68-3.3398h-150v37.5h137.01l42.188 112.5h-845.89z"/>
</svg>
