<?xml version="1.0" encoding="UTF-8"?>
<svg width="1200pt" height="1200pt" version="1.1" viewBox="0 0 1200 1200" xmlns="http://www.w3.org/2000/svg">
    <g fill="currentColor">
        <path d="m526.6 326.68c19.125 0 37.078-7.4531 50.625-20.953 7.3125-7.3125 7.3125-19.172 0-26.531-7.3125-7.3125-19.172-7.3125-26.531 0-6.4688 6.4219-15 9.9844-24.094 9.9844-18.797 0-34.078-15.281-34.078-34.078s15.281-34.078 34.078-34.078c9.0938 0 17.672 3.5625 24.094 9.9844 7.3125 7.3125 19.172 7.3125 26.531 0 7.3125-7.3125 7.3125-19.172 0-26.531-13.5-13.5-31.5-20.953-50.625-20.953-39.469 0-71.578 32.109-71.578 71.578s32.109 71.578 71.578 71.578z"/>
        <path d="m660.71 315.74c3.0469 6.6562 9.7031 10.922 17.062 10.922 7.3125 0 13.969-4.2656 17.062-10.922l48.469-105.66c4.3125-9.4219 0.1875-20.531-9.2344-24.844-9.4219-4.2656-20.531-0.14063-24.844 9.2344l-31.406 68.484-31.406-68.484c-4.3125-9.375-15.422-13.5-24.844-9.2344-9.4219 4.3125-13.547 15.469-9.2344 24.844l48.469 105.66z"/>
        <path d="m1086.1 208.87c-8.2031-12.609-20.812-21.281-35.484-24.375l-44.578-9.4688c-3.2344-27.984-26.766-49.875-55.594-49.875h-179.02l-406.31-86.438c-14.672-3.0938-29.719-0.32812-42.328 7.8281-12.609 8.2031-21.281 20.766-24.375 35.484l-9.1406 43.078h-39.656c-31.031 0-56.25 25.219-56.25 56.25l-0.046876 394.82-87.234 410.53c-3.1406 14.672-0.375 29.719 7.8281 42.328 8.2031 12.609 20.812 21.281 35.484 24.375l43.969 9.3281v43.5c0 31.031 25.219 56.25 56.25 56.25h700.82c31.031 0 56.25-25.219 56.25-56.25v-444.52l87.234-410.53c3.1406-14.672 0.375-29.719-7.8281-42.328zm-751.03-119.02c1.0312-4.875 3.9375-9.0938 8.1094-11.812 4.2188-2.7188 9.2812-3.6562 14.109-2.625l233.81 49.734h-263.53zm615.37 1035.1h-700.87c-10.359 0-18.75-8.3906-18.75-18.75v-108.14c0-10.359-8.3906-18.75-18.75-18.75s-18.75 8.3906-18.75 18.75v26.344l-36.141-7.6875c-4.9219-1.0312-9.0938-3.9375-11.812-8.1094s-3.6562-9.1875-2.5781-14.109l50.578-237.94v157.97c0 10.359 8.3906 18.75 18.75 18.75s18.75-8.3906 18.75-18.75l-0.046875-529.45h70.312c10.359 0 18.75-8.3906 18.75-18.75s-8.3906-18.75-18.75-18.75h-70.312v-166.26c0-10.359 8.3906-18.75 18.75-18.75h700.87c10.359 0 18.75 8.3906 18.75 18.75v166.22l-584.53 0.046874c-10.359 0-18.75 8.3906-18.75 18.75 0 10.359 8.3906 18.75 18.75 18.75h584.53v721.13c0 10.359-8.3906 18.75-18.75 18.75zm106.83-881.63-50.578 237.94v-267.84l36.141 7.6875c4.9219 1.0312 9.0938 3.9375 11.812 8.1094s3.6562 9.1875 2.5781 14.109z"/>
        <path d="m462.52 813.32c72.844 0 138.94-40.219 172.5-104.91 4.7812-9.1875 1.1719-20.531-8.0156-25.266-9.1406-4.7344-20.531-1.2188-25.266 8.0156-4.3594 8.4375-9.6562 16.172-15.328 23.531-14.062-21.797-33.469-39.516-56.484-51.281 12.188-19.172 19.594-42.234 19.594-63.047 0-48-39.047-87-87-87s-87 39.047-87 87c0 20.812 7.4531 43.828 19.594 63.047-23.016 11.812-42.422 29.531-56.484 51.328-20.484-26.484-32.812-59.578-32.812-95.578 0-86.391 70.312-156.71 156.71-156.71s156.71 70.266 156.71 156.71c0 10.359 8.3906 18.75 18.75 18.75 10.359 0 18.75-8.3906 18.75-18.75 0-107.06-87.094-194.21-194.21-194.21-107.06 0-194.21 87.094-194.21 194.21 0 107.06 87.094 194.21 194.21 194.21zm-31.641-124.08c6.4219-1.9219 11.297-7.125 12.844-13.594 1.5469-6.5156-0.46875-13.359-5.2969-17.953-14.719-14.016-25.406-38.156-25.406-57.375 0-27.281 22.219-49.5 49.5-49.5s49.5 22.219 49.5 49.5c0 19.219-10.688 43.312-25.406 57.375-4.8281 4.5938-6.8438 11.438-5.2969 17.953s6.4688 11.672 12.844 13.594c28.031 8.3906 51.281 27.562 65.062 53.109-27.094 21.281-60.844 33.516-96.703 33.516-36.469 0-69.984-12.656-96.656-33.609 13.828-25.5 37.031-44.578 65.016-52.969z"/>
        <path d="m912.94 424.92h-192.79c-10.359 0-18.75 8.3906-18.75 18.75s8.3906 18.75 18.75 18.75h192.79c10.359 0 18.75-8.3906 18.75-18.75s-8.3906-18.75-18.75-18.75z"/>
        <path d="m912.94 504.56h-192.79c-10.359 0-18.75 8.3906-18.75 18.75s8.3906 18.75 18.75 18.75h192.79c10.359 0 18.75-8.3906 18.75-18.75s-8.3906-18.75-18.75-18.75z"/>
        <path d="m720.1 621.71h117.8c10.359 0 18.75-8.3906 18.75-18.75s-8.3906-18.75-18.75-18.75h-117.8c-10.359 0-18.75 8.3906-18.75 18.75s8.3906 18.75 18.75 18.75z"/>
        <path d="m720.1 701.39h117.8c10.359 0 18.75-8.3906 18.75-18.75s-8.3906-18.75-18.75-18.75h-117.8c-10.359 0-18.75 8.3906-18.75 18.75s8.3906 18.75 18.75 18.75z"/>
        <path d="m912.94 890.81h-625.87c-10.359 0-18.75 8.3906-18.75 18.75s8.3906 18.75 18.75 18.75h625.87c10.359 0 18.75-8.3906 18.75-18.75s-8.3906-18.75-18.75-18.75z"/>
        <path d="m912.94 969.24h-625.87c-10.359 0-18.75 8.3906-18.75 18.75s8.3906 18.75 18.75 18.75h625.87c10.359 0 18.75-8.3906 18.75-18.75s-8.3906-18.75-18.75-18.75z"/>
        <path d="m912.94 1047.7h-133.92c-10.359 0-18.75 8.3906-18.75 18.75s8.3906 18.75 18.75 18.75h133.92c10.359 0 18.75-8.3906 18.75-18.75s-8.3906-18.75-18.75-18.75z"/>
        <path d="m710.44 1047.7h-423.37c-10.359 0-18.75 8.3906-18.75 18.75s8.3906 18.75 18.75 18.75h423.37c10.359 0 18.75-8.3906 18.75-18.75s-8.3906-18.75-18.75-18.75z"/>
    </g>
</svg>
