<?xml version="1.0" encoding="UTF-8"?>
<svg width="1200pt" height="1200pt" version="1.1" viewBox="0 0 1200 1200" xmlns="http://www.w3.org/2000/svg">
    <g fill="currentColor">
    <path d="m391.4 333.19h385.45c21.609 0.09375 21.844 33.141 0 33.234h-385.45c-21.609-0.09375-21.844-33.141 0-33.234zm0 180.84h192.74c21.797-0.09375 21.656-33.141 0-33.234h-192.74c-21.797 0.09375-21.703 33.188 0 33.234zm227.72 40.594h-227.72c-21.797 0.09375-21.656 33.141 0 33.234h227.72c21.797-0.09375 21.656-33.141 0-33.234zm-227.72 73.828c-21.75 0.09375-21.703 33.141 0 33.234h153.42c21.75-0.09375 21.703-33.141 0-33.234zm385.45-221.44h-385.45c-21.844 0.09375-21.609 33.188 0 33.234h385.45c21.797-0.09375 21.609-33.188 0-33.234zm-619.87 71.156v-106.73c0.046875-21 17.203-38.297 38.297-38.297h106.73c10.547 0 20.156 4.3125 27.047 11.25 6.9375 6.9375 11.25 16.5 11.25 27.047v106.73c0 21.094-17.203 38.297-38.297 38.297h-106.73c-21.094 0.046875-38.297-17.297-38.297-38.297zm33.234 0c-0.046875 2.8125 2.2969 5.0156 5.0625 5.0625h106.73c2.7656 0 5.0625-2.2969 5.0625-5.0625v-106.73c0-2.7656-2.2969-5.0625-5.0625-5.0625h-106.73c-1.3594 0-2.625 0.5625-3.5625 1.5h-0.09375c-0.89062 0.89062-1.4062 2.1562-1.4062 3.5625zm18.094-316.45h236.11c44.438-1.4062 68.484 57.562 36.234 87.469-9.375 9.3281-22.172 15.141-36.234 15.141h-236.11c-67.547-1.7812-67.688-100.78 0-102.61zm0 69.375h236.11c23.578-0.09375 23.672-36.047 0-36.141h-236.11c-23.531 0.1875-23.672 35.906 0 36.141zm665.76 678.19c-209.76-6.4688-209.72-310.97 0-317.44 209.76 6.4688 209.72 310.97 0 317.44zm88.688-247.45c-120.84-113.67-291.1 56.672-177.42 177.42 120.84 113.72 291.1-56.672 177.42-177.42zm181.97 178.82c-8.2969 30.562-53.953 36.234-72.562 54.844-12.094 23.016-3.375 68.297-29.578 85.219-7.3125 6-16.172 7.9688-25.641 8.2031v188.44c0.375 12.75-14.906 21.094-25.406 14.109l-117.42-67.219-117.94 67.5c-10.641 6.4688-25.172-2.0625-24.844-14.438v-112.27h-589.36c-24.469 0-46.547-10.031-62.906-26.156-16.125-16.125-26.156-38.391-26.156-62.906l-0.09375-880.97c-0.046875-48.984 40.125-89.016 89.016-89.016h518.95c0.375 0 0.70312 0.1875 1.0781 0.1875 1.6406 0.046875 3.2344 0.375 4.7812 0.9375 0.1875 0.09375 0.375 0.09375 0.5625 0.1875 1.9219 0.79688 3.75 1.8281 5.3438 3.5625l213.24 213.24c1.5938 1.5 2.625 3.2344 3.4219 5.0625 0.14062 0.28125 0.1875 0.5625 0.28125 0.84375 0.51562 1.5 0.84375 3 0.9375 4.5469 0.046875 0.46875 0.28125 0.84375 0.28125 1.2656v232.74c23.531 9.5625 41.016 38.953 60.891 49.078 25.875 4.9219 66.75-17.203 90.938 2.7188 26.156 16.969 17.578 62.156 29.578 85.219 4.2188 5.7188 15.328 10.922 26.531 16.125 49.688 19.125 60.844 51.422 32.859 97.266-5.9531 11.531-12 23.203-12 31.547 2.9062 27.422 36.891 60.141 25.219 90.141zm-467.26-677.26c0 15.328 6.2812 29.297 16.406 39.375 10.031 10.219 24.047 16.359 39.375 16.406h100.69l-156.47-156.42zm53.766 825.52c-9.4688-0.23437-18.375-2.2031-25.641-8.2031-26.156-16.922-17.578-62.156-29.625-85.219-4.2188-5.7188-15.328-10.922-26.531-16.078-49.688-19.125-60.844-51.469-32.906-97.312 15.188-25.312 15.094-37.688 0-63.094-27.797-45.609-17.109-78.141 32.859-97.266 11.203-5.2031 22.312-10.359 26.531-16.125 12.094-23.016 3.375-68.297 29.625-85.219 24.188-19.875 65.016 2.1094 90.938-2.7188 19.922-10.031 37.406-39.516 60.891-49.078l0.046875-216.14h-124.18c-48.844-0.046875-89.062-40.031-89.016-89.016v-124.22h-502.36c-15.375 0-29.297 6.2812-39.375 16.359v0.046875c-10.125 10.125-16.406 24.047-16.406 39.375v881.02c0.046875 30.656 25.078 55.828 55.781 55.781h589.36zm252.42-3.5156c-11.625-1.9688-22.828-3.7031-32.062-1.9688-24.328 12.281-44.906 54.141-77.531 52.359-32.578 1.7344-53.25-40.031-77.531-52.359-9.2344-1.7812-20.438-0.046876-32.062 1.9688v163.31c33.562-19.219 67.453-39.656 101.3-57.984 4.9688-2.8125 11.203-3.0469 16.5 0l101.34 58.031zm102.61-234.84c-2.25-25.219 28.641-58.031 27-79.734-2.25-6.7969-15.469-12.938-28.547-18.984-15.094-7.0312-30.141-13.969-39.375-26.625-9.375-12.797-11.438-29.344-13.453-45.891-3.6562-35.859-7.0781-38.438-42.562-31.172-35.438 9.5625-62.625 0.79688-85.781-27.703-25.734-28.266-33.141-28.5-58.969 0-23.203 28.594-50.438 37.219-85.781 27.703-35.297-7.125-38.953-4.875-42.562 31.219-2.0625 16.547-4.125 33.094-13.453 45.891-9.2812 12.609-24.281 19.594-39.375 26.625-13.078 6.0469-26.25 12.188-28.5 18.984-2.3438 6.8906 4.5 19.828 11.203 32.906 7.8281 15.141 15.797 30.422 15.797 46.781 0.046875 16.406-8.0625 31.734-15.797 46.875-17.625 32.344-16.688 37.078 17.297 51.844 15.094 7.0312 30.141 13.969 39.375 26.625 9.375 12.797 11.438 29.344 13.453 45.891 1.7344 14.062 3.4688 28.172 9 32.203 19.547 7.6406 59.203-11.766 81.703-1.9688 24.562 5.9062 45.188 46.312 67.125 50.531 8.4375 0 19.031-11.062 29.484-21.891 23.156-28.594 50.438-37.172 85.781-27.703 14.016 2.5312 27.984 5.0625 33.562 0.98438 13.031-16.266 6.3281-59.812 22.453-78.094 12.562-20.859 56.719-27.844 67.922-45.609 1.5938-21.703-29.203-54.469-27-79.688zm-527.58-48.281h-167.29c-21.797 0.09375-21.703 33.141 0 33.234h167.29c21.797-0.09375 21.703-33.141 0-33.234zm-385.08 107.02h373.55c21.844-0.09375 21.609-33.141 0-33.234h-373.55c-21.844 0.09375-21.609 33.188 0 33.234zm378.14 40.594h-378.14c-21.844 0.09375-21.609 33.141 0 33.234h378.14c21.844-0.09375 21.609-33.141 0-33.234zm-394.78-150.28v-106.73c0-21.094 17.203-38.297 38.297-38.297h106.73c10.5 0 20.109 4.3125 27.047 11.297s11.25 16.547 11.25 27v106.73c0.046875 21-17.344 38.344-38.297 38.297h-106.73c-21.094 0-38.297-17.156-38.297-38.297zm33.234 0c0 2.7656 2.2969 5.0625 5.0625 5.0625h106.73c2.8594 0 5.0156-2.2031 5.0625-5.0625v-106.73c0-2.8594-2.2031-5.0156-5.0625-5.0625h-106.73c-1.3594 0-2.625 0.5625-3.5625 1.5s-1.5 2.2031-1.5 3.5625z"/>
    </g>
</svg>
