<?xml version="1.0" encoding="UTF-8"?>
<svg width="1200pt" height="1200pt" version="1.1" viewBox="0 0 1200 1200" xmlns="http://www.w3.org/2000/svg">
    <g fill="currentColor">
        <path d="m1074.8 789.47c-6.1406 0-11.672-4.0312-13.781-10.078-2.6719-7.5938-5.8125-15.047-9.2344-22.266-2.8594-5.8594-1.7812-12.516 2.625-16.922 8.7188-8.7188 13.547-20.344 13.547-32.672s-4.8281-23.953-13.547-32.672l-23.953-23.953c-17.438-17.438-47.906-17.438-65.391 0-4.4062 4.4062-11.109 5.4375-16.969 2.625-7.2188-3.4688-14.672-6.5625-22.312-9.2344-6-2.1094-10.031-7.6406-10.031-13.781 0-25.5-20.719-46.219-46.219-46.219h-33.891c-25.5 0-46.219 20.719-46.219 46.219 0 6.1406-4.0312 11.672-10.078 13.781-7.5938 2.6719-15.047 5.8125-22.266 9.2344-5.8594 2.8594-12.516 1.7812-16.922-2.625-17.438-17.438-47.953-17.438-65.344 0l-23.953 23.953c-8.7188 8.7188-13.547 20.344-13.547 32.672s4.8281 23.953 13.547 32.672c4.4062 4.4062 5.4375 11.062 2.625 16.969-3.4688 7.2188-6.5625 14.672-9.2344 22.312-2.1094 6-7.6406 10.031-13.781 10.031-25.5 0-46.219 20.719-46.219 46.219v33.891c0 25.5 20.719 46.219 46.219 46.219 6.1406 0 11.672 4.0312 13.781 10.078 2.6719 7.5938 5.8125 15.047 9.2344 22.266 2.8594 5.8594 1.7812 12.516-2.625 16.922-8.7188 8.7188-13.547 20.344-13.547 32.672s4.8281 23.953 13.547 32.672l23.953 23.953c17.438 17.438 47.906 17.438 65.391 0 4.4062-4.4062 11.109-5.4375 16.969-2.625 7.2188 3.4688 14.672 6.5625 22.312 9.2344 6 2.1094 10.031 7.6406 10.031 13.781 0 25.5 20.719 46.219 46.219 46.219h33.891c25.5 0 46.219-20.719 46.219-46.219 0-6.1406 4.0312-11.672 10.078-13.781 7.5938-2.6719 15.047-5.8125 22.266-9.2344 5.8594-2.8125 12.516-1.7812 16.922 2.625 17.438 17.438 47.953 17.438 65.344 0l23.953-23.953c8.7188-8.7188 13.547-20.344 13.547-32.672s-4.8281-23.953-13.547-32.672c-4.4062-4.4062-5.4375-11.062-2.625-16.969 3.4688-7.2188 6.5625-14.672 9.2344-22.312 2.1094-6 7.6406-10.031 13.781-10.031 25.5 0 46.219-20.719 46.219-46.219v-33.891c0-25.5-20.719-46.219-46.219-46.219zm14.625 80.109c0 8.0625-6.5625 14.625-14.625 14.625-19.547 0-37.031 12.516-43.594 31.125-2.2969 6.5156-4.9688 12.938-7.9219 19.125-8.5781 17.812-5.0625 39.141 8.7656 52.969 2.7656 2.7656 4.2656 6.4219 4.2656 10.312s-1.5 7.5938-4.2656 10.359l-24 23.953c-5.4844 5.5312-15.141 5.4844-20.672 0-13.828-13.828-35.109-17.344-52.922-8.7656-6.1875 2.9531-12.609 5.625-19.078 7.9219-18.656 6.5156-31.172 24.047-31.172 43.594 0 8.0625-6.5625 14.625-14.625 14.625h-33.891c-8.0625 0-14.625-6.5625-14.625-14.625 0-19.547-12.516-37.031-31.125-43.594-6.5156-2.2969-12.938-4.9688-19.125-7.9219-6.5156-3.1406-13.453-4.6406-20.344-4.6406-12 0-23.812 4.6406-32.625 13.406-5.4844 5.5312-15.141 5.5312-20.672 0l-23.953-24c-2.7656-2.7656-4.2656-6.4219-4.2656-10.312 0-3.9375 1.5469-7.5938 4.2656-10.359 13.828-13.828 17.344-35.109 8.7656-52.922-2.9531-6.1875-5.625-12.609-7.9219-19.078-6.5156-18.656-24.047-31.172-43.594-31.172-8.0625 0-14.625-6.5625-14.625-14.625v-33.891c0-8.0625 6.5625-14.625 14.625-14.625 19.547 0 37.031-12.516 43.594-31.125 2.2969-6.5156 4.9688-12.938 7.9219-19.125 8.5781-17.812 5.0625-39.141-8.7656-52.969-2.7656-2.7656-4.2656-6.4219-4.2656-10.312s1.5-7.5938 4.2656-10.359l24-23.953c5.4844-5.5781 15.141-5.5312 20.672 0 13.828 13.828 35.109 17.344 52.922 8.7656 6.1875-2.9531 12.609-5.625 19.078-7.9219 18.656-6.5156 31.172-24.047 31.172-43.594 0-8.0625 6.5625-14.625 14.625-14.625h33.891c8.0625 0 14.625 6.5625 14.625 14.625 0 19.547 12.516 37.031 31.125 43.594 6.5156 2.2969 12.938 4.9688 19.125 7.9219 17.859 8.5781 39.141 5.0625 52.969-8.7656 5.4844-5.5312 15.141-5.5312 20.672 0l23.953 24c2.7656 2.7656 4.2656 6.4219 4.2656 10.312 0 3.9375-1.5469 7.5938-4.2656 10.359-13.828 13.828-17.344 35.109-8.7656 52.922 2.9531 6.1875 5.625 12.609 7.9219 19.078 6.5156 18.656 24.047 31.172 43.594 31.172 8.0625 0 14.625 6.5625 14.625 14.625z"/>
        <path d="m852.61 726.32c-69.656 0-126.32 56.672-126.32 126.32 0 69.656 56.672 126.32 126.32 126.32 69.656 0 126.32-56.672 126.32-126.32 0-69.656-56.672-126.32-126.32-126.32zm0 221.06c-52.219 0-94.734-42.516-94.734-94.734s42.516-94.734 94.734-94.734 94.734 42.516 94.734 94.734-42.516 94.734-94.734 94.734z"/>
        <path d="m552.61 852.61h-394.74c-26.109 0-47.391-21.234-47.391-47.391v-378.94c0-26.109 21.234-47.391 47.391-47.391h568.4c26.109 0 47.391 21.234 47.391 47.391v141.61c0 8.7188 7.0781 15.797 15.797 15.797s15.797-7.0781 15.797-15.797v-141.61c0-43.547-35.438-78.938-78.938-78.938l-568.45 0.046875c-43.547 0-78.938 35.438-78.938 78.938v378.94c0 43.547 35.438 78.938 78.938 78.938h268.4v47.391h-15.797c-8.7188 0-15.797 7.0781-15.797 15.797s7.0781 15.797 15.797 15.797h63.141c8.7188 0 15.797-7.0781 15.797-15.797s-7.0781-15.797-15.797-15.797h-15.797v-47.391h94.734c8.7188 0 15.797-7.0781 15.797-15.797s-7.0781-15.797-15.797-15.797z"/>
        <path d="m1121.1 126.32c0-26.109-21.234-47.391-47.391-47.391h-315.79c-26.109 0-47.391 21.234-47.391 47.391v63.141c0 12.188 4.7344 23.156 12.328 31.594-7.5938 8.3906-12.328 19.406-12.328 31.594v63.141c0 8.7188 7.0781 15.797 15.797 15.797s15.797-7.0781 15.797-15.797v-63.141c0-8.7188 7.0781-15.797 15.797-15.797h315.79c8.7188 0 15.797 7.0781 15.797 15.797v63.141c0 8.7188-7.0781 15.797-15.797 15.797h-270.14c-8.7188 0-15.797 7.0781-15.797 15.797s7.0781 15.797 15.797 15.797h270.14c8.7188 0 15.797 7.0781 15.797 15.797v63.141c0 8.7188-7.0781 15.797-15.797 15.797h-236.86c-8.7188 0-15.797 7.0781-15.797 15.797s7.0781 15.797 15.797 15.797h236.86c26.109 0 47.391-21.234 47.391-47.391v-63.141c0-12.188-4.7344-23.156-12.328-31.594 7.5938-8.3906 12.328-19.406 12.328-31.594v-63.141c0-12.188-4.7344-23.156-12.328-31.594 7.5938-8.3906 12.328-19.406 12.328-31.594zm-363.19 78.938c-8.7188 0-15.797-7.0781-15.797-15.797v-63.141c0-8.7188 7.0781-15.797 15.797-15.797h315.79c8.7188 0 15.797 7.0781 15.797 15.797v63.141c0 8.7188-7.0781 15.797-15.797 15.797z"/>
        <path d="m789.47 142.13h-15.797c-8.7188 0-15.797 7.0781-15.797 15.797s7.0781 15.797 15.797 15.797h15.797c8.7188 0 15.797-7.0781 15.797-15.797s-7.0781-15.797-15.797-15.797z"/>
        <path d="m789.47 300c8.7188 0 15.797-7.0781 15.797-15.797s-7.0781-15.797-15.797-15.797h-15.797c-8.7188 0-15.797 7.0781-15.797 15.797s7.0781 15.797 15.797 15.797z"/>
        <path d="m300 426.32c-69.656 0-126.32 56.672-126.32 126.32 0 69.656 56.672 126.32 126.32 126.32s126.32-56.672 126.32-126.32c0-69.656-56.672-126.32-126.32-126.32zm93.328 110.53h-77.531v-77.531c39.609 6.7031 70.828 37.922 77.531 77.531zm-93.328 110.53c-52.219 0-94.734-42.516-94.734-94.734 0-46.828 34.219-85.781 78.938-93.328v93.328c0 8.7188 7.0781 15.797 15.797 15.797h93.328c-7.5469 44.719-46.453 78.938-93.328 78.938z"/>
        <path d="m363.14 773.68v31.594c0 8.7188 7.0781 15.797 15.797 15.797s15.797-7.0781 15.797-15.797v-31.594c0-8.7188-7.0781-15.797-15.797-15.797s-15.797 7.0781-15.797 15.797z"/>
        <path d="m426.32 821.06c8.7188 0 15.797-7.0781 15.797-15.797v-47.391c0-8.7188-7.0781-15.797-15.797-15.797s-15.797 7.0781-15.797 15.797v47.391c0 8.7188 7.0781 15.797 15.797 15.797z"/>
        <path d="m457.87 710.53v94.734c0 8.7188 7.0781 15.797 15.797 15.797s15.797-7.0781 15.797-15.797v-94.734c0-8.7188-7.0781-15.797-15.797-15.797s-15.797 7.0781-15.797 15.797z"/>
        <path d="m505.26 631.6v173.68c0 8.7188 7.0781 15.797 15.797 15.797s15.797-7.0781 15.797-15.797v-173.68c0-8.7188-7.0781-15.797-15.797-15.797s-15.797 7.0781-15.797 15.797z"/>
    </g>
</svg>
