<?xml version="1.0" encoding="UTF-8"?>
<svg width="1200pt" height="1200pt" version="1.1" viewBox="0 0 1200 1200" xmlns="http://www.w3.org/2000/svg">
    <g fill="currentColor">
        <path d="m513.1 1134.8c3.4297 3.3945 8.0039 5.207 12.66 5.207 2.0742 0 4.1758-0.35938 6.2031-1.1055l404.88-148.51c4.1641-1.5234 7.6094-4.5352 9.6953-8.4375l28.523-53.578 21.168 1.0195c0.28906 0.011719 0.57422 0.023437 0.86328 0.023437 6.3477 0 12.266-3.3594 15.504-8.8672l86.039-146.28c0.097657-0.15625 0.13281-0.32422 0.21484-0.48047 0.3125-0.57422 0.5625-1.1641 0.81641-1.7656 0.21484-0.50391 0.43359-1.0078 0.60156-1.5234 0.17969-0.5625 0.27734-1.1289 0.39453-1.7031 0.12109-0.57422 0.25391-1.1406 0.3125-1.7148s0.046875-1.1523 0.058594-1.7266c0.011719-0.57422 0.035156-1.1406-0.011719-1.7031-0.046875-0.58984-0.16797-1.1641-0.27734-1.7539-0.10938-0.5625-0.19141-1.1289-0.34766-1.6797-0.15625-0.52734-0.37109-1.0547-0.57422-1.5703-0.22656-0.60156-0.45703-1.1875-0.75781-1.7539-0.085938-0.15625-0.12109-0.32422-0.20312-0.48047l-22.355-40.32 37.871-61.105c0.10938-0.17969 0.16797-0.38281 0.27734-0.5625 0.33594-0.57422 0.60156-1.1758 0.875-1.7891 0.21484-0.49219 0.43359-0.98438 0.60156-1.4883 0.19141-0.57422 0.32422-1.1523 0.45703-1.7539 0.13281-0.57422 0.25391-1.1406 0.32422-1.7148 0.070313-0.55078 0.085938-1.1055 0.097656-1.668 0.011719-0.64844 0.023438-1.2734-0.023437-1.9062-0.011719-0.22656 0.011719-0.44531-0.011719-0.66016l-42.121-363.6c-0.79297-6.793-5.3633-12.551-11.797-14.867l-567.36-203.9c-0.20312-0.070312-0.42187-0.097656-0.63672-0.15625-0.64844-0.20312-1.2852-0.35938-1.9336-0.48047-0.52734-0.10938-1.043-0.21484-1.5703-0.26563-0.63672-0.070312-1.2617-0.085937-1.8945-0.085937-0.53906 0-1.0781 0-1.6094 0.046875-0.625 0.058594-1.2227 0.16797-1.8359 0.27734-0.51562 0.097656-1.0312 0.20312-1.5352 0.34766-0.61328 0.17969-1.1992 0.40625-1.7891 0.63672-0.46875 0.19141-0.94922 0.37109-1.4023 0.61328-0.57422 0.28906-1.1172 0.625-1.6562 0.98438-0.43359 0.27734-0.86328 0.5625-1.2734 0.875-0.49219 0.38281-0.9375 0.80469-1.3906 1.2344-0.40625 0.38281-0.80469 0.78125-1.1758 1.2109-0.38281 0.44531-0.71875 0.91016-1.0547 1.4023-0.35938 0.51562-0.70703 1.0312-1.0078 1.5859-0.12109 0.20312-0.26563 0.37109-0.37109 0.58984l-84.238 166.2c-1.0078 1.9805-1.6328 4.1289-1.8594 6.3359l-3.5508 35.41-89.27-11.785c-0.37109-0.046875-0.73047-0.011719-1.0938-0.035157-0.27734-0.023437-0.53906-0.011718-0.81641-0.023437-0.94922-0.023437-1.8711 0.011719-2.7852 0.13281-0.17969 0.023437-0.35937 0.058593-0.53906 0.097656-0.97266 0.15625-1.9336 0.38281-2.8555 0.69531-0.15625 0.046875-0.30078 0.12109-0.44531 0.16797-0.92578 0.34766-1.8242 0.74219-2.6758 1.2344-0.15625 0.097656-0.3125 0.19141-0.46875 0.28906-0.82813 0.50391-1.6211 1.0664-2.3516 1.6914-0.14453 0.12109-0.27734 0.25391-0.40625 0.38281-0.74219 0.67188-1.4297 1.4023-2.0508 2.1953-0.097656 0.12109-0.16797 0.23828-0.26562 0.35938-0.63672 0.86328-1.1992 1.7773-1.6797 2.7461-0.023437 0.046876-0.058593 0.085938-0.085937 0.13281l-75.359 156.48c-2.3164 4.7891-2.375 10.379-0.17969 15.238l28.332 62.508-55.402 11.051c-5.6055 1.1172-10.355 4.8359-12.781 10.02l-76.117 162.55c-3.2266 6.8867-1.7656 15.07 3.6367 20.426zm-126.95-820.36-2.9648 29.281v0.035156l-7.2969 71.988-58.633-110.4zm692.5 310.99-168.53-59.93-2.9766-109.32 158.64 58.223zm-728.28 105.7 67.441 133.48-43.5 82.223-123.57-122.28 62.629-130.77zm45.59-275.32 66.551-119.27-4.7266 81.492-70.344 121.93zm86.148-42.527 6.4336-110.72 185.04 67.906v110.9zm7.8828-135.75 4.5234-77.988 179.06 65.316v80.039zm-14.988 158.69 193.39 68.773-78.961 146.88c-0.37109 0.68359-0.43359 1.4297-0.64844 2.1484l-201.16-66.348zm275.33 476.23-6.6367-5.4961 20.891 0.69531zm-41.148-6.6484c0.50391 2.6523 1.7383 5.1953 3.9844 7.0547l10.391 8.6055-120.77 40.633-69.59-62.195zm-247.88-32.328 74.258-136.81 174.42 15.434-65.617 127.52zm74.82-160.85-34.969-62.23 245.17 80.867zm-68.75-73.379 47.688 84.875-73.188 134.84-68.137-134.83 51.887-98.652zm-36.238 251.51c0.20312 0.34766 0.44531 0.66016 0.67188 0.98438 0.17969 0.26562 0.32422 0.52734 0.52734 0.76953 0.91016 1.0781 1.9805 1.9688 3.1914 2.6641 0.097656 0.058593 0.14453 0.14453 0.23828 0.20312 0.38281 0.20313 0.79297 0.30078 1.1875 0.46875 0.42188 0.17969 0.82812 0.37109 1.2852 0.50391 0.67188 0.19141 1.3555 0.27734 2.0391 0.34766 0.27734 0.023437 0.52734 0.13281 0.81641 0.13281l57.266 1.9219c0.64844 1.8594 1.5977 3.6133 3.1562 5.0156l83.629 74.746-59.773 117.78-133.22-131.85zm177.35 94.762 114.79-38.629-54.371 103.43-114.66 42.059zm147.73-49.715 61.859-20.809c2.832-0.96094 4.957-2.9414 6.3711-5.3281l12.719 0.43359c0.023437 0 0.058594 0.011719 0.085937 0.011719h0.046875l23.039 0.76953-46.559 86.305-111.29 40.809zm-85.332-55.297 64.895-126.13 110.22 9.7578 43.906 14.484-59.566 107.24zm-59.375-218.99 79.766-148.38 190.05 67.586-75.66 144.84zm274.38-104.65-188.3-66.961v-110.64l185.32 68.004zm-188.3-203.15v-80.09l182.4 66.539 2.207 81.301zm0-105.65v-76.211l179.58 64.523 2.125 77.977zm-24-8.7461-177.61-64.789 4.2734-73.586 173.34 62.293zm-202.23-54.742-51.023 90.996 2.6289-26.242 50.41-99.457zm-64.535 164.16 61.355-109.43-2.4609 42.266-63.66 114.07zm-35.258 109.96-13.621 134.54c-0.14453 1.4531 0 2.8672 0.34766 4.2109 0.070313 0.27734 0.23828 0.50391 0.33594 0.76953 0.37109 1.1055 0.85156 2.1602 1.5117 3.1094 0.27734 0.39453 0.64844 0.70703 0.97266 1.0664 0.67188 0.73047 1.3789 1.4023 2.2188 1.957 0.20312 0.14453 0.32422 0.35938 0.55078 0.48047 0.51562 0.30078 1.0664 0.44531 1.6094 0.66016 0.22656 0.085937 0.39453 0.25391 0.625 0.33594l36.406 12.012-42.059 79.98-59.773-118.3 65.113-131.68zm-138.85 347.98-110.1-108.95 62.496-133.48 110.35 111.42zm615.06 178.04 39.348-72.938 55.008 1.8477-24.133 45.336zm9.5156-97.953 55.824-100.5 84.707 27.938c1.2461 0.40625 2.5078 0.61328 3.7578 0.61328 4.0664 0 7.9688-2.0742 10.199-5.6875l21.527-34.727 22.754 1.2461-67.934 115.5zm194.18-141.65 3.5742 6.457-7.332-0.40625zm-11.102-39.039c-0.12109 0.20312-0.19141 0.42188-0.30078 0.61328-0.32422 0.57422-0.60156 1.1641-0.86328 1.7656-0.21484 0.50391-0.43359 1.0078-0.60156 1.5352-0.17969 0.5625-0.3125 1.1289-0.44531 1.7031-0.12109 0.57422-0.25391 1.1406-0.3125 1.7148-0.070313 0.5625-0.085937 1.1406-0.097656 1.7148-0.011719 0.58984-0.023438 1.1523 0.011719 1.7383 0.035156 0.57422 0.13281 1.1406 0.22656 1.7031 0.097656 0.58984 0.20312 1.1641 0.35938 1.7266 0.023437 0.10938 0.035156 0.21484 0.070313 0.32422l-42.047 67.848-167.59-55.285 75.395-144.34 171.14 60.863zm22.344-218.38-156.25-57.336-2.2188-81.359 148.68 54.238zm-159.17-164.5-2.125-78.109 138.97 49.945 9.4453 81.527zm-607.2-6.1172 55.586 104.66-64.789 131-14.52-28.738c0-0.21484 0.011719-0.42188 0.011719-0.63672 0-0.66016-0.10938-1.3203-0.19141-1.9922-0.058593-0.45703-0.035156-0.89844-0.13281-1.3555-0.011719-0.070312-0.046875-0.14453-0.058594-0.21484-0.12109-0.5625-0.33594-1.1289-0.51562-1.6914-0.19141-0.61328-0.35938-1.2461-0.61328-1.8242-0.023438-0.058594-0.035157-0.12109-0.058594-0.17969l-34.211-75.492zm18.852 344.41-108.89-109.93 48.445-9.6719z"/>
    </g>
</svg>
