<?xml version="1.0" encoding="UTF-8"?>
<svg width="1200pt" height="1200pt" version="1.1" viewBox="0 0 1200 1200" xmlns="http://www.w3.org/2000/svg">
 <path d="m530.39 560.62h306.56v-297.66h-297.89v12.891c0 8.2031-6.3281 14.531-15.234 14.062h-22.734c-3.5156 13.125-8.9062 26.016-15.703 37.734l16.875 16.875c5.3906 5.625 5.3906 14.531 0 19.922l-38.203 38.203c-5.3906 5.3906-14.297 5.3906-19.922 0l-16.875-16.875c-11.719 6.7969-24.609 12.188-37.734 15.703v23.906c0 7.7344-6.3281 14.062-14.062 14.062h-12.891v121.64h167.81zm14.062 28.125v157.5c0 7.7344-6.3281 14.062-14.062 14.062h-135.47v180.47c0 7.7344-6.3281 14.062-14.062 14.062h-273.52c-7.7344 0-14.062-6.3281-14.062-14.062v-271.88c0-7.7344 6.3281-14.062 14.062-14.062h273.75c7.7344 0 14.062 6.3281 14.062 14.062v63.281h121.41v-143.44h-167.58c-7.7344 0-14.062-6.3281-14.062-14.062v-135.7h-12.891c-7.7344 0-14.062-6.3281-14.062-14.062v-23.906l-19.219-6.5625c-6.3281-2.5781-12.422-5.625-18.281-9.1406l-16.875 16.875c-5.625 5.3906-14.531 5.3906-19.922 0l-37.969-38.203c-5.3906-5.3906-5.3906-14.297 0-19.922l16.875-16.875c-6.7969-11.719-12.188-24.609-15.703-37.734h-24.141c-7.7344 0-14.062-6.3281-14.062-14.062v-53.906c0-7.7344 6.3281-14.062 14.062-14.062h23.906c3.5156-13.125 8.9062-26.016 15.703-37.734l-16.875-16.875c-5.3906-5.625-5.3906-14.531 0-19.922l37.969-37.969c5.625-5.3906 14.531-5.3906 19.922 0l16.875 16.875c11.719-6.7969 24.609-12.188 37.734-15.703v-23.438c0-7.7344 6.3281-14.062 14.062-14.062h53.906c7.7344 0 14.062 6.3281 14.062 14.062v23.906c13.125 3.5156 25.781 8.9062 37.734 15.703l16.875-16.875c5.625-5.3906 14.531-5.3906 19.922 0l38.203 37.969c5.3906 5.625 5.3906 14.297 0 19.688h348.52c7.7344 0 14.062 6.3281 14.062 14.062v407.34c0 7.7344-6.3281 14.062-14.062 14.062h-167.58v143.44h121.41v-63.281c0-7.7344 6.3281-14.062 14.062-14.062h273.52c7.7344 0 14.062 6.3281 14.062 14.062v271.88c0 7.7344-6.3281 14.062-14.062 14.062h-273.75c-7.7344 0-14.062-6.3281-14.062-14.062v-180.47h-135.47c-7.7344 0-14.062-6.3281-14.062-14.062v-157.5h-41.25v252.89h122.81c7.7344 0 14.062 6.3281 14.062 14.062v271.88c0 7.7344-6.3281 14.062-14.062 14.062h-273.75c-7.7344 0-14.062-6.3281-14.062-14.062v-271.88c0-7.7344 6.3281-14.062 14.062-14.062h122.81v-252.66zm-22.031 350.86c-7.7344 0-14.062-6.3281-14.062-14.062s6.3281-14.062 14.062-14.062h155.16c7.7344 0 14.062 6.3281 14.062 14.062s-6.3281 14.062-14.062 14.062zm0 131.72c-7.7344 0-14.062-6.3281-14.062-14.062s6.3281-14.062 14.062-14.062h77.578c7.7344 0 14.062 6.3281 14.062 14.062s-6.3281 14.062-14.062 14.062zm0-65.859c-7.7344 0-14.062-6.3281-14.062-14.062s6.3281-14.062 14.062-14.062h155.16c7.7344 0 14.062 6.3281 14.062 14.062s-6.3281 14.062-14.062 14.062zm200.39-135.94h-245.39v243.75h245.39zm155.39-116.48c-7.7344 0-14.062-6.3281-14.062-14.062s6.3281-14.062 14.062-14.062h155.39c7.7344 0 14.062 6.3281 14.062 14.062s-6.3281 14.062-14.062 14.062zm0 131.48c-7.7344 0-14.062-6.3281-14.062-14.062s6.3281-14.062 14.062-14.062h77.578c7.7344 0 14.062 6.3281 14.062 14.062s-6.3281 14.062-14.062 14.062zm0-65.859c-7.7344 0-14.062-6.3281-14.062-14.062s6.3281-14.062 14.062-14.062h155.39c7.7344 0 14.062 6.3281 14.062 14.062s-6.3281 14.062-14.062 14.062zm200.39-135.94h-245.62v243.75h245.62zm-911.95 70.312c-7.7344 0-14.062-6.3281-14.062-14.062s6.3281-14.062 14.062-14.062h155.39c7.7344 0 14.062 6.3281 14.062 14.062s-6.3281 14.062-14.062 14.062zm0 131.48c-7.7344 0-14.062-6.3281-14.062-14.062s6.3281-14.062 14.062-14.062h77.578c7.7344 0 14.062 6.3281 14.062 14.062s-6.3281 14.062-14.062 14.062zm0-65.859c-7.7344 0-14.062-6.3281-14.062-14.062s6.3281-14.062 14.062-14.062h155.39c7.7344 0 14.062 6.3281 14.062 14.062s-6.3281 14.062-14.062 14.062zm200.39-135.94h-245.62v243.75h245.62zm-18.047-524.77c50.156 0 90.703 40.547 90.703 90.703s-40.547 90.703-90.703 90.703-90.703-40.547-90.703-90.703c-0.23438-49.922 40.547-90.703 90.703-90.703zm44.062 46.641c-39.375-39.375-106.88-11.25-106.88 44.297s67.5 83.672 106.88 44.297c24.609-24.609 24.609-64.219 0-88.594zm98.203-23.438c3.9844 8.4375 7.2656 17.344 9.8438 26.484h23.906c7.7344 0 14.062 6.3281 14.062 14.062v12.891h298.12v-53.438zm-129.61-94.453h-25.781v20.156c0.46875 7.0312-4.4531 13.359-11.484 14.531-15.703 3.0469-34.922 10.312-47.812 19.688-5.625 4.2188-13.594 3.9844-18.516-1.1719l-14.766-14.766-18.281 18.281 14.766 14.766c4.6875 4.6875 5.625 12.188 1.6406 17.812-8.9062 13.125-17.578 32.109-19.922 47.578-0.9375 7.0312-6.7969 12.422-14.062 12.422h-21.094v25.781h21.094c6.5625 0 12.422 4.6875 13.828 11.484 3.0469 15.703 10.312 34.922 19.688 47.812 4.2188 5.625 3.9844 13.594-1.1719 18.516l-14.766 14.766 18.281 18.281 14.766-14.766c4.6875-4.6875 12.188-5.625 17.812-1.6406 7.2656 4.9219 15 9.1406 23.203 12.656 7.7344 3.2812 15.938 5.625 24.375 7.2656 7.0312 0.70312 12.422 6.7969 12.422 14.062v21.094h25.781v-21.094c0-6.5625 4.6875-12.422 11.484-13.828 15.703-2.8125 34.922-10.312 47.812-19.688 5.625-4.2188 13.594-3.75 18.516 1.1719l14.766 14.766 18.281-18.281-14.766-14.766c-4.6875-4.6875-5.625-12.188-1.6406-17.812 10.078-14.531 16.875-30.938 20.156-48.516 1.1719-6.5625 6.7969-11.484 13.828-11.484h21.094v-25.781h-21.094c-6.5625 0-12.656-4.6875-13.828-11.484-2.8125-15.703-10.312-34.922-19.688-47.812-4.6875-6.5625-3.75-13.828 2.1094-19.453l13.828-13.828-18.281-18.281-14.766 14.766c-4.6875 4.6875-12.188 5.625-17.812 1.6406-12.891-8.9062-31.875-17.578-47.578-19.922-7.0312-0.9375-12.422-6.7969-12.422-14.062zm214.92 389.3c6.0938 4.6875 7.2656 13.594 2.5781 19.688s-13.594 7.2656-19.688 2.5781l-60-45.938c-7.5-5.625-7.2656-16.875 0.23438-22.5l59.766-45.938c6.0938-4.6875 15-3.5156 19.688 2.5781s3.5156 15-2.5781 19.688l-45.469 34.922zm78.281-94.453c3.75-6.7969 12.422-8.9062 19.219-5.1562s8.9062 12.422 5.1562 18.984l-60.703 105c-3.75 6.7969-12.422 9.1406-18.984 5.1562-6.7969-3.75-9.1406-12.422-5.1562-19.219zm59.297 116.72c-6.0938 4.6875-15 3.5156-19.688-2.5781s-3.5156-15 2.5781-19.688l45.469-34.922-45.469-34.922c-6.0938-4.6875-7.2656-13.594-2.5781-19.688s13.594-7.2656 19.688-2.5781l59.766 45.938c7.2656 5.625 7.7344 16.641 0.23438 22.5z"/>
</svg>
