<?xml version="1.0" encoding="UTF-8"?>
<svg width="1200pt" height="1200pt" version="1.1" viewBox="0 0 1200 1200" xmlns="http://www.w3.org/2000/svg">
 <path d="m325.2 1119.4c12.984 13.258 30.398 20.555 49.059 20.555 18.086 0 35.137-6.9375 47.988-19.523l88.824-86.941c13.066-12.781 20.363-29.941 20.555-48.301 0.10938-10.117-2.1367-19.824-6.1445-28.777l1.8594-1.3789c17.016-12.59 37.164-19.246 58.262-19.246h136.81c35.16 0 69.469-12.121 96.625-34.129l76.094-61.586c3.0117-2.0273 5.8906-4.3438 8.6406-6.9844l0.17969-0.14453c0.097656-0.085937 0.16797-0.17969 0.27734-0.26562 0.50391-0.49219 1.043-0.88672 1.5352-1.4023l107.48-114.57c8.1016-8.6875 12.562-20.004 12.562-31.895 0-12.695-5.293-25.043-14.688-34.02-33.035-30.898-85.129-29.242-116.18 3.7422l-51.086 54.516-44.352 26.785c-10.871-10.738-25.801-17.41-42.266-17.41l-117.35 0.035156-23.629-16.668c-15.77-11.195-34.344-17.113-53.711-17.113h-80.988c-24.098 0-46.934 9.1445-64.332 25.754l-68.16 65.184c-9.2891-4.5586-19.547-7.0312-30.266-7.0312-18.086 0-35.137 6.9375-47.988 19.523l-88.812 86.941c-13.066 12.781-20.363 29.941-20.566 48.301s6.7305 35.676 19.512 48.742zm116.92-382.99c10.656-10.176 24.672-15.77 39.457-15.77h80.988c11.688 0 23.352 3.7188 32.914 10.5l28.344 20.004c0.046876 0.035156 0.097657 0.046875 0.13281 0.070312 0.69531 0.48047 1.4531 0.86328 2.207 1.2461 0.3125 0.15625 0.58984 0.35938 0.91016 0.49219 0.60156 0.25391 1.2344 0.40625 1.8594 0.60156 0.50391 0.15625 1.0078 0.35938 1.5234 0.46875 0.43359 0.097656 0.88672 0.097656 1.332 0.15625 0.73047 0.097656 1.4648 0.21484 2.207 0.22656 0.058593 0 0.12109 0.023437 0.19141 0.023437h0.011718l123.05-0.035156c13.332 0 24.191 10.848 24.191 24.191 0.007812 13.348-10.84 24.172-24.188 24.172h-141.32c-9.9375 0-18 8.0508-18 18s8.0625 18 18 18h141.32c33.191 0 60.191-27 60.191-60.191 0-3.7305-0.44531-7.3438-1.1055-10.883l48.254-29.137c1.3438-0.81641 2.4961-1.8125 3.5391-2.8906 0.085938-0.085938 0.20312-0.12109 0.28906-0.20312l52.754-56.293c17.438-18.539 46.754-19.488 65.184-2.2422 2.2188 2.1133 3.4336 4.9062 3.4336 7.8711 0 2.8203-0.97266 5.2812-2.8438 7.2969l-106.6 113.64-8.5195 6.8984c-0.33594 0.27734-0.68359 0.51562-0.99609 0.80469l-74.449 60.254c-20.762 16.836-47.039 26.102-73.969 26.102l-136.81-0.007813c-28.871 0-56.426 9.0977-79.754 26.352l-2.207 1.668-126.5-129.24zm-234.94 164.3 88.812-86.941c6.0977-5.9648 14.207-9.2539 22.812-9.2539 8.8906 0 17.184 3.4688 23.316 9.7422l144.25 147.36c6.0586 6.1914 9.3477 14.41 9.2539 23.172-0.097656 8.7617-3.5508 16.906-9.7422 22.969l-88.824 86.941c-12.383 12.109-34.055 11.855-46.141-0.50391l-144.23-147.36c-12.586-12.852-12.371-33.551 0.49219-46.125z"/>
 <path d="m475.78 990.61c0 16.148-13.094 29.242-29.246 29.242-16.148 0-29.242-13.094-29.242-29.242 0-16.152 13.094-29.246 29.242-29.246 16.152 0 29.246 13.094 29.246 29.246z"/>
 <path d="m636.32 509.02c7.0547 5.0039 11.113 12.457 11.113 20.699 0.011719 12.348 5.7109 23.82 14.977 31.402v35.508c0 32.473 22.043 59.844 51.938 68.09 2.8438 7.1055 10.32 12.203 19.188 12.203 8.8672 0 16.344-5.1016 19.188-12.203 29.891-8.2422 51.938-35.605 51.938-68.09v-35.531c9.2539-7.5977 14.941-19.066 14.941-31.402 0-8.1133 3.6836-15.492 9.8516-19.766 45.516-31.547 72.695-83.387 72.695-138.66 0-92.977-75.672-168.62-168.68-168.62-6.3242 0-12.758 0.34766-19.117 1.0547-78.875 8.7734-141.42 72.539-148.71 151.62-5.5 60.172 21.582 119.07 70.688 153.7zm96.637-6.6016h4.2461c6.5039 0 11.785 5.293 11.785 11.785v17.855h-27.828v-17.855c0.011719-6.4922 5.293-11.785 11.797-11.785zm1.0312 128.91h-0.88672c-19.129 0-34.691-15.562-34.691-34.691v-28.57h70.262v28.57c0.007813 19.129-15.555 34.691-34.684 34.691zm-132.47-272.69c5.7227-62.148 54.852-112.25 116.81-119.15 5.0391-0.55078 10.141-0.82812 15.156-0.82812 73.164 0 132.68 59.496 132.68 132.62 0 43.465-21.383 84.238-57.18 109.05-15.887 10.98-25.367 29.438-25.367 49.367 0 0.97266-0.40625 1.7031-0.85156 2.3633h-9.7695v-17.855c0-16.402-11.16-30.133-26.258-34.332v-59.555l34.922-34.906c4.6914-4.6797 4.6914-12.277 0-16.969-4.6914-4.6914-12.277-4.6914-16.969 0l-29.953 29.941-29.941-29.941c-4.6914-4.6914-12.277-4.6914-16.969 0-4.6914 4.6914-4.6914 12.289 0 16.969l34.906 34.906v59.762c-14.734 4.4297-25.586 17.965-25.586 34.129v17.855h-12.863c-0.45703-0.70703-0.875-1.5-0.875-2.6055 0-19.523-9.8281-38.148-26.328-49.836-39.223-27.684-59.992-72.914-55.566-121z"/>
 <path d="m446.53 383.02h59.242c9.9375 0 18-8.0508 18-18s-8.0625-18-18-18h-59.242c-9.9375 0-18 8.0508-18 18s8.0664 18 18 18z"/>
 <path d="m1020.6 347.02h-59.242c-9.9375 0-18 8.0508-18 18s8.0625 18 18 18h59.242c9.9375 0 18-8.0508 18-18s-8.0625-18-18-18z"/>
 <path d="m559.75 513.35-41.891 41.891c-7.0312 7.0195-7.0312 18.434 0 25.453 3.5156 3.5156 8.125 5.2695 12.73 5.2695 4.6094 0 9.2148-1.7539 12.73-5.2695l41.891-41.891c7.0312-7.0195 7.0312-18.434 0-25.453-7.0312-7.0312-18.43-7.0312-25.461 0z"/>
 <path d="m894.61 221.96c4.6094 0 9.2148-1.7539 12.73-5.2695l41.891-41.891c7.0312-7.0195 7.0312-18.434 0-25.453-7.0312-7.0312-18.422-7.0312-25.453 0l-41.891 41.891c-7.0312 7.0195-7.0312 18.434 0 25.453 3.5039 3.5039 8.1133 5.2695 12.723 5.2695z"/>
 <path d="m733.55 155.26c9.9375 0 18-8.0508 18-18v-59.258c0-9.9492-8.0625-18-18-18s-18 8.0508-18 18v59.258c0 9.9336 8.0664 18 18 18z"/>
 <path d="m881.88 513.35c-7.0312 7.0195-7.0312 18.434 0 25.453l41.891 41.891c3.5156 3.5156 8.125 5.2695 12.73 5.2695 4.6094 0 9.2148-1.7539 12.73-5.2695 7.0312-7.0195 7.0312-18.434 0-25.453l-41.891-41.891c-7.0391-7.0312-18.43-7.0312-25.461 0z"/>
 <path d="m559.75 216.68c3.5156 3.5156 8.125 5.2695 12.73 5.2695 4.6094 0 9.2148-1.7539 12.73-5.2695 7.0312-7.0195 7.0312-18.434 0-25.453l-41.891-41.891c-7.0312-7.0312-18.422-7.0312-25.453 0-7.0312 7.0195-7.0312 18.434 0 25.453z"/>
</svg>
