<?xml version="1.0" encoding="UTF-8"?>
<svg width="1200pt" height="1200pt" version="1.1" viewBox="0 0 1200 1200" xmlns="http://www.w3.org/2000/svg">
 <g fill="currentColor">
  <path d="m37.5 1143.8v37.5h225v-37.5c0-50.812-38.438-92.625-87.75-98.062h-0.65625c29.531-10.086 50.906-37.742 50.906-70.688 0-41.418-33.582-75-75-75s-75 33.582-75 75c0 32.945 21.375 60.602 50.906 70.688h-0.65625c-49.312 5.4375-87.75 47.25-87.75 98.062z"/>
  <path d="m337.5 1143.8v37.5h225v-37.5c0-50.812-38.438-92.625-87.75-98.062h-0.65625c29.531-10.086 50.906-37.742 50.906-70.688 0-41.418-33.582-75-75-75s-75 33.582-75 75c0 32.945 21.375 60.602 50.906 70.688h-0.65625c-49.312 5.4375-87.75 47.25-87.75 98.062z"/>
  <path d="m637.5 1143.8v37.5h225v-37.5c0-50.812-38.438-92.625-87.75-98.062h-0.65625c29.531-10.086 50.906-37.742 50.906-70.688 0-41.418-33.582-75-75-75s-75 33.582-75 75c0 32.945 21.375 60.602 50.906 70.688h-0.65625c-49.312 5.4375-87.75 47.25-87.75 98.062z"/>
  <path d="m1074.8 1045.7h-0.65625c29.531-10.086 50.906-37.742 50.906-70.688 0-41.418-33.582-75-75-75s-75 33.582-75 75c0 32.945 21.375 60.602 50.906 70.688h-0.65625c-49.312 5.4375-87.75 47.25-87.75 98.062v37.5h225v-37.5c0-50.812-38.438-92.625-87.75-98.062z"/>
  <path d="m1162.5 18.75h-1125c-10.352 0-18.75 8.3984-18.75 18.75v675c0 10.352 8.3984 18.75 18.75 18.75h75v150h243.75v-150h806.25c10.352 0 18.75-8.3984 18.75-18.75v-675c0-10.352-8.3984-18.75-18.75-18.75zm-918.75 768.75-37.5-112.5 30.148-75.375c2.4375 0.16797 4.875 0.375 7.3516 0.375s4.9141-0.20703 7.3516-0.375l30.148 75.375zm0-225c-41.363 0-75-33.637-75-75 0-6.543 1.1055-12.77 2.6797-18.824 21.453-11.852 46.051-18.676 72.32-18.676s50.867 6.8242 72.32 18.676c1.5742 6.0547 2.6797 12.281 2.6797 18.824 0 41.363-33.637 75-75 75zm900 131.25h-787.5v-17.98c0-12.242 5.9609-23.699 15.992-30.711l156.49-109.54c6.1328-4.293 8.832-11.586 7.6484-18.508l157.37-114.45-22.051-30.32-154.76 112.54-0.28125-0.42969c-5.7383-8.625-17.383-10.949-26.008-5.1953l-148.43 98.945c-3.0742 2.0625-6.6914 3.1484-10.402 3.1484h-26.008c30.375-20.176 50.438-54.637 50.438-93.75 0-62.043-50.457-112.5-112.5-112.5s-112.5 50.457-112.5 112.5c0 42.844 24.074 80.137 59.398 99.133-45.316 14.531-78.148 56.98-78.148 107.12h-56.25v-637.5h1087.5z"/>
  <path d="m954.56 262.5 57.938-32.023 57.938 32.023-11.062-67.836 46.875-48.039-64.781-9.8984-28.969-61.727-28.969 61.727-64.781 9.8984 46.875 48.039z"/>
  <path d="m843.75 337.5c0 31.066-25.184 56.25-56.25 56.25s-56.25-25.184-56.25-56.25 25.184-56.25 56.25-56.25 56.25 25.184 56.25 56.25"/>
  <path d="m112.5 93.75h131.25v37.5h-131.25z"/>
  <path d="m281.25 93.75h225v37.5h-225z"/>
  <path d="m112.5 168.75h37.5v37.5h-37.5z"/>
  <path d="m112.5 243.75h225v37.5h-225z"/>
  <path d="m187.5 168.75h318.75v37.5h-318.75z"/>
  <path d="m375 243.75h131.25v37.5h-131.25z"/>
  <path d="m993.75 431.25h37.5v37.5h-37.5z"/>
  <path d="m993.75 506.25h37.5v37.5h-37.5z"/>
  <path d="m993.75 281.25h37.5v37.5h-37.5z"/>
  <path d="m993.75 356.25h37.5v37.5h-37.5z"/>
  <path d="m918.75 506.25h37.5v37.5h-37.5z"/>
  <path d="m843.75 506.25h37.5v37.5h-37.5z"/>
  <path d="m768.75 431.25h37.5v37.5h-37.5z"/>
  <path d="m768.75 506.25h37.5v37.5h-37.5z"/>
 </g>
</svg>
