<?xml version="1.0" encoding="UTF-8"?>
<svg width="1200pt" height="1200pt" version="1.1" viewBox="0 0 1200 1200" xmlns="http://www.w3.org/2000/svg">
 <g fill="currentColor">
  <path d="m468.75 993.75v168.75h262.5v-168.75c0-50.137-32.832-92.586-78.148-107.12 35.324-18.996 59.398-56.289 59.398-99.133 0-62.043-50.457-112.5-112.5-112.5s-112.5 50.457-112.5 112.5c0 42.844 24.074 80.137 59.398 99.133-45.316 14.531-78.148 56.98-78.148 107.12zm131.25 93.75-37.5-112.5 30.148-75.375c2.4375 0.16797 4.875 0.375 7.3516 0.375s4.9141-0.20703 7.3516-0.375l30.148 75.375zm-75-300c0-6.543 1.1055-12.77 2.6797-18.824 21.453-11.852 46.051-18.676 72.32-18.676s50.867 6.8242 72.32 18.676c1.5742 6.0547 2.6797 12.281 2.6797 18.824 0 41.363-33.637 75-75 75s-75-33.637-75-75z"/>
  <path d="m37.5 881.25h444.77c4.8555-4.2734 9.918-8.2891 15.301-11.926-17.984-22.461-28.82-50.887-28.82-81.824 0-72.355 58.895-131.25 131.25-131.25s131.25 58.895 131.25 131.25c0 30.938-10.836 59.363-28.82 81.824 5.3828 3.6172 10.445 7.6484 15.301 11.926h444.77v-843.75h-1125zm1031.2-300c0 10.367-8.3828 18.75-18.75 18.75h-806.25c-10.367 0-18.75-8.3828-18.75-18.75v-225h37.5v206.25h56.25v-262.5h37.5v262.5h150v-262.5h37.5v262.5h243.75v-187.5h37.5v187.5h206.25v-281.25h37.5zm-75-243.75v37.5h-37.5v-37.5zm-37.5-37.5v-37.5h37.5v37.5zm37.5 112.5v37.5h-37.5v-37.5zm-41.926-288.13 23.176-49.367 23.176 49.367 51.824 7.9336-37.5 38.438 8.8516 54.262-46.352-25.633-46.352 25.633 8.8516-54.262-37.5-38.438zm-820.57 25.633c0-10.367 8.3828-18.75 18.75-18.75h562.5c10.367 0 18.75 8.3828 18.75 18.75v131.25h168.75c10.367 0 18.75 8.3828 18.75 18.75v225h-37.5v-206.25h-168.75c-10.367 0-18.75-8.3828-18.75-18.75v-56.25h-56.25v225h56.25v-93.75h37.5v112.5c0 10.367-8.3828 18.75-18.75 18.75h-93.75c-10.367 0-18.75-8.3828-18.75-18.75v-243.75h-150v262.5h-37.5v-262.5h-150v56.25h-37.5v-75c0-10.367 8.3828-18.75 18.75-18.75h450v-37.5h-525v431.25h-37.5zm42.992 492.99c7.332-7.332 19.18-7.332 26.512 0l56.25 56.25-26.512 26.512-24.242-24.242v123.49h-37.5v-123.49l-24.242 24.242-26.512-26.512z"/>
 </g>
</svg>
