<?xml version="1.0" encoding="UTF-8"?>
<svg width="1200pt" height="1200pt" version="1.1" viewBox="0 0 1200 1200" xmlns="http://www.w3.org/2000/svg">
 <g fill="currentColor">
 <path d="m941.02 929.77h-59.766c-3.9844 0-7.5-1.6406-10.078-4.2188l-70.312-70.312c-5.625-5.625-5.625-14.531 0-19.922 5.3906-5.3906 14.297-5.3906 19.922 0l66.562 66.562h53.906v-22.5c0-23.906 19.453-43.359 43.125-43.359h72.891c23.906 0 43.359 19.453 43.359 43.125v72.891c0 23.672-19.453 43.359-43.359 43.359h-72.891c-23.906 0-43.359-19.453-43.359-43.125zm-688.59-28.125h62.109l66.562-66.562c5.3906-5.3906 14.297-5.3906 19.922 0 5.625 5.625 5.625 14.531 0 19.922l-70.547 70.312c-2.5781 2.5781-6.0938 4.2188-10.078 4.2188h-67.969c0 19.688 2.3438 35.391-12.188 50.156-7.5 7.5-18.047 12.188-29.531 12.188h-69.375c-22.969 0-41.719-18.75-41.719-41.719v-69.375c0-22.969 18.75-41.719 41.719-41.719h69.375c22.969 0 41.719 18.75 41.719 41.719zm-28.125 48.75v-69.375c0-7.5-6.0938-13.594-13.594-13.594h-69.375c-7.5 0-13.594 6.0938-13.594 13.594v69.375c0 7.5 6.0938 13.594 13.594 13.594h69.375c7.2656 0 13.594-6.0938 13.594-13.594zm848.2 1.875v-72.891c0-8.4375-7.0312-15.234-15.234-15.234h-72.891c-8.2031 0-15.234 6.7969-15.234 15.234v72.891c0 8.2031 7.0312 15.234 15.234 15.234h72.891c8.4375-0.23438 15.234-7.0312 15.234-15.234zm-131.48-580.31h-53.906l-66.328 66.328c-5.625 5.3906-14.531 5.3906-19.922 0-5.625-5.625-5.625-14.531 0-19.922l70.312-70.547c2.5781-2.5781 6.0938-4.2188 10.078-4.2188h59.766v-22.5c0-23.672 19.219-43.125 43.359-43.125h72.891c23.672 0 43.359 19.453 43.359 43.359v72.891c0 23.672-19.219 43.125-43.359 43.125h-72.891c-23.672 0-43.125-19.219-43.125-43.359v-22.031zm-688.59-28.359h67.969c3.9844 0 7.5 1.6406 10.078 4.2188l70.547 70.547c5.625 5.625 5.625 14.531 0 19.922s-14.531 5.3906-19.922 0l-66.562-66.562h-62.109c0 19.688 2.3438 35.391-12.188 50.156-7.5 7.5-18.047 12.188-29.531 12.188h-69.375c-22.969 0-41.719-18.75-41.719-41.719v-69.375c0-22.969 18.75-41.719 41.719-41.719h69.375c22.969 0 41.719 18.75 41.719 41.719zm431.02 209.77c-46.172-46.172-120.94-46.172-166.88 0-46.172 46.172-46.172 120.94 0 166.88 46.172 46.172 120.94 46.172 166.88 0 46.172-46.172 46.172-120.94 0-166.88zm-121.41-178.36h75.703c7.7344 0 14.062 6.3281 14.062 14.062v37.969c21.094 5.1562 41.016 13.594 59.531 24.609l26.953-26.953c5.3906-5.625 14.297-5.625 19.922 0l53.438 53.438c5.3906 5.3906 5.3906 14.297 0 19.922l-26.953 26.953c11.016 18.516 19.453 38.438 24.609 59.531h37.969c7.7344 0 14.062 6.3281 14.062 14.062v75.703c0 8.2031-6.5625 14.531-15.234 14.062h-36.797c-5.1562 21.094-13.594 41.25-24.609 59.766l26.953 26.953c5.3906 5.3906 5.3906 14.297 0 19.922l-53.438 53.438c-5.625 5.625-14.531 5.625-19.922 0l-26.953-26.953c-18.516 11.25-38.672 19.453-59.531 24.609v37.969c0 7.7344-6.3281 14.062-14.062 14.062h-75.703c-7.7344 0-14.062-6.3281-14.062-14.062v-37.969c-21.094-5.1562-41.25-13.594-59.531-24.609l-26.719 27.188c-5.625 5.625-14.531 5.625-19.922 0l-53.438-53.438c-5.625-5.625-5.625-14.531 0-19.922l26.953-26.953c-11.016-18.516-19.453-38.438-24.609-59.531h-37.969c-7.7344 0-14.062-6.3281-14.062-14.062v-75.703c0-7.7344 6.3281-14.062 14.062-14.062h37.969c5.1562-21.094 13.594-41.25 24.609-59.531l-26.953-26.953c-5.625-5.625-5.625-14.531 0-19.922l53.438-53.438c5.3906-5.625 14.297-5.625 19.922 0l26.953 26.953c18.516-11.25 38.438-19.453 59.531-24.609v-38.438c0-7.7344 6.3281-14.062 13.828-14.062zm52.031-106.17v68.672c0 7.7344-6.3281 14.062-14.062 14.062s-14.062-6.3281-14.062-14.062v-68.672h-36.562c-30 0-54.609-24.609-54.609-54.609v-101.02c0-30 24.609-54.609 54.609-54.609h101.25c30 0 54.375 24.609 54.375 54.609v101.02c0 30-24.609 54.609-54.375 54.609zm-28.125 660.47c0-7.7344 6.3281-14.062 14.062-14.062s14.062 6.3281 14.062 14.062v59.297c19.688 0 35.391-2.3438 50.156 12.188 7.5 7.5 12.188 18.047 12.188 29.531v69.375c0 22.969-18.75 41.719-41.719 41.719h-69.375c-22.969 0-41.719-18.75-41.719-41.719v-69.375c0-22.969 18.75-41.719 41.719-41.719h20.625zm-361.64-536.95v-69.375c0-7.5-6.0938-13.594-13.594-13.594h-69.375c-7.5 0-13.594 6.0938-13.594 13.594v69.375c0 7.5 6.0938 13.594 13.594 13.594h69.375c7.2656 0.23438 13.594-6.0938 13.594-13.594zm848.2 1.875v-72.891c0-8.2031-6.7969-15-15.234-15h-72.891c-8.2031 0-15.234 6.7969-15.234 15.234v72.891c0 8.2031 6.7969 15.234 15.234 15.234h72.891c8.2031-0.23438 15.234-7.0312 15.234-15.469zm-437.81 622.5h-69.375c-7.5 0-13.594 6.0938-13.594 13.594v69.375c0 7.5 6.0938 13.594 13.594 13.594h69.375c7.5 0 13.594-6.0938 13.594-13.594v-69.375c0-7.5-6.0938-13.594-13.594-13.594zm15.938-930h-101.25c-14.531 0-26.484 11.953-26.484 26.484v101.02c0 14.531 11.953 26.484 26.484 26.484h101.25c14.531 0 26.484-11.953 26.484-26.484v-101.02c0-14.531-11.953-26.484-26.484-26.484z"/>
 </g>
</svg>
