<?xml version="1.0" encoding="UTF-8"?>
<svg width="1200pt" height="1200pt" version="1.1" viewBox="0 0 1200 1200" xmlns="http://www.w3.org/2000/svg">
 <g fill="currentColor">
  <path d="m657.93 918.75c-10.523 0.011719-20.902 2.4609-30.32 7.1562l-56.727 28.363c-2.6055 1.3008-5.4766 1.9805-8.3867 1.9805h-150c-4.9727 0-9.7422-1.9766-13.258-5.4922l-108.62-108.62-76.609 76.609 98.301 98.301c21.051 21.168 49.695 33.031 79.551 32.949h128.71l108.54-54.27c3.5195-1.7617 7.5039-2.3672 11.391-1.7383 3.8828 0.62891 7.4727 2.4688 10.254 5.25l42.992 42.992 36.168-36.168-5.1094-30.66v-0.003906c-2.5977-15.848-10.758-30.254-23.012-40.637-12.254-10.379-27.805-16.059-43.863-16.016z"/>
  <path d="m604.43 1050h44.059l-14.688-14.688z"/>
  <path d="m487.5 1125h212.3l15-37.5h-280.34c3.8867 10.961 11.074 20.445 20.57 27.16s20.836 10.328 32.465 10.34z"/>
  <path d="m761.89 969.79 51.824-129.56-110.59-110.59-85.984 85.984 69.602 69.602h0.003906c19.203 5.418 36.461 16.199 49.758 31.082 13.293 14.879 22.066 33.238 25.297 52.93z"/>
  <path d="m897.64 795.74c-3.457-5.1875-9.293-8.2852-15.527-8.2383h-6.9141l-135 337.5h9.2227c7.5 0.023438 14.832-2.2109 21.043-6.418 6.2109-4.2031 11.012-10.184 13.773-17.156l115.29-288.21v0.003906c2.3594-5.7695 1.6523-12.34-1.8828-17.477z"/>
  <path d="m458.85 393.75h66.148v-37.5c-0.035156-29.828-11.898-58.422-32.988-79.512-21.09-21.09-49.684-32.953-79.512-32.988h-51.824c-15.461-0.046875-30.031 7.2461-39.262 19.652l32.855 65.715v-0.003907c9.6523 19.469 24.566 35.848 43.051 47.27 18.488 11.426 39.801 17.441 61.531 17.367z"/>
  <path d="m300 597.98v11.395c-0.003906 20.551 9.6211 39.914 26.004 52.32 16.387 12.406 37.637 16.418 57.414 10.844 19.781-5.5781 35.805-20.098 43.297-39.234-22.363 5.7969-45.855 5.582-68.109-0.62109-22.25-6.2031-42.469-18.172-58.605-34.703z"/>
  <path d="m487.5 506.25v-75h-28.648c-46.191 0.16016-90.004-20.492-119.27-56.234-9.3633 16.863-23.02 30.949-39.582 40.828v90.406c0 33.492 17.867 64.441 46.875 81.191 29.008 16.746 64.742 16.746 93.75 0 29.008-16.75 46.875-47.699 46.875-81.191zm-112.5-18.75c-4.9727 0-9.7422-1.9766-13.258-5.4922-3.5156-3.5156-5.4922-8.2852-5.4922-13.258s1.9766-9.7422 5.4922-13.258c3.5156-3.5156 8.2852-5.4922 13.258-5.4922s9.7422 1.9766 13.258 5.4922c3.5156 3.5156 5.4922 8.2852 5.4922 13.258s-1.9766 9.7422-5.4922 13.258c-3.5156 3.5156-8.2852 5.4922-13.258 5.4922zm56.25-18.75c0-4.9727 1.9766-9.7422 5.4922-13.258 3.5156-3.5156 8.2852-5.4922 13.258-5.4922s9.7422 1.9766 13.258 5.4922c3.5156 3.5156 5.4922 8.2852 5.4922 13.258s-1.9766 9.7422-5.4922 13.258c-3.5156 3.5156-8.2852 5.4922-13.258 5.4922s-9.7422-1.9766-13.258-5.4922c-3.5156-3.5156-5.4922-8.2852-5.4922-13.258z"/>
  <path d="m262.5 429.61c-6.1914 1.0781-12.465 1.6289-18.75 1.6445v-37.5c13.43 0.046875 26.605-3.6719 38.027-10.734 11.426-7.0586 20.645-17.18 26.609-29.211l8.1523-16.305-27.711-55.418h-0.003906c-17.742 2.6953-33.938 11.66-45.645 25.266-11.707 13.605-18.156 30.953-18.18 48.902v37.5c0.10156 34.297 13.551 67.203 37.5 91.754z"/>
  <path d="m187.5 892.23 76.609-76.609-71.117-71.117 26.52-26.516 200.75 200.76h67.234v-187.5c0-4.9727 1.9766-9.7422 5.4922-13.258 3.5156-3.5156 8.2852-5.4922 13.258-5.4922s9.7422 1.9766 13.258 5.4922l71.117 71.117 85.984-85.984-94.418-94.418c-17.543-17.637-41.414-27.523-66.289-27.457h-14.535c-8.9062 12.738-19.984 23.809-32.734 32.699-1.6055 36.262-22.16 69.008-54.117 86.223-31.957 17.211-70.613 16.352-101.77-2.2617-31.164-18.613-50.246-52.238-50.242-88.535v-28.125h-47.152c-37.223 0-72.922 14.789-99.242 41.109-26.32 26.32-41.105 62.016-41.105 99.242 0 37.223 14.785 72.918 41.105 99.238z"/>
  <path d="m558.07 918.75 52.766-26.383c7.0039-3.4883 14.371-6.1836 21.973-8.0391l-107.81-107.81v142.23z"/>
  <path d="m391.87 1087.5c-39.805 0.10938-78-15.711-106.07-43.934l-196.21-196.21c-5.1953-5.2148-10.07-10.75-14.59-16.562v294.21h337.55c-8.3555-11.086-14.133-23.898-16.914-37.5z"/>
  <path d="m1088.4 787.5h-153.23 0.003907c4.5586 12.871 4.2773 26.965-0.80078 39.641l-115.29 288.21c-1.3359 3.3203-2.9023 6.543-4.6914 9.6445h141.31c7.5 0.023438 14.832-2.2109 21.043-6.418 6.2109-4.2031 11.012-10.184 13.773-17.156l115.29-288.21v0.003906c2.3086-5.7773 1.6055-12.324-1.8828-17.477-3.4883-5.1523-9.3047-8.2383-15.527-8.2383z"/>
  <path d="m637.5 581.25c0.003906 4.9727 1.9844 9.7383 5.4961 13.254 3.5156 3.5117 8.2812 5.4922 13.254 5.4961h281.25c3.9062 0 7.7188 1.2227 10.898 3.4922l101.6 72.574v-57.316c0-4.9727 1.9766-9.7422 5.4922-13.258 3.5156-3.5156 8.2852-5.4922 13.258-5.4922h37.5c4.9727-0.003906 9.7383-1.9844 13.254-5.4961 3.5117-3.5156 5.4922-8.2812 5.4961-13.254v-393.75h-487.5zm450-112.5h-93.75v-37.5h93.75zm-131.25-225h131.25v37.5h-131.25zm-75 0h37.5v37.5h-37.5zm0 75h112.5v37.5h-112.5zm0 112.5h75v37.5h-75zm0 75h150v37.5h-150zm-206.25-262.5c0-4.9727 1.9766-9.7422 5.4922-13.258 3.5156-3.5156 8.2852-5.4922 13.258-5.4922h104.73l32.008-32.008 26.52 26.516-32.012 32.008v104.73c0 4.9727-1.9766 9.7422-5.4922 13.258-3.5156 3.5156-8.2852 5.4922-13.258 5.4922h-112.5c-4.9727 0-9.7422-1.9766-13.258-5.4922-3.5156-3.5156-5.4922-8.2852-5.4922-13.258zm0 187.5c0-4.9727 1.9766-9.7422 5.4922-13.258 3.5156-3.5156 8.2852-5.4922 13.258-5.4922h104.73l32.008-32.008 26.52 26.516-32.012 32.008v104.73c0 4.9727-1.9766 9.7422-5.4922 13.258-3.5156 3.5156-8.2852 5.4922-13.258 5.4922h-112.5c-4.9727 0-9.7422-1.9766-13.258-5.4922-3.5156-3.5156-5.4922-8.2852-5.4922-13.258z"/>
  <path d="m787.5 476.52-24.242 24.242-26.516-26.516 24.242-24.242h-48.484v75h75z"/>
  <path d="m787.5 289.02-24.242 24.242-26.516-26.516 24.242-24.242h-48.484v75h75z"/>
  <path d="m1106.2 75h-450c-4.9727 0.003906-9.7383 1.9844-13.254 5.4961-3.5117 3.5156-5.4922 8.2812-5.4961 13.254v56.25h487.5v-56.25c-0.003906-4.9727-1.9844-9.7383-5.4961-13.254-3.5156-3.5117-8.2812-5.4922-13.254-5.4961zm-412.5 56.25c-4.9727 0-9.7422-1.9766-13.258-5.4922-3.5156-3.5156-5.4922-8.2852-5.4922-13.258s1.9766-9.7422 5.4922-13.258c3.5156-3.5156 8.2852-5.4922 13.258-5.4922s9.7422 1.9766 13.258 5.4922c3.5156 3.5156 5.4922 8.2852 5.4922 13.258s-1.9766 9.7422-5.4922 13.258c-3.5156 3.5156-8.2852 5.4922-13.258 5.4922zm56.25 0c-4.9727 0-9.7422-1.9766-13.258-5.4922-3.5156-3.5156-5.4922-8.2852-5.4922-13.258s1.9766-9.7422 5.4922-13.258c3.5156-3.5156 8.2852-5.4922 13.258-5.4922s9.7422 1.9766 13.258 5.4922c3.5156 3.5156 5.4922 8.2852 5.4922 13.258s-1.9766 9.7422-5.4922 13.258c-3.5156 3.5156-8.2852 5.4922-13.258 5.4922zm56.25 0c-4.9727 0-9.7422-1.9766-13.258-5.4922-3.5156-3.5156-5.4922-8.2852-5.4922-13.258s1.9766-9.7422 5.4922-13.258c3.5156-3.5156 8.2852-5.4922 13.258-5.4922s9.7422 1.9766 13.258 5.4922c3.5156 3.5156 5.4922 8.2852 5.4922 13.258s-1.9766 9.7422-5.4922 13.258c-3.5156 3.5156-8.2852 5.4922-13.258 5.4922z"/>
 </g>
</svg>
