<?xml version="1.0" encoding="iso-8859-1"?>
<svg fill="#000000" height="800px" width="800px" version="1.1" id="Capa_1" xmlns="http://www.w3.org/2000/svg" xmlns:xlink="http://www.w3.org/1999/xlink" 
	 viewBox="0 0 258.307 258.307" xml:space="preserve">
<g fill="currentColor">
	<path d="M232.554,49.381c-0.408-1.383-2.273-1.995-3.314-0.875c-6.235,6.711-12.763,12.948-20.873,16.76
		c-0.471-0.019-0.94-0.041-1.411-0.061c-0.64-0.027-0.837,0.549-0.692,1.026c-1.255,0.504-2.545,0.955-3.882,1.334
		c-3.697-7.703-7.766-15.223-12.235-22.475c-12.102-19.639-26.905-40.136-50.153-44.286c-0.201-0.187-0.437-0.353-0.783-0.384
		c-0.722-0.065-1.418-0.051-2.13-0.088c-1.536-0.177-3.1-0.3-4.709-0.332c-0.453-0.009-0.791,0.136-1.074,0.335
		c-36.321,1.957-60.138,40.366-73.43,78.422c-0.446-0.48-1.098-0.762-1.932-0.529c-10.399,2.899-20.547,2.354-30.427-2.056
		c-1.604-0.716-3.242,0.454-2.901,2.23c2.5,13.028,9.958,36.258,24.637,41.11c-0.575,3.317-1.059,6.502-1.433,9.487
		c-3.271,26.087,0.19,50.246,10.408,69.227c-0.36,0.003-0.72,0.005-1.08,0.007c-0.785,0.004-0.786,1.216,0,1.22
		c0.589,0.003,1.178,0.007,1.767,0.011c7.245,12.917,17.667,23.367,31.423,30.17c-3.611,1.815-6.536,4.132-7.164,8.34
		c-0.486,3.254,0.47,6.689,2.979,8.904c3.101,2.737,8.038,2.505,11.147,0.114c1.651,7.838,13.28,11.271,18.491,4.359
		c1.458,5.157,7.404,8.126,12.789,6.519c4.05-1.208,7.448-5.092,8.559-9.352c1.797,4.067,5.177,7.32,9.985,8.36
		c5.481,1.185,12.13-1.893,14.045-7.092c2.514,3.44,7.047,5.239,11.331,3.882c3.587-1.136,6.5-4.537,7.142-8.232
		c3.92,4.241,11.969,3.207,15.006-2.24c3.186-5.716-0.953-14.388-6.876-17.533c5.752-3.211,11.137-7.094,15.961-11.8
		c22.033-21.498,23.731-53.791,20.001-82.652c-1.132-8.762-2.95-17.409-5.254-25.928C239.315,100.263,237.665,66.689,232.554,49.381
		z M36.651,105.867c2.097,0.039,4.195,0.068,6.285-0.061c0.637-0.039,0.638-0.952,0-0.991c-2.314-0.143-4.637-0.096-6.957-0.05
		c-1.236-2.059-2.318-4.262-3.312-6.511c3.646,0.219,7.292,0.435,10.946,0.469c1.134,0.01,1.094-1.635,0-1.735
		c-3.9-0.354-7.81-0.502-11.721-0.658c-1.023-2.506-1.915-5.049-2.686-7.537c2.538,0.161,5.073,0.341,7.623,0.399
		c0.951,0.022,0.907-1.352,0-1.449c-2.703-0.288-5.406-0.451-8.112-0.624c-0.603-2.08-1.138-4.118-1.553-6.026
		c9.547,3.583,19.477,4.097,29.488,1.218c-3.971,11.939-6.914,23.721-8.877,34.223C43.305,114.427,39.636,110.545,36.651,105.867z
		 M133.743,240.227c-0.626-0.601-1.759-0.347-1.768,0.654c-0.043,5.323,0.6,10.697-5.11,13.53
		c-5.294,2.626-10.625-1.027-11.556-6.478c-0.164-0.961-1.296-0.802-1.705-0.129c-0.298-0.007-0.603,0.11-0.864,0.417
		c-5.434,6.368-14.028,3.984-15.268-3.816c0.324-0.692,0.548-1.451,0.629-2.284c0.124-1.276-1.886-1.799-2.433-0.659
		c-1.709,3.56-6.703,5.83-9.791,2.367c-3.991-4.475-0.257-9.581,3.471-12.452c0.397-0.306,0.45-0.719,0.366-1.089
		c11.294,5.305,24.714,8.253,40.318,8.228c1.312-0.002,2.63-0.032,3.949-0.067C133.871,239.04,133.792,239.633,133.743,240.227z
		 M190.383,239.885c-0.62,2.882-3.211,5.278-6.205,5.352c-2.943,0.073-5.144-1.832-6.89-3.963c-0.053-0.145-0.063-0.294-0.125-0.437
		c-0.542-1.249-2.266-0.472-2.344,0.635c-0.278,3.909-1.298,8.096-5.586,9.379c-3.816,1.142-7.592-1.123-9.532-4.334
		c-0.012-0.423-0.043-0.851-0.117-1.29c-0.224-1.332-2.104-1.091-2.463,0c-1.975,5.997-6.316,10.413-13.122,8.021
		c-6.315-2.219-8.385-8.801-8.187-14.861c15.684-0.608,31.675-3.685,45.757-10.538C185.995,230.154,191.598,234.24,190.383,239.885z
		 M200.644,208.668c-18.36,19.018-44.887,25.565-70.612,25.676c-19.408,0.083-38.513-4.039-53.27-15.291
		c-0.003-0.032,0.021-0.05,0.014-0.084c-7.833-38.532,19.724-68.82,57.239-72.808c33.935-3.608,60.125,14.399,77.396,42.231
		c0.412,0.664,0.99,0.898,1.555,0.881C210.124,196.38,206.143,202.973,200.644,208.668z M214.26,185.816
		c-15.763-33.432-54.942-50.566-90.504-41.942c-32.555,7.894-60.345,39.199-49.133,73.517c-4.9-4.091-9.271-9.028-12.937-14.951
		c-0.602-0.972-1.138-1.967-1.692-2.956c2.448,0.013,4.896,0.008,7.342-0.088c0.711-0.028,0.712-1.078,0-1.105
		c-2.69-0.105-5.381-0.101-8.073-0.083c-1.565-2.921-2.927-5.912-4.111-8.958c4.736,0.109,9.495,0.303,14.217,0.085
		c0.846-0.039,0.847-1.276,0-1.315c-4.859-0.224-9.757-0.011-14.627,0.095c-1.022-2.745-1.89-5.535-2.635-8.358
		c3.043,0.064,6.086,0.111,9.129,0.032c0.772-0.02,0.774-1.181,0-1.201c-3.126-0.081-6.252-0.037-9.379,0.033
		c-0.875-3.488-1.494-7.039-1.999-10.611c8.299,0.226,16.647,0.649,24.933,0.294c0.849-0.036,0.844-1.264,0-1.315
		c-8.332-0.505-16.742-0.224-25.097-0.149c-0.592-4.533-0.885-9.117-0.979-13.715c4.394-0.46,8.774-0.446,13.195-0.404
		c0.793,0.007,0.746-1.111,0-1.201c-4.417-0.534-8.828-0.211-13.212,0.434c-0.055-4.517,0.139-9.042,0.469-13.552
		c5.593,0.146,11.227,0.464,16.813,0.195c0.969-0.046,0.97-1.459,0-1.506c-5.563-0.267-11.172,0.046-16.742,0.193
		c0.4-5.032,1.026-10.025,1.799-14.958c0.014,0.001,0.018,0.014,0.033,0.014c3.384,0.049,6.786,0.211,10.167,0
		c0.98-0.061,0.982-1.464,0-1.525c-3.317-0.207-6.657-0.056-9.979-0.003c0.026-0.156,0.043-0.316,0.069-0.472
		c1.072-0.152,1.315-1.784,0.411-2.34c0.339-1.906,0.723-3.863,1.129-5.842c4.455-0.276,8.946-0.464,13.357-1.076
		c0.954-0.132,0.714-1.688-0.225-1.666c-4.259,0.096-8.529,0.604-12.779,1.035c0.824-3.87,1.778-7.859,2.859-11.915
		c4.885,0.074,9.762,0.161,14.648,0.017c0.895-0.027,0.896-1.365,0-1.392c-4.762-0.14-9.515-0.061-14.276,0.012
		c1.323-4.852,2.838-9.794,4.541-14.747c3.924,0.071,7.844,0.131,11.769,0.003c1.079-0.035,1.081-1.643,0-1.678
		c-3.728-0.121-7.453-0.07-11.181-0.005c1.706-4.839,3.616-9.67,5.7-14.435c4.976,0.162,10.036,0.323,14.97-0.148
		c1.077-0.103,1.079-1.574,0-1.678c-4.634-0.443-9.381-0.328-14.065-0.177c1.45-3.217,3.006-6.384,4.635-9.499
		c4.954,0.043,9.908,0.175,14.851-0.187c1.053-0.077,1.055-1.562,0-1.639c-4.588-0.337-9.188-0.246-13.786-0.196
		c1.895-3.506,3.921-6.91,6.054-10.208c6.418,0.099,12.837,0.21,19.254,0.005c1.263-0.04,1.265-1.923,0-1.963
		c-5.984-0.191-11.97-0.104-17.956-0.012c2.989-4.449,6.213-8.646,9.663-12.527c7.266,0.18,14.631,0.184,21.854-0.327
		c1.114-0.079,1.141-1.74,0-1.754c-6.889-0.08-13.876,0.329-20.779,0.887c2.817-3.068,5.792-5.908,8.919-8.492
		c7.154-0.205,14.181,0.151,21.331,0.54c1.043,0.057,1.312-1.696,0.251-1.853c-6.326-0.94-12.851-0.959-19.256-0.48
		c2.948-2.257,6.036-4.267,9.252-6.027c4.595,0.095,9.253,0.31,13.832-0.037c1.017-0.077,1.018-1.505,0-1.582
		c-3.455-0.262-6.949-0.196-10.433-0.111c5.11-2.42,10.54-4.188,16.334-5.113c0.06,0.009,0.103,0.04,0.167,0.045
		c49.043,3.386,77.073,80.348,83.941,121.115C219.557,144.158,220.796,166.629,214.26,185.816z M215.293,101.129
		c-0.761-2.598-1.576-5.179-2.437-7.745c2.093,0.225,4.188,0.44,6.292,0.499c0.753,0.021,0.961-1.238,0.182-1.348
		c-2.319-0.328-4.655-0.476-6.992-0.621c-0.703-2.049-1.508-4.062-2.27-6.091c4.154,0.269,8.316,0.589,12.476,0.584
		c0.986-0.001,0.948-1.415,0-1.506c-4.332-0.417-8.701-0.484-13.052-0.622c-1.364-3.55-2.82-7.064-4.346-10.549
		c4.868,0.769,9.764,1.641,14.663,1.988c0.806,0.057,0.999-1.274,0.193-1.423c-5.066-0.934-10.271-1.31-15.408-1.82
		c-0.369-0.826-0.71-1.663-1.092-2.483c2.907-0.66,5.596-1.668,8.149-2.899c3.4,0.196,6.8,0.361,10.21,0.295
		c0.83-0.016,0.785-1.165,0-1.258c-2.411-0.287-4.828-0.459-7.248-0.589c5.443-3.153,10.24-7.38,14.956-11.867
		C233.56,70.392,233.835,94.557,215.293,101.129z"/>
	<path d="M165.848,70.324c-8.824-1.036-18.149,2.694-21.589,10.464c-5.445-13.344-19.552-23.099-34.01-18.456
		c-15.407-0.847-26.043,17.536-25.01,31.636c1.162,15.866,15.237,28.308,31.146,26.866c4.391-0.398,8.841-1.839,12.951-4.009
		c0.725,4.283,3.793,8.822,5.538,12.562c1.08,2.317,2.31,7.463,5.878,6.82c3.548-0.64,4.768-6.561,5.922-9.233
		c1.892-4.381,4.806-9.153,5.642-13.927c4.152,1.62,8.909,2.157,12.746,1.681c11.663-1.446,20.98-10.489,21.149-22.498
		C186.379,80.274,177.426,71.684,165.848,70.324z M107.054,64.641c-0.05,1.022,0.736,2.032,2.113,1.73
		c15.183-3.333,29.521,4.538,32.799,20.467c2.959,14.377-8.735,26.226-21.953,29.432C84.787,124.813,79.771,69.703,107.054,64.641z
		 M145.377,120.34c-0.892,2.089-1.784,4.178-2.677,6.268c-0.376,0.881-1.401,4.73-2.276,5.095c-0.77,0.321-4.446-7.683-5.271-9.243
		c-1.211-2.291-2.203-4.767-3.89-6.685c4.817-2.912,9.011-6.894,11.785-11.592c0.939,3.301,3.387,5.765,6.461,7.513
		C147.624,114.256,146.625,117.417,145.377,120.34z M145.947,100.013c-0.106-0.41-0.329-0.688-0.596-0.886
		c1.031-3.097,1.485-6.389,1.116-9.82c-0.191-1.771-0.576-3.511-1.067-5.219c7.298-16.919,37.206-11.645,36.774,8.141
		C181.781,110.179,151.096,119.854,145.947,100.013z"/>
	<path d="M168.361,95.802c-3.085-2.963-8.777-1.032-8.725,3.456c0.019,1.6,0.935,3.07,2.328,3.727
		c0.545,0.515,1.217,0.919,2.073,1.077C168.447,104.876,171.626,98.939,168.361,95.802z"/>
	<path d="M121.724,104.733c-1.501-3.485-6.378-4.02-8.269-1.167c-0.013-0.004-0.037-0.014-0.049-0.017
		c-0.586-0.156-1.147,0.112-1.472,0.599c-2.133,3.202-0.112,7.867,3.766,8.338C119.849,112.988,123.419,108.669,121.724,104.733z"/>
</g>
</svg>
