<svg xmlns="http://www.w3.org/2000/svg" xmlns:xlink="http://www.w3.org/1999/xlink" version="1.1" x="0px" y="0px" viewBox="0 0 100 125" enable-background="new 0 0 100 100" xml:space="preserve">
    <g fill="currentColor">
        <path fill-rule="evenodd" clip-rule="evenodd" d="M70.1,22.151c0.031,0.557,0,0.988-0.09,1.297  c-0.064,0.154-0.111,0.263-0.141,0.324c-0.031,0.031-0.063,0.063-0.094,0.093h-0.043c-0.221,0-0.574-0.17-1.066-0.509  c-0.619-0.371-1.098-0.603-1.438-0.694c-0.584-0.155-1.248-0.187-1.992-0.094c-0.77,0.063-1.604,0.277-2.496,0.648  c-0.434,0.186-0.82,0.386-1.158,0.602c-0.371,0.217-0.711,0.463-1.02,0.741c-0.586,0.463-1.033,0.957-1.342,1.481  c-0.154,0.278-0.309,0.679-0.465,1.203c0.252,0.68,0.557,1.298,0.928,1.853c1.049,1.544,2.113,3.426,3.195,5.648  c0.154,0.309,0.305,0.617,0.461,0.926c1.576,0.771,3.629,1.59,6.16,2.454c0.986,0.308,2.605,0.833,4.859,1.573  c2.129,0.68,3.982,1.328,5.557,1.944c2.377,0.927,4.367,1.898,5.971,2.917c2.252,1.389,4.076,3.01,5.463,4.861  c0.834,1.142,1.467,2.253,1.9,3.334c0.277,0.68,0.479,1.28,0.602,1.806c0.092,0.432,0.137,0.817,0.137,1.156  c-0.063,0.278-0.107,0.494-0.137,0.648c-0.061,0.247-0.172,0.494-0.324,0.741c-0.156,0.247-0.357,0.447-0.602,0.602  c-0.248,0.125-0.496,0.232-0.742,0.324c-0.371,0.093-0.756,0.108-1.154,0.047c-0.529,0-1.143-0.108-1.857-0.324  c-0.768-0.247-1.803-0.648-3.098-1.203c-0.619-0.278-1.529-0.711-2.734-1.297c-1.111-0.555-1.945-0.973-2.498-1.25L76.164,52.2  c-2.16-0.711-4.504-1.205-7.037-1.482c-0.553-0.062-0.986-0.107-1.295-0.139c0.215,1.604,0.34,3.287,0.369,5.046l-0.092,3.194  c-0.029,0.339-0.076,0.85-0.139,1.527c-0.031,0.124-0.107,0.633-0.232,1.528c-0.309,1.914-0.707,3.78-1.203,5.603  c-0.588,2.313-1.559,5.37-2.918,9.166c-1.018,2.84-1.771,4.876-2.268,6.111c-0.152,0.401-0.293,0.74-0.418,1.019  c5.219,0.062,9.924,0.17,14.121,0.324c6.916,0.247,10.371,0.54,10.371,0.879c0,0.371-3.455,0.68-10.371,0.927  c-4.473,0.155-9.551,0.262-15.232,0.324c0.371-2.13,0.588-3.38,0.65-3.751c0.309-1.512,0.832-3.611,1.572-6.296  c0.498-1.821,0.881-3.24,1.158-4.26c0.525-1.853,0.941-3.503,1.25-4.953c0.465-1.944,0.803-3.75,1.02-5.417  c0.123-0.617,0.184-1.111,0.184-1.481l0.277-4.398c-0.061-2.037-0.23-3.997-0.508-5.88c-0.311-1.975-0.664-3.78-1.064-5.416  c-0.711-2.747-1.697-5.741-2.963-8.982c-0.525-1.295-1.313-3.164-2.361-5.602c-0.678-1.234-1.096-2.021-1.25-2.361  c-0.213-0.556-0.246-1.203-0.094-1.944c0.189-0.864,0.648-1.697,1.393-2.5c0.396-0.401,0.799-0.756,1.203-1.064  c0.461-0.309,0.986-0.587,1.572-0.834c1.111-0.463,2.207-0.694,3.287-0.694c1.109,0.062,2.035,0.324,2.775,0.787  c0.527,0.31,0.961,0.71,1.297,1.204c-0.246-0.556-0.553-1.02-0.922-1.39c-0.465-0.523-1.035-0.972-1.717-1.343  c-1.355-0.832-3.27-1.542-5.738-2.129c-0.68-0.154-1.898-0.417-3.658-0.787l-2.918-0.555c-0.369-0.031-0.662-0.063-0.879-0.094  c-0.709,0-1.279,0.063-1.713,0.186c-0.586,0.154-1.111,0.354-1.572,0.603c-0.834,0.493-1.668,1.25-2.502,2.267  c-0.584,0.742-1.203,1.638-1.854,2.687c-0.367,0.586-0.859,1.436-1.479,2.547c-0.834,1.48-1.793,3.209-2.871,5.185  c-0.063,0.123-0.17,0.354-0.324,0.694c-1.143,2.654-1.975,4.63-2.5,5.927c-1.266,3.179-2.24,6.156-2.916,8.936  c-0.434,1.542-0.803,3.349-1.111,5.416c-0.279,1.944-0.432,3.904-0.463,5.88l0.047,2.963c0.031,0.186,0.09,0.68,0.184,1.481  l0.139,1.436c0.279,1.852,0.617,3.672,1.02,5.463c0.369,1.45,0.803,3.087,1.295,4.908c0.277,1.018,0.666,2.438,1.158,4.258  c0.773,2.841,1.281,4.939,1.527,6.297c0.029,0.186,0.354,1.188,0.973,3.01c-3.18-0.063-6.189-0.124-9.025-0.186  c-2.287-0.031-4.447-0.077-6.482-0.139C18,85.656,14.543,85.348,14.543,84.977c0-0.339,3.457-0.632,10.373-0.879  c2.035-0.063,4.195-0.107,6.482-0.139c2.314-0.062,4.768-0.124,7.357-0.186c-0.059-0.092-0.107-0.186-0.139-0.278  c-0.926-2.468-1.682-4.489-2.268-6.064c-1.326-3.796-2.301-6.852-2.918-9.166c-0.523-1.976-0.926-3.858-1.203-5.649l-0.186-1.527  c-0.123-0.957-0.182-1.466-0.182-1.527l-0.141-3.195c0.063-1.636,0.199-3.333,0.416-5.093c-0.467,0.063-0.895,0.124-1.297,0.187  c-2.469,0.246-4.814,0.741-7.037,1.48l-4.678,1.806c-0.492,0.247-1.324,0.664-2.498,1.25c-1.172,0.557-2.098,0.988-2.777,1.297  c-1.141,0.524-2.16,0.925-3.057,1.202c-0.74,0.217-1.357,0.341-1.852,0.371c-0.463,0-0.863-0.03-1.203-0.092  c-0.217-0.063-0.447-0.17-0.693-0.324c-0.277-0.186-0.48-0.386-0.604-0.603c-0.184-0.216-0.293-0.446-0.324-0.694  c-0.063-0.216-0.094-0.447-0.094-0.693c-0.029-0.34,0-0.71,0.094-1.112c0.092-0.524,0.295-1.142,0.605-1.852  c0.459-1.111,1.092-2.207,1.895-3.287c1.389-1.852,3.209-3.473,5.463-4.86c1.605-1.019,3.596-2.007,5.971-2.964  c1.547-0.587,3.398-1.233,5.559-1.944c2.932-0.987,4.551-1.527,4.859-1.62c2.471-0.804,4.523-1.59,6.158-2.361  c0.125-0.34,0.264-0.663,0.416-0.972c0.557-1.112,1.113-2.132,1.67-3.057c0.492-1.08,1.293-2.686,2.404-4.814l1.668-3.981  c0.555-1.204,0.986-2.114,1.297-2.731c0.584-1.142,1.189-2.16,1.805-3.056c0.988-1.327,2.006-2.299,3.057-2.917  c0.738-0.432,1.467-0.725,2.174-0.88c0.713-0.186,1.498-0.277,2.363-0.277c0.646,0.092,1.031,0.14,1.156,0.14l3.008,0.602  c1.668,0.369,2.918,0.694,3.752,0.972c2.623,0.771,4.658,1.698,6.111,2.778c0.771,0.586,1.404,1.233,1.898,1.944  C69.807,20.855,70.037,21.504,70.1,22.151z M67.738,49.885c0.525-0.063,1.004-0.094,1.434-0.094  c2.348-0.123,4.832,0.155,7.457,0.833l4.953,1.62c0.586,0.249,1.465,0.634,2.639,1.158c1.172,0.556,2.086,0.957,2.73,1.204  c1.143,0.493,2.086,0.833,2.824,1.019c0.648,0.154,1.111,0.246,1.389,0.277l0.463-0.092h0.049v-0.047l0.045-0.139  c0-0.186-0.031-0.37-0.094-0.556c-0.092-0.402-0.262-0.88-0.51-1.436c-0.215-0.524-0.461-1.002-0.74-1.434l-0.139-0.371l-0.693-1.02  c-1.205-1.574-2.824-3.009-4.863-4.306c-1.479-0.956-3.332-1.929-5.553-2.916c-1.357-0.556-3.164-1.251-5.42-2.083  c-2.342-0.896-3.934-1.514-4.768-1.852c-1.91-0.804-3.533-1.575-4.859-2.316c0.926,2.131,1.697,4.291,2.313,6.481  c0.494,1.638,0.912,3.504,1.252,5.603C67.68,49.606,67.707,49.761,67.738,49.885z M52.877,80.348  c-0.463-0.309-0.943-0.54-1.434-0.694c-0.525-0.186-1.129-0.277-1.807-0.277c-1.234,0-2.314,0.339-3.24,1.019  c-0.74,0.494-1.357,1.203-1.852,2.129c-0.123,0.31-0.248,0.68-0.371,1.111c0,0.03,0,0.077,0,0.139  c1.852-0.03,3.783-0.047,5.789-0.047c1.787,0,3.531,0,5.23,0v-0.045c-0.123-0.247-0.199-0.433-0.232-0.557l-0.23-0.555  c-0.154-0.309-0.402-0.695-0.74-1.158C53.559,80.919,53.184,80.563,52.877,80.348z M56.258,82.015l0.186,1.48  c0,0.032,0.063,0.942,0.186,2.732c-2.131,0-4.355,0-6.666,0c-2.287,0-4.479,0-6.576,0c-0.246,0-0.494,0-0.74,0  c0.154-2.346,0.277-3.751,0.369-4.213c0.311-1.328,1.006-2.438,2.084-3.334c0.588-0.493,1.266-0.88,2.035-1.157  c0.836-0.309,1.668-0.463,2.502-0.463c0.863,0,1.711,0.139,2.547,0.417c0.74,0.277,1.42,0.679,2.037,1.203  c0.432,0.371,0.896,0.926,1.391,1.667C55.918,80.934,56.135,81.489,56.258,82.015z M26.258,42.245  c-2.256,0.864-4.059,1.573-5.418,2.13c-2.252,0.987-4.105,1.943-5.553,2.87c-2.01,1.265-3.629,2.717-4.863,4.353l-0.881,1.342  c-0.244,0.401-0.479,0.88-0.693,1.437c-0.217,0.492-0.387,0.971-0.508,1.435c-0.064,0.277-0.08,0.463-0.049,0.555v0.187l0.092,0.046  c0.063,0.031,0.217,0.031,0.465,0c0.369,0,0.816-0.078,1.342-0.232c0.771-0.216,1.713-0.555,2.824-1.019  c0.555-0.216,1.467-0.602,2.73-1.157c1.141-0.524,2.023-0.925,2.641-1.203l4.955-1.621c2.592-0.679,5.09-0.94,7.498-0.786  c0.369,0,0.83,0.031,1.389,0.093c0.033-0.155,0.063-0.325,0.092-0.51c0.373-2.16,0.787-4.028,1.252-5.603  c0.617-2.129,1.389-4.29,2.314-6.481c-1.328,0.741-2.947,1.513-4.861,2.315C30.16,40.764,28.572,41.381,26.258,42.245z"/>
    </g>
</svg>
