<?xml version="1.0" encoding="UTF-8"?>
<svg width="1200pt" height="1200pt" version="1.1" viewBox="0 0 1200 1200" xmlns="http://www.w3.org/2000/svg">
    <g fill="currentColor">
        <path d="m666.66 583.31h-533.34c-45.938 0-83.344 37.406-83.344 83.344v333.32c0 45.938 37.406 83.344 83.344 83.344h249.98v33.328h-33.328c-9.2344 0-16.688 7.4531-16.688 16.688 0 9.2344 7.4531 16.688 16.688 16.688h99.984c9.2344 0 16.688-7.4531 16.688-16.688 0-9.2344-7.4531-16.688-16.688-16.688h-33.328v-33.328h249.98c45.938 0 83.344-37.406 83.344-83.344v-333.32c0-45.938-37.406-83.344-83.344-83.344zm50.016 416.68c0 27.562-22.406 50.016-50.016 50.016h-533.34c-27.562 0-50.016-22.406-50.016-50.016v-333.32c0-27.562 22.406-50.016 50.016-50.016h533.34c27.562 0 50.016 22.406 50.016 50.016z"/>
        <path d="m204.89 828.47c3.2344 3.2344 7.5 4.875 11.766 4.875s8.5312-1.6406 11.766-4.875c6.5156-6.5156 6.5156-17.062 0-23.578l-54.891-54.891 54.891-54.891c6.5156-6.5156 6.5156-17.062 0-23.578s-17.062-6.5156-23.578 0l-66.656 66.656c-6.5156 6.5156-6.5156 17.062 0 23.578z"/>
        <path d="m361.78 671.53c-6.5156-6.5156-17.062-6.5156-23.578 0s-6.5156 17.062 0 23.578l54.891 54.891-54.891 54.891c-6.5156 6.5156-6.5156 17.062 0 23.578 3.2344 3.2344 7.5 4.875 11.766 4.875s8.5312-1.6406 11.766-4.875l66.656-66.656c6.5156-6.5156 6.5156-17.062 0-23.578l-66.656-66.656z"/>
        <path d="m262.64 832.82c1.3594 0.32812 2.7188 0.51562 4.0312 0.51562 7.4531 0 14.25-5.0625 16.125-12.609l33.328-133.31c2.25-8.9062-3.1875-17.953-12.141-20.203s-18 3.1875-20.203 12.141l-33.328 133.31c-2.25 8.9062 3.1875 17.953 12.141 20.203z"/>
        <path d="m583.31 733.31h-83.344c-9.2344 0-16.688 7.4531-16.688 16.688s7.4531 16.688 16.688 16.688h83.344c9.2344 0 16.688-7.4531 16.688-16.688s-7.4531-16.688-16.688-16.688z"/>
        <path d="m650.02 733.31h-16.688c-9.2344 0-16.688 7.4531-16.688 16.688s7.4531 16.688 16.688 16.688h16.688c9.2344 0 16.688-7.4531 16.688-16.688s-7.4531-16.688-16.688-16.688z"/>
        <path d="m583.31 783.32h-83.344c-9.2344 0-16.688 7.4531-16.688 16.688s7.4531 16.688 16.688 16.688h83.344c9.2344 0 16.688-7.4531 16.688-16.688s-7.4531-16.688-16.688-16.688z"/>
        <path d="m650.02 783.32h-16.688c-9.2344 0-16.688 7.4531-16.688 16.688s7.4531 16.688 16.688 16.688h16.688c9.2344 0 16.688-7.4531 16.688-16.688s-7.4531-16.688-16.688-16.688z"/>
        <path d="m283.31 883.31c0-9.2344-7.4531-16.688-16.688-16.688h-116.67c-9.2344 0-16.688 7.4531-16.688 16.688s7.4531 16.688 16.688 16.688h116.67c9.2344 0 16.688-7.4531 16.688-16.688z"/>
        <path d="m366.66 883.31c0-9.2344-7.4531-16.688-16.688-16.688h-33.328c-9.2344 0-16.688 7.4531-16.688 16.688s7.4531 16.688 16.688 16.688h33.328c9.2344 0 16.688-7.4531 16.688-16.688z"/>
        <path d="m300 916.69h-116.67c-9.2344 0-16.688 7.4531-16.688 16.688s7.4531 16.688 16.688 16.688h116.67c9.2344 0 16.688-7.4531 16.688-16.688s-7.4531-16.688-16.688-16.688z"/>
        <path d="m383.34 916.69h-33.328c-9.2344 0-16.688 7.4531-16.688 16.688s7.4531 16.688 16.688 16.688h33.328c9.2344 0 16.688-7.4531 16.688-16.688s-7.4531-16.688-16.688-16.688z"/>
        <path d="m300 966.66h-116.67c-9.2344 0-16.688 7.4531-16.688 16.688s7.4531 16.688 16.688 16.688h116.67c9.2344 0 16.688-7.4531 16.688-16.688s-7.4531-16.688-16.688-16.688z"/>
        <path d="m383.34 966.66h-33.328c-9.2344 0-16.688 7.4531-16.688 16.688s7.4531 16.688 16.688 16.688h33.328c9.2344 0 16.688-7.4531 16.688-16.688s-7.4531-16.688-16.688-16.688z"/>
        <path d="m183.32 566.68c9.2344 0 16.688-7.4531 16.688-16.688v-333.32h699.98v93.328c0 9.2344 7.4531 16.688 16.688 16.688s16.688-7.4531 16.688-16.688v-176.68c0-45.938-37.406-83.344-83.344-83.344l-600.05 0.046875c-45.938 0-83.344 37.406-83.344 83.344v416.68c0 9.2344 7.4531 16.688 16.688 16.688zm16.688-433.36c0-27.562 22.406-50.016 50.016-50.016h600c27.562 0 50.016 22.406 50.016 50.016v50.016h-700.03z"/>
        <path d="m783.32 750c-9.2344 0-16.688 7.4531-16.688 16.688s7.4531 16.688 16.688 16.688c82.734 0 150-67.266 150-150s-67.266-150-150-150c-46.031 0-88.922 20.766-117.7 56.953-5.7188 7.1719-4.5469 17.672 2.6719 23.438 7.1719 5.7188 17.672 4.5469 23.438-2.6719 22.406-28.172 55.828-44.391 91.641-44.391 64.312 0 116.67 52.359 116.67 116.67s-52.359 116.67-116.67 116.67z"/>
        <path d="m1103.2 566.68c-6.0938 0-11.344-4.125-12.844-10.078-7.7344-30.703-19.734-59.672-35.719-86.156-3.0938-5.1094-2.25-11.906 2.0156-16.125 8.7188-8.7188 13.688-20.766 13.688-33.141 0-12.328-5.0156-24.375-13.688-33.094l-28.031-28.031c-17.766-17.766-48.516-17.766-66.234 0-4.0312 4.0312-11.438 4.8281-16.078 2.0156-26.531-15.984-55.5-28.031-86.25-35.719-5.9062-1.5-10.031-6.75-10.031-12.844 0-25.828-21-46.828-46.828-46.828h-39.703c-25.828 0-46.828 21-46.828 46.828 0 6.0938-4.125 11.344-10.078 12.844-30.703 7.7344-59.672 19.734-86.156 35.719-5.1094 3.0469-11.953 2.25-16.125-2.0156-17.438-17.438-48.797-17.438-66.234 0l-28.031 28.031c-18.281 18.281-18.281 47.953 0 66.234 2.3438 2.3438 3.7969 5.8594 3.7969 9.375 0 2.4844-0.60938 4.7812-1.7812 6.7031-14.062 23.203-25.031 48.469-32.578 75.094-2.5312 8.8594 2.625 18.047 11.484 20.578 8.7656 2.4844 18.047-2.625 20.578-11.484 6.75-23.766 16.547-46.266 29.062-66.891 4.3125-7.0781 6.5625-15.375 6.5625-23.953 0-12.375-4.9688-24.375-13.547-32.953-5.3438-5.3438-5.3438-13.734 0-19.078l28.031-28.031c5.0156-5.0156 14.062-5.0156 19.078 0 15.141 15.141 38.531 18.047 56.906 6.9844 23.672-14.297 49.641-25.031 77.062-31.969 20.766-5.2031 35.297-23.766 35.297-45.188 0-7.4531 6.0469-13.5 13.5-13.5h39.703c7.4531 0 13.5 6.0469 13.5 13.5 0 21.422 14.531 39.984 35.25 45.188 27.469 6.9375 53.438 17.672 77.062 31.922 17.344 10.5 42.422 7.5938 56.953-6.9844 5.3438-5.3438 13.734-5.3438 19.078 0l28.031 28.031c2.4844 2.4844 3.9375 5.9531 3.9375 9.5156s-1.4531 7.0312-3.9375 9.5625c-15.141 15.141-18 38.531-6.9844 56.906 14.297 23.672 25.031 49.641 31.969 77.062 5.2031 20.766 23.766 35.297 45.188 35.297 7.4531 0 13.5 6.0469 13.5 13.5v39.703c0 7.4531-6.0469 13.5-13.5 13.5-21.422 0-39.984 14.531-45.188 35.25-6.9375 27.469-17.672 53.438-31.922 77.062-4.3125 7.0781-6.5625 15.375-6.5625 23.953 0 12.375 4.9688 24.375 13.547 32.953 5.3438 5.3438 5.3438 13.734 0 19.078l-28.031 28.031c-5.0156 5.0156-14.062 5.0156-19.078 0-15.141-15.141-38.484-18-56.906-6.9844-23.672 14.297-49.641 25.031-77.062 31.969-20.766 5.2031-35.297 23.766-35.297 45.188 0 7.4531-6.0469 13.5-13.5 13.5h-19.828c-9.2344 0-16.688 7.4531-16.688 16.688s7.4531 16.688 16.688 16.688h19.828c25.828 0 46.828-21 46.828-46.828 0-6.0938 4.125-11.344 10.078-12.844 30.703-7.7344 59.672-19.734 86.156-35.719 5.1094-3.0938 11.906-2.25 16.125 2.0156 17.438 17.438 48.797 17.438 66.234 0l28.031-28.031c8.8594-8.8594 13.734-20.625 13.734-33.141 0-12.469-4.875-24.234-13.781-33.141-2.3438-2.3438-3.7969-5.8594-3.7969-9.375 0-2.4844 0.60938-4.7812 1.7812-6.7031 15.984-26.531 28.031-55.5 35.719-86.25 1.5-5.9062 6.75-10.031 12.844-10.031 25.828 0 46.828-21 46.828-46.828v-39.703c0-25.828-21-46.828-46.828-46.828z"/>
        <path d="m316.69 116.67h-16.688c-9.2344 0-16.688 7.4531-16.688 16.688s7.4531 16.688 16.688 16.688h16.688c9.2344 0 16.688-7.4531 16.688-16.688s-7.4531-16.688-16.688-16.688z"/>
        <path d="m399.98 116.67h-16.688c-9.2344 0-16.688 7.4531-16.688 16.688s7.4531 16.688 16.688 16.688h16.688c9.2344 0 16.688-7.4531 16.688-16.688s-7.4531-16.688-16.688-16.688z"/>
        <path d="m483.32 116.67h-16.688c-9.2344 0-16.688 7.4531-16.688 16.688s7.4531 16.688 16.688 16.688h16.688c9.2344 0 16.688-7.4531 16.688-16.688s-7.4531-16.688-16.688-16.688z"/>
        <path d="m583.31 283.31c0-9.2344-7.4531-16.688-16.688-16.688h-283.31c-9.2344 0-16.688 7.4531-16.688 16.688s7.4531 16.688 16.688 16.688h283.31c9.2344 0 16.688-7.4531 16.688-16.688z"/>
        <path d="m483.32 350.02c0-9.2344-7.4531-16.688-16.688-16.688h-150c-9.2344 0-16.688 7.4531-16.688 16.688s7.4531 16.688 16.688 16.688h150c9.2344 0 16.688-7.4531 16.688-16.688z"/>
        <path d="m433.31 399.98h-83.344c-9.2344 0-16.688 7.4531-16.688 16.688s7.4531 16.688 16.688 16.688h83.344c9.2344 0 16.688-7.4531 16.688-16.688s-7.4531-16.688-16.688-16.688z"/>
        <path d="m433.31 466.69h-83.344c-9.2344 0-16.688 7.4531-16.688 16.688s7.4531 16.688 16.688 16.688h83.344c9.2344 0 16.688-7.4531 16.688-16.688s-7.4531-16.688-16.688-16.688z"/>
    </g>
</svg>
