<?xml version="1.0" encoding="UTF-8"?>
<svg width="1200pt" height="1200pt" version="1.1" viewBox="0 0 1200 1200" xmlns="http://www.w3.org/2000/svg">
 <g fill="currentColor">
  <path d="m1061.1 323.41-452.06-261c-5.5781-3.2266-12.422-3.2266-18 0l-452.06 261c-5.5664 3.2148-9 9.1562-9 15.59v522c0 6.4336 3.4336 12.371 9 15.59l452.06 261c2.7852 1.6055 5.8906 2.4102 9 2.4102s6.2148-0.80469 9-2.4102l452.06-261c5.5664-3.2148 9-9.1562 9-15.59v-522c0-6.4336-3.4297-12.371-9-15.59zm-611.76 624.59c-6.6367 0-12 5.375-12 12v47.281l-126.68-73.141v-139.36l126.68 73.141v54.086c0 6.625 5.3633 12 12 12 6.6367 0 12-5.375 12-12v-40.223l126.7 73.148v139.36l-126.7-73.152v-61.141c0-6.625-5.3633-12-12-12zm-144.67-678.68 69.492 40.129c1.8828 1.0938 3.9492 1.6094 5.9883 1.6094 4.1523 0 8.1836-2.1484 10.402-6 3.3125-5.7461 1.3438-13.078-4.3906-16.391l-57.492-33.191 126.68-73.141 120.68 69.668-126.68 73.141-29.699-17.148c-5.7344-3.3242-13.078-1.3555-16.391 4.3906-3.3125 5.7461-1.3438 13.078 4.3906 16.391l17.699 10.211-126.67 73.141-120.68-69.684zm566.73-13.848-120.68 69.672-126.68-73.141 120.68-69.684zm150.7 87-120.68 69.684-64.199-37.066c-5.7461-3.3125-13.078-1.3438-16.391 4.3906-3.3125 5.7344-1.3438 13.078 4.3906 16.391l52.188 30.133-54.336 31.379-126.68-73.141 54.348-31.379 40.523 23.398c1.8828 1.0938 3.9492 1.6094 5.9883 1.6094 4.1523 0 8.1836-2.1484 10.402-6 3.3125-5.7461 1.3438-13.078-4.3906-16.391l-28.523-16.465 120.68-69.672zm12 167.05-120.7 69.684v-146.28l120.7-69.684zm-283.37 266.48c-6.6367 0-12 5.375-12 12v66.059l-126.7 73.152v-146.28l126.7-73.152v32.219c0 6.625 5.3633 12 12 12 6.6367 0 12-5.375 12-12v-46.078l59.484-34.344v146.28l-59.484 34.344v-52.211c0-6.625-5.375-11.988-12-11.988zm-169.92-415.51c12.07 3.6016 26.375 3.6016 38.449 0l35.113 20.27-54.34 31.379-54.336-31.367zm19.223 225.65-126.68-73.141 126.68-73.141 126.68 73.141zm12 20.797 126.7-73.141v146.28l-126.7 73.137zm138.68-107.8-126.68-73.141 54.336-31.379 126.68 73.141zm-174.7-73.141-126.68 73.141-54.336-31.367 126.67-73.141zm-199.01 31.379-54.348-31.379 126.67-73.141 54.348 31.379zm60.324 62.547v146.28l-54.324-31.367v-146.28zm24 13.859 126.7 73.152v146.28l-126.7-73.152zm126.7 247.15v146.28l-126.7-73.152v-146.28zm174.7-114.73v-146.28l55.465-32.016 2.4375 39.527c-11.184 11.398-19.176 28.441-19.176 43.094 0 15.336 8.7617 23.113 20.773 20.605v40.727zm77.473-85.449c12.012-11.363 20.773-29.258 20.773-44.594 0-16.297-9.8516-24.18-23.027-20.113l-2.3398-38.195 53.809-31.066v146.28l-49.199 28.414zm-113.48-241.75-54.348 31.379-35.113-20.27c8.1719-9.1445 5.8203-20.617-7.4648-28.285-16.441-9.4922-43.094-9.4922-59.531 0-13.285 7.668-15.637 19.141-7.4648 28.285l-35.113 20.281-54.348-31.379 126.7-73.152zm-440.05 93.926v90.574c0 6.625 5.3633 12 12 12 6.6367 0 12-5.375 12-12v-76.715l54.348 31.379v146.28l-54.348-31.379v-30.562c0-6.625-5.3633-12-12-12-6.6367 0-12 5.375-12 12v16.703l-120.7-69.688v-146.28zm-120.7 104.31 120.7 69.684v146.28l-120.7-69.684zm144.7 83.547 54.348 31.379v47.051c-12.012-2.5078-20.762 5.2695-20.762 20.605 0 18.984 13.32 42.059 29.762 51.551 16.441 9.4922 29.762 1.8008 29.762-17.184 0-15.336-8.7617-33.215-20.762-44.578v-47.051l54.324 31.367v146.28l-126.68-73.141v-146.28zm301.37 334.15 126.7-73.152v139.36l-126.7 73.152zm150.7-87.012 59.484-34.344v77.93c0 3.2656 1.7656 6.2891 4.6445 7.8711 1.3555 0.75781 2.8555 1.1289 4.3555 1.1289 1.6562 0 3.3125-0.45703 4.7656-1.3672l53.426-33.371v48.371l-126.68 73.137zm77.484 27.348v-72.086l49.199-28.402v69.77zm-0.011719-99.805v-146.28l49.199-28.402v146.28zm73.199-188.54 120.7-69.684v146.28l-120.7 69.684zm-313.37-508.14 120.68 69.684-120.68 69.672-120.68-69.684zm-434.06 612.45 120.7 69.684v139.37l-120.7-69.684zm747.43 209.05v-49.512l35.988-22.477c4.2109 10.645 15.023 13.766 27.816 6.3828 16.441-9.4922 29.762-32.566 29.762-51.551s-13.32-26.676-29.762-17.184c-13.633 7.8711-25.008 25.094-28.523 41.566l-35.27 22.031v-68.629l120.7-69.684v139.37z"/>
 </g>
</svg>
