<?xml version="1.0" encoding="UTF-8"?>
<svg width="1200pt" height="1200pt" version="1.1" viewBox="0 0 1200 1200" xmlns="http://www.w3.org/2000/svg">
 <g fill="currentColor">
  <path d="m956.25 37.5h-337.5v214.12c0.023438 6.3359-3.1562 12.254-8.4531 15.734s-11.988 4.0508-17.797 1.5156c-23.195-10.227-49.984-8.0469-71.219 5.7969s-34.039 37.48-34.039 62.828 12.805 48.984 34.039 62.828 48.023 16.023 71.219 5.7969c5.8086-2.5352 12.5-1.9648 17.797 1.5156s8.4766 9.3984 8.4531 15.734v157.88h132.75c-1.0312-6.1953-1.5352-12.469-1.5-18.75 0-40.191 21.441-77.332 56.25-97.43 34.809-20.094 77.691-20.094 112.5 0 34.809 20.098 56.25 57.238 56.25 97.43 0.035156 6.2812-0.46875 12.555-1.5 18.75h189v-337.5c0-54.699-21.73-107.16-60.41-145.84-38.68-38.68-91.141-60.41-145.84-60.41z"/>
  <path d="m267.38 589.69c3.4805 5.3008 4.043 12.004 1.5 17.812-4.168 9.4531-6.3398 19.668-6.375 30 0 26.793 14.293 51.555 37.5 64.953 23.207 13.395 51.793 13.395 75 0 23.207-13.398 37.5-38.16 37.5-64.953-0.035156-10.332-2.207-20.547-6.375-30-2.5352-5.8086-1.9648-12.5 1.5156-17.797s9.3984-8.4766 15.734-8.4531h157.88v-132.75c-6.1953 1.0273-12.469 1.5312-18.75 1.5-40.191 0-77.332-21.441-97.43-56.25-20.094-34.809-20.094-77.691 0-112.5 20.098-34.809 57.238-56.25 97.43-56.25 6.2812-0.03125 12.555 0.47266 18.75 1.5v-189h-337.5c-54.699 0-107.16 21.73-145.84 60.41-38.68 38.68-60.41 91.141-60.41 145.84v337.5h214.12c6.3398-0.03125 12.266 3.1445 15.75 8.4375z"/>
  <path d="m932.62 610.31c-3.4805-5.3008-4.043-12.004-1.5-17.812 4.168-9.4531 6.3398-19.668 6.375-30 0-26.793-14.293-51.555-37.5-64.953-23.207-13.395-51.793-13.395-75 0-23.207 13.398-37.5 38.16-37.5 64.953 0.035156 10.332 2.207 20.547 6.375 30 2.5352 5.8086 1.9648 12.5-1.5156 17.797s-9.3984 8.4766-15.734 8.4531h-157.88v132.75c6.1953-1.0273 12.469-1.5312 18.75-1.5 40.191 0 77.332 21.441 97.43 56.25 20.094 34.809 20.094 77.691 0 112.5-20.098 34.809-57.238 56.25-97.43 56.25-6.2812 0.03125-12.555-0.47266-18.75-1.5v189h337.5c54.699 0 107.16-21.73 145.84-60.41 38.68-38.68 60.41-91.141 60.41-145.84v-337.5h-214.12c-6.3398 0.03125-12.266-3.1445-15.75-8.4375z"/>
  <path d="m712.5 862.5c-0.039062-25.277-12.809-48.836-33.969-62.668-21.16-13.828-47.863-16.07-71.031-5.957-5.8086 2.5352-12.5 1.9648-17.797-1.5156s-8.4766-9.3984-8.4531-15.734v-157.88h-132.75c1.0312 6.1953 1.5352 12.469 1.5 18.75 0 40.191-21.441 77.332-56.25 97.43-34.809 20.094-77.691 20.094-112.5 0-34.809-20.098-56.25-57.238-56.25-97.43-0.035156-6.2812 0.46875-12.555 1.5-18.75h-189v337.5c0 54.699 21.73 107.16 60.41 145.84 38.68 38.68 91.141 60.41 145.84 60.41h337.5v-214.12c-0.023438-6.3359 3.1562-12.254 8.4531-15.734s11.988-4.0508 17.797-1.5156c23.168 10.113 49.871 7.8711 71.031-5.957 21.16-13.832 33.93-37.391 33.969-62.668z"/>
 </g>
</svg>
