<?xml version="1.0" encoding="UTF-8"?>
<svg width="1200pt" height="1200pt" version="1.1" viewBox="0 0 1200 1200" xmlns="http://www.w3.org/2000/svg">
 <g fill="currentColor">
  <path d="m600 1095c28.469-0.089844 55.215-13.645 72.121-36.551 16.906-22.902 21.98-52.457 13.68-79.688-8.2969-27.23-28.992-48.93-55.801-58.512v-395.25c0-10.719-5.7188-20.621-15-25.98s-20.719-5.3594-30 0-15 15.262-15 25.98v395.25c-26.809 9.582-47.504 31.281-55.801 58.512-8.3008 27.23-3.2266 56.785 13.68 79.688 16.906 22.906 43.652 36.461 72.121 36.551zm0-120c7.957 0 15.586 3.1602 21.215 8.7852 5.625 5.6289 8.7852 13.258 8.7852 21.215s-3.1602 15.586-8.7852 21.215c-5.6289 5.625-13.258 8.7852-21.215 8.7852s-15.586-3.1602-21.215-8.7852c-5.625-5.6289-8.7852-13.258-8.7852-21.215s3.1602-15.586 8.7852-21.215c5.6289-5.625 13.258-8.7852 21.215-8.7852z"/>
  <path d="m510 770.14v-155.14c0-10.719-5.7188-20.621-15-25.98s-20.719-5.3594-30 0-15 15.262-15 25.98v155.14c-0.027344 7.9492-3.1875 15.57-8.7891 21.211l-42.512 42.508c-25.84-12.383-56.027-11.77-81.348 1.6523-25.32 13.422-42.766 38.062-47.02 66.402-4.2539 28.34 5.1914 57.016 25.457 77.277 20.262 20.266 48.941 29.711 77.277 25.457 28.34-4.2539 52.98-21.699 66.402-47.02 13.426-25.32 14.035-55.504 1.6523-81.348l42.512-42.512h-0.003906c16.938-16.836 26.434-39.746 26.371-63.629zm-150 174.86c-7.957 0-15.586-3.1602-21.215-8.7852-5.625-5.6289-8.7852-13.258-8.7852-21.215s3.1602-15.586 8.7852-21.215c5.6289-5.625 13.258-8.7852 21.215-8.7852s15.586 3.1602 21.215 8.7852c5.625 5.6289 8.7852 13.258 8.7852 21.215s-3.1602 15.586-8.7852 21.215c-5.6289 5.625-13.258 8.7852-21.215 8.7852z"/>
  <path d="m840 1005c27.402 0.074219 53.344-12.336 70.48-33.719s23.598-49.406 17.551-76.133c-6.043-26.727-23.934-49.242-48.602-61.172-24.668-11.93-53.426-11.969-78.129-0.11328l-42.512-42.512v0.003907c-5.6016-5.6406-8.7617-13.262-8.7891-21.211v-155.14c0-10.719-5.7188-20.621-15-25.98s-20.719-5.3594-30 0-15 15.262-15 25.98v155.14c-0.0625 23.883 9.4336 46.793 26.371 63.629l42.512 42.512h-0.003906c-13.398 27.855-11.527 60.648 4.9531 86.801 16.48 26.148 45.258 41.984 76.168 41.914zm30-90c0 7.957-3.1602 15.586-8.7852 21.215-5.6289 5.625-13.258 8.7852-21.215 8.7852s-15.586-3.1602-21.215-8.7852c-5.625-5.6289-8.7852-13.258-8.7852-21.215s3.1602-15.586 8.7852-21.215c5.6289-5.625 13.258-8.7852 21.215-8.7852s15.586 3.1602 21.215 8.7852c5.625 5.6289 8.7852 13.258 8.7852 21.215z"/>
  <path d="m195 795h165c10.719 0 20.621-5.7188 25.98-15s5.3594-20.719 0-30-15.262-15-25.98-15h-165c-7.957 0-15.586-3.1602-21.215-8.7852-5.625-5.6289-8.7852-13.258-8.7852-21.215v-390h870v390c0 7.957-3.1602 15.586-8.7852 21.215-5.6289 5.625-13.258 8.7852-21.215 8.7852h-165c-10.719 0-20.621 5.7188-25.98 15s-5.3594 20.719 0 30 15.262 15 25.98 15h165c23.859-0.027344 46.738-9.5195 63.609-26.391s26.363-39.75 26.391-63.609v-510c-0.027344-23.859-9.5195-46.738-26.391-63.609s-39.75-26.363-63.609-26.391h-810c-23.859 0.027344-46.738 9.5195-63.609 26.391s-26.363 39.75-26.391 63.609v510c0.027344 23.859 9.5195 46.738 26.391 63.609s39.75 26.363 63.609 26.391zm0-630h810c7.957 0 15.586 3.1602 21.215 8.7852 5.625 5.6289 8.7852 13.258 8.7852 21.215v60h-870v-60c0-7.957 3.1602-15.586 8.7852-21.215 5.6289-5.625 13.258-8.7852 21.215-8.7852z"/>
  <path d="m240 210c0 16.57-13.43 30-30 30s-30-13.43-30-30 13.43-30 30-30 30 13.43 30 30"/>
  <path d="m315 210c0 16.57-13.43 30-30 30s-30-13.43-30-30 13.43-30 30-30 30 13.43 30 30"/>
  <path d="m390 210c0 16.57-13.43 30-30 30s-30-13.43-30-30 13.43-30 30-30 30 13.43 30 30"/>
 </g>
</svg>
