<?xml version="1.0" encoding="UTF-8"?>
<svg width="1200pt" height="1200pt" version="1.1" viewBox="0 0 1200 1200" xmlns="http://www.w3.org/2000/svg">
    <g fill="currentColor">
        <path d="m1071.1 732.66c0-52.125-42.375-94.5-94.5-94.5h-105.75c-52.125 0-94.5 42.375-94.5 94.5v34.875c0 8.0625 6.5156 14.625 14.625 14.625h265.55c8.0625 0 14.625-6.5156 14.625-14.625zm-29.25 20.297h-236.29v-20.25c0-36 29.297-65.297 65.297-65.297h105.75c36 0 65.297 29.297 65.297 65.297zm-118.12-121.36c45.516 0 82.547-37.031 82.547-82.547 0-45.516-37.031-82.547-82.547-82.547s-82.547 37.031-82.547 82.547c0 45.516 37.031 82.547 82.547 82.547zm0-135.84c29.391 0 53.297 23.906 53.297 53.297s-23.906 53.297-53.297 53.297-53.297-23.906-53.297-53.297 23.906-53.297 53.297-53.297zm-500.11-104.16v-34.875c0-52.125-42.375-94.5-94.5-94.5h-105.8c-52.125 0-94.5 42.375-94.5 94.5v34.875c0 8.0625 6.5156 14.625 14.625 14.625h265.55c8.0625 0 14.625-6.5625 14.625-14.625zm-29.25-14.625h-236.29v-20.25c0-36 29.297-65.297 65.297-65.297h105.75c36 0 65.297 29.297 65.297 65.297zm-118.17-121.31c45.516 0 82.547-37.031 82.547-82.547s-37.031-82.547-82.547-82.547-82.547 37.031-82.547 82.547c0.046875 45.516 37.078 82.547 82.547 82.547zm0-135.84c29.391 0 53.297 23.906 53.297 53.297s-23.906 53.297-53.297 53.297-53.297-23.906-53.297-53.297 23.906-53.297 53.297-53.297zm52.875 796.82h-105.75c-52.125 0-94.5 42.375-94.5 94.5v34.875c0 8.0625 6.5156 14.625 14.625 14.625h265.55c8.0625 0 14.625-6.5156 14.625-14.625v-34.875c0-52.125-42.422-94.5-94.547-94.5zm65.297 114.75h-236.29v-20.25c0-36 29.297-65.297 65.297-65.297h105.75c36 0 65.297 29.297 65.297 65.297zm-118.17-121.31c45.516 0 82.547-37.031 82.547-82.547s-37.031-82.547-82.547-82.547-82.547 37.031-82.547 82.547c0.046875 45.516 37.078 82.547 82.547 82.547zm0-135.84c29.391 0 53.297 23.906 53.297 53.297 0 29.391-23.906 53.297-53.297 53.297s-53.297-23.906-53.297-53.297c0-29.391 23.906-53.297 53.297-53.297zm778.64 211.22-41.438-119.2c85.359-35.344 145.6-119.53 145.6-217.5 0-129.74-105.56-235.26-235.26-235.26-81.516 0-153.42 41.672-195.66 104.77l-241.45-140.21c15.938-31.688 24.891-67.453 24.891-105.28 0-24.281-3.7031-47.672-10.547-69.703l118.22-44.906c8.0156 12.984 19.688 23.297 33.891 29.672 10.078 4.5469 20.766 6.7969 31.5 6.7969 9.2344 0 18.469-1.6875 27.328-5.0625 19.219-7.2656 34.406-21.609 42.844-40.359s9.0469-39.656 1.7344-58.828c-15-39.609-59.531-59.625-99.188-44.578-19.219 7.3125-34.406 21.656-42.844 40.359-6.375 14.203-8.2969 29.672-5.625 44.672l-118.27 44.906c-37.031-81.422-119.2-138.24-214.36-138.24-129.71 0-235.26 105.56-235.26 235.26 0 124.82 97.734 227.26 220.69 234.84v184.78c-122.95 7.5938-220.69 109.97-220.69 234.84 0 129.71 105.56 235.26 235.26 235.26 103.55 0 191.72-67.266 223.08-160.4l122.16 32.719c-1.125 15.234 2.3438 30.422 10.125 43.922 10.266 17.766 26.859 30.516 46.688 35.859 6.6562 1.7812 13.312 2.625 19.875 2.625 33.984 0 65.109-22.688 74.344-57 10.969-40.969-13.406-83.203-54.375-94.219-36.141-9.7031-73.266 8.1562-89.062 40.641l-122.16-32.719c3.0469-15.094 4.6406-30.703 4.6406-46.688 0-27.844-4.875-54.562-13.781-79.359l216.05-92.906c38.859 76.547 118.36 129.1 209.9 129.1 21.469 0 42.281-2.9062 62.016-8.2969l41.484 119.34c-13.219 7.6406-23.859 18.984-30.656 33.047-8.9531 18.469-10.172 39.375-3.4219 58.781 11.016 31.734 40.875 51.656 72.703 51.656 8.3438 0 16.875-1.3594 25.172-4.2656 19.406-6.75 35.016-20.672 43.969-39.141 8.9531-18.469 10.172-39.375 3.4219-58.781-12.188-35.438-47.812-56.109-83.531-50.953zm-387.14-912.32c5.5312-2.1094 11.25-3.0938 16.875-3.0938 19.266 0 37.406 11.719 44.625 30.75 4.5469 11.906 4.125 24.891-1.0781 36.469-5.2031 11.625-14.672 20.531-26.578 25.031-11.906 4.5469-24.891 4.125-36.469-1.0781-11.625-5.2031-20.531-14.672-25.031-26.578-9.375-24.562 3.0469-52.172 27.656-61.5zm-15.562 954.79c5.7188-21.281 25.031-35.344 46.078-35.344 4.0781 0 8.2031 0.51562 12.328 1.6406 25.406 6.7969 40.547 33 33.703 58.406-6.7969 25.406-33 40.547-58.406 33.703-12.281-3.2812-22.594-11.203-28.969-22.219s-8.0625-23.859-4.7344-36.188zm-582-755.16c0-113.62 92.438-206.06 206.06-206.06s206.06 92.438 206.06 206.06c0.046875 113.67-92.438 206.11-206.06 206.11s-206.06-92.438-206.06-206.11zm206.06 860.53c-113.62 0-206.06-92.438-206.06-206.06 0-113.67 92.438-206.11 206.06-206.11s206.06 92.438 206.06 206.06c0.046875 113.67-92.438 206.11-206.06 206.11zm209.95-312.28c-36.797-72.422-109.97-123.37-195.32-128.63v-184.78c75.422-4.6406 141.37-45 181.08-104.3l241.4 140.16c-15.938 31.688-24.891 67.453-24.891 105.28 0 27.844 4.875 54.562 13.781 79.359zm231.47-172.26c0-113.62 92.438-206.06 206.06-206.06s206.06 92.438 206.06 206.06c0.046875 113.62-92.391 206.06-206.02 206.06s-206.11-92.438-206.11-206.06zm391.13 433.6c-5.5312 11.484-15.234 20.109-27.281 24.281-24.844 8.625-52.078-4.5469-60.703-29.391-4.1719-12.047-3.4219-24.984 2.1094-36.469s15.234-20.109 27.281-24.281c5.1562-1.7812 10.453-2.6719 15.609-2.6719 19.734 0 38.25 12.375 45.094 32.016 4.2188 12.141 3.4688 25.078-2.1094 36.516z"/>
    </g>
</svg>
