<?xml version="1.0" encoding="UTF-8"?>
<svg enable-background="new 0 0 66 66" version="1.1" viewBox="0 0 66 66" xml:space="preserve" xmlns="http://www.w3.org/2000/svg"><g fill="currentColor"><path d="m50.6 0.5h-47c-1.7 0-3.1 1.4-3.1 3.1v6.1h53.3v-6.1c0-1.7-1.4-3.1-3.2-3.1zm-43 6.5c-1 0-1.9-0.8-1.9-1.9s0.8-1.9 1.9-1.9 1.9 0.8 1.9 1.9-0.8 1.9-1.9 1.9zm7.5 0c-1 0-1.9-0.8-1.9-1.9s0.8-1.9 1.9-1.9c1 0 1.9 0.8 1.9 1.9s-0.9 1.9-1.9 1.9zm7.4 0c-1 0-1.9-0.8-1.9-1.9s0.8-1.9 1.9-1.9c1 0 1.9 0.8 1.9 1.9s-0.9 1.9-1.9 1.9zm26-0.9h-18.7c-0.6 0-1-0.4-1-1s0.4-1 1-1h18.7c0.6 0 1 0.4 1 1s-0.4 1-1 1z"/><path d="m0.5 11.7v38.9c0 1.7 1.4 3.1 3.1 3.1h33.4v-27c0-2.9 2.3-5.2 5.2-5.2h11.6v-9.8h-53.3zm19.8 6.6c-1-0.9 0.3-2.4 1.3-1.5l4.1 3.6c0.2 0.2 0.3 0.5 0.3 0.8s-0.1 0.6-0.3 0.8l-4.1 3.6c-1 0.9-2.3-0.7-1.3-1.5l3.3-2.8-3.3-3zm-6.9 7.2 3.6-9.4c0.2-0.5 0.8-0.8 1.3-0.6s0.8 0.8 0.6 1.3l-3.6 9.4c-0.5 1.2-2.4 0.5-1.9-0.7zm-6.7-5.1 4.1-3.6c0.4-0.4 1-0.3 1.4 0.1s0.3 1.1-0.1 1.4l-3.3 2.8 3.3 2.8c0.4 0.4 0.5 1 0.1 1.4s-1 0.5-1.4 0.1l-4.1-3.6c-0.2-0.2-0.3-0.5-0.3-0.8 0-0.1 0.1-0.4 0.3-0.6zm27.4 25.9h-26.7c-0.5 0-1-0.4-1-1 0-0.5 0.5-1 1-1h26.7c0.6 0 1 0.5 1 1 0 0.6-0.5 1-1 1zm0-6.8h-26.7c-0.5 0-1-0.4-1-1 0-0.5 0.5-1 1-1h26.7c0.6 0 1 0.5 1 1 0 0.6-0.5 1-1 1zm0-6.8h-26.7c-0.5 0-1-0.4-1-1s0.5-1 1-1h26.7c0.6 0 1 0.4 1 1 0 0.5-0.5 1-1 1z"/><path d="m65.5 30.7v-4c0-1.8-1.4-3.2-3.2-3.2h-20.1c-1.8 0-3.2 1.4-3.2 3.2v4h26.5zm-16.3-3.6h6.2c0.6 0 1 0.4 1 1s-0.4 1-1 1h-6.2c-0.6 0-1-0.4-1-1 0-0.5 0.4-1 1-1z"/><path d="m52.3 46.7c1.2 0 2.2-1 2.2-2.2s-1-2.2-2.2-2.2-2.2 1-2.2 2.2c0 0.6 0.2 1.1 0.6 1.6 0.4 0.4 1 0.6 1.6 0.6z"/><path d="m46.6 45.9c0.1 0.6 0.4 1.1 0.7 1.7 0.2 0.3 0.2 0.8 0 1.1l-0.5 0.7 0.6 0.6 0.7-0.5c0.3-0.2 0.8-0.2 1.1 0 0.5 0.3 1.1 0.6 1.7 0.7 0.4 0.1 0.7 0.4 0.8 0.8l0.1 0.9h0.9l0.2-0.9c0.1-0.4 0.4-0.7 0.8-0.8 0.6-0.1 1.2-0.4 1.7-0.7 0.3-0.2 0.8-0.2 1.1 0l0.7 0.5 0.6-0.6-0.5-0.7c-0.2-0.3-0.2-0.8 0-1.1 0.3-0.5 0.6-1.1 0.7-1.7 0.1-0.4 0.4-0.7 0.8-0.8l0.9-0.1v-0.9l-1-0.1c-0.4-0.1-0.7-0.4-0.8-0.8-0.1-0.6-0.4-1.1-0.7-1.7-0.2-0.3-0.2-0.8 0-1.1l0.5-0.7-0.6-0.6-0.7 0.5c-0.3 0.2-0.8 0.2-1.1 0-0.5-0.3-1.1-0.6-1.7-0.7-0.4-0.1-0.7-0.4-0.8-0.8l-0.1-0.9h-0.9l-0.2 0.9c-0.1 0.4-0.4 0.7-0.8 0.8-0.6 0.1-1.1 0.4-1.7 0.7-0.3 0.2-0.8 0.2-1.1 0l-0.5-0.6-0.6 0.6 0.5 0.7c0.2 0.3 0.2 0.8 0 1.1-0.3 0.5-0.6 1.1-0.7 1.7-0.1 0.4-0.4 0.7-0.8 0.7l-0.9 0.2v0.9l0.8 0.2c0.4 0.1 0.7 0.4 0.8 0.8zm5.7-5.6c2.3 0 4.2 1.9 4.2 4.2s-1.9 4.2-4.2 4.2-4.2-1.9-4.2-4.2 1.9-4.2 4.2-4.2z"/><path d="m39 58.4v4c0 1.8 1.4 3.2 3.2 3.2h20.1c1.8 0 3.2-1.4 3.2-3.2v-4h-26.5zm16.4 3.5h-6.2c-0.6 0-1-0.4-1-1s0.4-1 1-1h6.2c0.6 0 1 0.4 1 1s-0.5 1-1 1z"/><path d="m65.5 56.4v-23.7h-26.5v23.7h26.5zm-21.7-14.2 1.1-0.2c0.1-0.4 0.3-0.7 0.4-1l-0.6-0.9c-0.3-0.4-0.2-0.9 0.1-1.3l1.8-1.8c0.3-0.3 0.9-0.4 1.3-0.1l0.9 0.6c0.3-0.2 0.7-0.3 1-0.4l0.2-1.1c0.1-0.5 0.5-0.8 1-0.8h2.6c0.5 0 0.9 0.4 1 0.8l0.2 1.1c0.4 0.1 0.7 0.3 1 0.4l0.9-0.6c0.4-0.3 0.9-0.2 1.3 0.1l1.8 1.8c0.3 0.3 0.4 0.9 0.1 1.3l-0.6 0.9c0.2 0.3 0.3 0.7 0.4 1l1.1 0.2c0.5 0.1 0.8 0.5 0.8 1v2.6c0 0.5-0.4 0.9-0.8 1l-1.1 0.2c-0.1 0.4-0.3 0.7-0.4 1l0.6 0.9c0.3 0.4 0.2 0.9-0.1 1.3l-1.8 1.8c-0.3 0.3-0.9 0.4-1.3 0.1l-0.9-0.6c-0.3 0.2-0.7 0.3-1 0.4l-0.3 1.1c-0.1 0.5-0.5 0.8-1 0.8h-2.6c-0.5 0-0.9-0.4-1-0.8l-0.2-1.1c-0.4-0.1-0.7-0.3-1-0.4l-0.9 0.6c-0.4 0.3-0.9 0.2-1.3-0.1l-1.8-1.8c-0.3-0.3-0.4-0.9-0.1-1.3l0.6-0.9c-0.2-0.3-0.3-0.7-0.4-1l-1.1-0.2c-0.5-0.1-0.8-0.5-0.8-1v-2.6c0.1-0.5 0.4-0.9 0.9-1z"/></g></svg>
