<?xml version="1.0" encoding="UTF-8"?>
<svg width="1200pt" height="1200pt" version="1.1" viewBox="0 0 1200 1200" xmlns="http://www.w3.org/2000/svg">
 <g fill="currentColor">
  <path d="m312.34 178.57c-28.445 0-51.582 23.141-51.582 51.582v503.58c0 28.445 23.141 51.582 51.582 51.582h578.11c28.441 0 51.582-23.141 51.582-51.582v-503.58c0-28.445-23.141-51.582-51.582-51.582zm383.85 143.85v87.598h-189.59v-87.598zm217.71 0v87.598h-189.59v-87.598zm-407.3 319.05v-87.598h189.59v87.598zm189.59 28.125v87.602h-189.59v-87.602zm0-143.85h-189.59v-87.602h189.59zm28.125-87.602h189.59v87.602h-189.59zm-245.84 87.602h-189.59v-87.602h189.59zm-189.59 28.125h189.59v87.598h-189.59zm435.43 0h189.59v87.598h-189.59zm-245.84-143.85h-189.59v-87.598h189.59zm-189.59 323.71v-64.141h189.59v87.602h-166.13c-12.934 0-23.457-10.523-23.457-23.457zm601.56 23.457h-166.13v-87.602h189.59v64.141c0 12.934-10.523 23.457-23.457 23.457zm23.457-527.04v64.141l-625.02 0.003906v-64.141c0-12.934 10.523-23.457 23.457-23.457h578.11c12.934 0 23.457 10.523 23.457 23.457z"/>
  <path d="m1041.8 285.25c0 7.7695-6.2969 14.062-14.062 14.062-7.7695 0-14.062-6.293-14.062-14.062 0-7.7656 6.293-14.062 14.062-14.062 7.7656 0 14.062 6.2969 14.062 14.062"/>
  <path d="m1041.8 67c0-31.773-25.848-57.625-57.625-57.625h-768.28c-31.773 0-57.625 25.848-57.625 57.625v1072.1c0 16.918 8.2578 32.84 22.086 42.586 8.8945 6.2695 19.418 9.5078 30.035 9.5078 22.789-4.1172 724.73-96.566 746.62-99.457 46.75-1.2812 84.781-41.078 84.781-88.711v-661.54c0-7.7656-6.2969-14.062-14.062-14.062s-14.062 6.2969-14.062 14.062v661.54c0 32.543-25.762 59.727-57.426 60.598-16.129 0.44922-31.344-5.4922-42.875-16.715-11.535-11.223-17.891-26.27-17.891-42.359v-64.719c0-4.5742-2.2227-8.8594-5.9609-11.492-3.7344-2.6367-8.5234-3.2852-12.828-1.75l-658.11 235.04c-0.03125 0.011719-0.066406 0.023437-0.097656 0.035156l-0.046875 0.015625c-7.4375 2.6562-15.414 1.5742-21.875-2.9805-6.4609-4.5508-10.164-11.695-10.164-19.598l0.003907-1072.1c0-16.266 13.234-29.5 29.5-29.5h768.27c16.266 0 29.5 13.234 29.5 29.5v162c0 7.7656 6.2969 14.062 14.062 14.062s14.062-6.2969 14.062-14.062v-162zm-148.04 1000.1c1.418 1.3789 2.8867 2.6875 4.3789 3.957l-545.11 72.453 514.33-183.69v44.762c0 23.75 9.375 45.953 26.402 62.52z"/>
 </g>
</svg>
