<?xml version="1.0" encoding="UTF-8"?>
<svg width="1200pt" height="1200pt" version="1.1" viewBox="0 0 1200 1200" xmlns="http://www.w3.org/2000/svg">
    <g fill="currentColor">
        <path d="m1043.7 721.92c-1.5938 5.0898-0.35156 10.645 3.2578 14.57 3.6094 3.9258 9.043 5.6289 14.25 4.4648 5.2031-1.1641 9.3945-5.0156 10.988-10.105 0.84375-2.6445 1.6406-5.293 2.3984-7.9453h0.003906c1.5-5.1172 0.16016-10.645-3.5156-14.504-3.6797-3.8594-9.1367-5.4609-14.32-4.207-5.1797 1.2578-9.2969 5.1836-10.801 10.297-0.73437 2.5273-1.4766 4.9648-2.2617 7.4258zm-437.54 154.46c61.086 1.6016 119.13 26.992 161.77 70.766 42.641 43.773 66.504 102.46 66.504 163.57h-468.84c0-61.109 23.863-119.8 66.504-163.57 42.641-43.773 100.69-69.164 161.77-70.766-40.223-2.1523-76.375-25.234-95.258-60.816-18.887-35.582-17.738-78.457 3.0234-112.98 20.758-34.52 58.094-55.633 98.375-55.633s77.617 21.113 98.375 55.633c20.762 34.52 21.91 77.395 3.0234 112.98-18.883 35.582-55.035 58.664-95.258 60.816zm316.91 23.168h-0.003907c55.051 1.4453 107.36 24.328 145.78 63.773 38.422 39.445 59.926 92.332 59.926 147.4h-264.49c0.066406-64.242-23.34-126.3-65.824-174.49 33.52-22.914 72.953-35.637 113.55-36.629-36.246-1.9414-68.82-22.742-85.836-54.801-17.016-32.062-15.984-70.695 2.7227-101.8 18.707-31.105 52.348-50.133 88.645-50.133s69.938 19.027 88.645 50.133c18.707 31.105 19.742 69.738 2.7266 101.8-17.016 32.059-49.594 52.859-85.84 54.801zm-640.57-206.73c-36.281 0.023438-69.898 19.055-88.59 50.148-18.695 31.098-19.727 69.715-2.7266 101.77 17.004 32.051 49.555 52.852 85.785 54.816-55.051 1.4453-107.36 24.328-145.78 63.773-38.422 39.445-59.926 92.332-59.926 147.4h264.48c-0.074218-64.242 23.336-126.3 65.824-174.49-33.516-22.914-72.945-35.637-113.54-36.629 36.23-1.9648 68.781-22.766 85.781-54.816 17.004-32.051 15.969-70.668-2.7227-101.77-18.691-31.094-52.309-50.125-88.59-50.148zm401.52-400.39c-10.07-2.7578-18.039-10.465-21.133-20.438l-3.3594-10.395-7.0117-21.59c-1.9883-6.3359-5.9609-11.867-11.336-15.77-5.3711-3.9023-11.859-5.9766-18.5-5.9062h-45.309c-6.6445-0.070313-13.133 2-18.508 5.9023-5.375 3.9023-9.3516 9.4336-11.34 15.773l-7.0117 21.551-3.3594 10.395c-3.082 9.9883-11.051 17.711-21.133 20.477-21.523 6.2148-42.285 14.82-61.895 25.652-9.082 5.1875-20.184 5.375-29.434 0.49609l-9.7656-4.9648-20.211-10.293 0.003907-0.003906c-5.8867-3.0742-12.605-4.1758-19.164-3.1328-6.5586 1.0391-12.605 4.1602-17.254 8.9062l-15.965 16.016-16.031 16.031c-4.7422 4.6484-7.8633 10.699-8.9023 17.262-1.0391 6.5586 0.058594 13.277 3.1328 19.168l10.281 20.211 4.9766 9.7773c4.8945 9.2383 4.7148 20.344-0.48047 29.418-10.824 19.613-19.426 40.371-25.641 61.895-2.7539 10.078-10.469 18.047-20.453 21.121l-10.395 3.3867-21.562 6.9961c-6.3359 1.9883-11.863 5.9648-15.766 11.336-3.9023 5.375-5.9766 11.859-5.9102 18.5v45.336-0.003906c-0.066406 6.6406 2 13.121 5.8984 18.496 3.8984 5.3711 9.4219 9.3477 15.754 11.34l21.562 6.9961 10.383 3.3867h-0.003906c9.5703 2.9414 17.082 10.391 20.098 19.934 41.344 8.5 76.219 36.066 94.039 74.328 17.816 38.258 16.469 82.695-3.6328 119.81l15.258-7.793 9.7891-4.9648c9.2422-4.8828 20.336-4.6953 29.406 0.49219 13.863 7.6523 28.309 14.203 43.199 19.59 0.83203-0.35547 1.668-0.71875 2.5273-1.0469-21.535-20.668-36.148-47.488-41.844-76.785-5.6953-29.301-2.1875-59.645 10.039-86.871-31.047-34.25-47.559-79.23-46.051-125.43 1.5117-46.207 20.93-90.012 54.148-122.16 33.219-32.152 77.637-50.125 123.86-50.125s90.645 17.973 123.86 50.125c33.219 32.148 52.637 75.953 54.148 122.16 1.5078 46.203-15.004 91.184-46.051 125.43 12.207 27.23 15.707 57.57 10.012 86.863-5.6914 29.297-20.297 56.117-41.816 76.793 0.85938 0.32812 1.6914 0.69531 2.5273 1.0469 14.891-5.3906 29.336-11.945 43.199-19.602 9.0742-5.1797 20.168-5.3594 29.406-0.48047l9.7656 4.9648 15.285 7.793h-0.003906c-20.105-37.113-21.457-81.555-3.6367-119.82 17.824-38.266 52.707-65.828 94.055-74.32 3.0117-9.5469 10.52-17.008 20.086-19.957l10.383-3.3711 21.551-6.9961-0.003907-0.003906c6.3398-1.9844 11.871-5.957 15.777-11.332 3.9062-5.3711 5.9805-11.859 5.9102-18.504v-45.371c0.066407-6.6445-2.0039-13.129-5.9102-18.504-3.9062-5.3711-9.4375-9.3477-15.777-11.332l-21.551-6.9961-10.395-3.3867c-9.9727-3.0898-17.684-11.051-20.449-21.121-6.2109-21.523-14.812-42.285-25.641-61.895-5.1914-9.0703-5.375-20.168-0.49609-29.406l4.9648-9.7773 10.309-20.211c3.0742-5.8867 4.1719-12.609 3.1289-19.168-1.0391-6.5586-4.1602-12.609-8.9023-17.262l-16.055-15.992-16.031-16.016h0.003906c-4.6484-4.7461-10.695-7.8672-17.254-8.9062-6.5586-1.043-13.277 0.058594-19.164 3.1328l-20.211 10.293-9.7656 4.9648v0.003906c-9.2383 4.875-20.328 4.6953-29.406-0.48047-19.605-10.844-40.367-19.453-61.895-25.668zm-257.05-141.17c7.9336-3.1562 15.934-6.1055 24-8.8438 8.1484-2.7266 16.293-5.2422 24.57-7.5781 8.2734-2.3359 16.699-4.3438 25.16-6.2148 8.4648-1.8711 17.039-3.4375 25.656-4.8242 8.6133-1.3906 17.395-2.5273 26.148-3.4219 4.9141-0.48047 9.8789-0.96094 14.777-1.2617l-0.003907-0.003907c3.9922-0.22266 7.7266-2.0352 10.367-5.0312 2.6445-3 3.9727-6.9297 3.6953-10.918-0.27734-3.9844-2.1445-7.6953-5.1797-10.293-3.0352-2.6016-6.9844-3.875-10.965-3.543-4.1797 0.25391-8.3984 0.65625-12.633 1.0469-8.3125 0.80859-16.535 1.793-24.809 2.9805-6.1406 0.92188-12.227 1.9336-18.34 3.043-10.105 1.9062-20.047 4.0664-30.062 6.543-2.9648 0.75781-5.9102 1.5273-8.8438 2.3125v0.003906c-18.613 5.0352-36.914 11.164-54.809 18.355-4.8203 2.0898-8.1836 6.5586-8.8633 11.77-0.67969 5.207 1.4297 10.391 5.5547 13.645s9.6523 4.1055 14.562 2.2344zm635.59 478.22c-0.39062 3.9375 0.80078 7.8711 3.3086 10.93 2.5078 3.0625 6.1289 5 10.07 5.3906 3.9375 0.39063 7.8672-0.80078 10.93-3.3086 3.0586-2.5078 5-6.1289 5.3867-10.066 0.59375-6.3164 1.1367-12.633 1.543-19.023 0.22656-3.8906 0.41406-7.7812 0.55469-11.672 0.19922-5.3281-2.4609-10.355-6.9727-13.191-4.5156-2.8359-10.199-3.0469-14.914-0.55859-4.7109 2.4922-7.7383 7.3086-7.9336 12.637-0.36328 9.6094-1.0195 19.203-1.9688 28.789v0.074219zm-2.7539-115.36c0.80469 5.2734 4.3633 9.7148 9.332 11.656 4.9688 1.9375 10.598 1.0781 14.762-2.2578 4.1641-3.332 6.2305-8.6367 5.4258-13.906-1.6406-10.938-3.625-21.699-5.9375-32.516-1.7812-8.0195-3.7148-15.902-5.8086-23.836-2.0977-7.9336-4.457-15.602-6.9609-23.355-2.5-7.7539-5.1914-15.285-8.0586-22.863-2.8672-7.5781-5.8984-14.93-9.1211-22.332-3.1719-7.1992-6.4688-14.273-9.9414-21.32v-0.003906c-2.3711-4.7734-7.1094-7.918-12.43-8.2539-5.3203-0.33203-10.414 2.1992-13.363 6.6367-2.9492 4.4414-3.3047 10.121-0.93359 14.895 4.5234 9.1719 8.7031 18.379 12.633 27.789 3.2578 7.9062 6.3164 15.801 9.1562 23.848 2.1992 6.3164 4.2578 12.633 6.2148 18.949 2.7656 9.207 5.2422 18.355 7.4922 27.699 0.65625 2.8164 1.2617 5.6211 1.9219 8.4375 2.1992 10.219 4.0547 20.363 5.5977 30.684zm-88.57-211.12-2.0859-2.7422-1.707-2.2109-1.7188-2.1992-1.7305-2.1992-1.7422-2.1719-1.7539-2.1719-1.7812-2.1602-1.7695-2.1484-1.793-2.1328-2.0078-2.3477c-3.4922-4.0273-4.5664-9.6172-2.8203-14.652 1.7422-5.0391 6.043-8.7617 11.277-9.7695 5.2383-1.0117 10.613 0.85156 14.102 4.8828l2.2227 2.6133 1.9219 2.2734 1.9062 2.2852 1.8555 2.3008 1.8945 2.3008 1.8438 2.3242 1.8438 2.3359 1.832 2.3359 1.8047 2.3477 2.1992 2.8789 0.003906 0.003906c2.4961 3.1484 3.6172 7.168 3.1094 11.152-0.50391 3.9844-2.5938 7.5977-5.7969 10.023-3.1992 2.4258-7.2461 3.457-11.219 2.8633-3.9727-0.58984-7.5391-2.7617-9.8906-6.0156zm-80.336-82.789c-8.6133-6.8828-17.332-13.391-26.375-19.691-7.7188-5.3164-15.473-10.359-23.48-15.258-6.418-3.8672-12.871-7.5781-19.465-11.191-7.4531-4.0156-14.93-7.8203-22.574-11.48-10.887-5.0508-21.816-9.8008-33.031-14.109l-0.003906-0.003907c-3.793-1.3359-6.8828-4.1484-8.5742-7.7969-1.6914-3.6523-1.8398-7.8281-0.41016-11.586 1.4297-3.7617 4.3164-6.7852 8.0039-8.3867 3.6875-1.6055 7.8672-1.6523 11.59-0.13281 9.1445 3.5117 18.09 7.2617 27.031 11.266 3.6367 1.6836 7.2656 3.3672 10.887 5.0508 7.1992 3.5 14.262 7.125 21.336 10.926 7.8945 4.3203 15.586 8.8438 23.254 13.465 7.668 4.625 15.059 9.5859 22.445 14.68 9.5625 6.6836 18.82 13.566 27.941 20.867l0.003907 0.003906c4.1719 3.3203 6.2578 8.6133 5.4688 13.887-0.78906 5.2695-4.332 9.7227-9.293 11.676-4.957 1.9531-10.586 1.1133-14.758-2.207zm-208.4-94.938c5.2266 0.88281 10.527-1.0703 13.934-5.1328 3.4023-4.0625 4.3945-9.625 2.6133-14.617-1.7852-4.9883-6.0859-8.6602-11.293-9.6445l-3.2461-0.55469-3.0547-0.56641-3.043-0.49219-3.082-0.48047-3.0703-0.46875-6.1641-0.85938-3.0938-0.40234-3.0938-0.39062-2.6016-0.30469h-0.003906c-3.9844-0.55078-8.0195 0.52734-11.195 2.9922-3.1758 2.4609-5.2266 6.1016-5.6836 10.098-0.45703 3.9922 0.71484 8.0039 3.2539 11.121 2.5352 3.1211 6.2227 5.082 10.227 5.4453l2.4375 0.28906 2.8945 0.35547 2.918 0.37891 5.7891 0.80469 2.8789 0.44141 5.7578 0.90625 2.8789 0.49219 3.043 0.53125zm-332.59 65.672c3.4531-2.082 5.9141-5.4727 6.8281-9.3984 0.91406-3.9258 0.19922-8.0547-1.9766-11.445-2.1758-3.3945-5.6328-5.7617-9.582-6.5664-3.9492-0.80859-8.0547 0.019531-11.387 2.2852l-2.8945 1.8711-2.5273 1.6289-2.5273 1.6562-2.4648 1.6562-2.5273 1.668-2.5273 1.6914-2.4492 1.707-2.4258 1.7188-2.4141 1.7305-2.8945 2.0859 0.007812-0.007813c-4.1172 3.2305-6.2422 8.3828-5.6016 13.574 0.63672 5.1953 3.9492 9.6758 8.7305 11.809 4.7773 2.1328 10.324 1.6094 14.621-1.3828l2.5273-1.8945 2.2617-1.6172 2.5234-1.5898 2.2852-1.6055 2.3242-1.5898 2.3008-1.5664 2.3125-1.5547 2.3359-1.5547 2.3477-1.5273 2.7539-1.7812zm-88.75 73.691c-6.2148 6.6445-12.191 13.402-18.039 20.363-2.3867 2.8672-4.7227 5.7461-7.0469 8.6523-6.3906 8.0859-12.453 16.219-18.34 24.668-4.2578 6.1758-8.3242 12.367-12.316 18.707-4.4453 7.1758-8.6641 14.387-12.758 21.777-4.4961 8.1836-8.7148 16.422-12.758 24.832v0.003906c-2.2852 4.832-6.9766 8.0742-12.301 8.5117-5.3281 0.4375-10.484-2.0039-13.523-6.3984s-3.5078-10.078-1.2188-14.91c3.4219-7.1602 6.9727-14.184 10.699-21.195 2.8438-5.2656 5.7617-10.457 8.7422-15.652 5.0508-8.6133 10.293-16.977 15.801-25.262 3.8906-5.7734 7.832-11.43 11.91-17.078 5.3047-7.2109 10.699-14.223 16.332-21.172 7.3633-8.9922 14.941-17.684 22.887-26.148l0.003906 0.003906c2.6953-2.8945 6.4336-4.6016 10.387-4.7422s7.8047 1.293 10.699 3.9922c2.8984 2.6953 4.6016 6.4336 4.7422 10.387 0.14453 3.9531-1.293 7.8047-3.9883 10.699zm-110.93 200.32c1.3281-5.1719-0.20703-10.656-4.0234-14.391-3.8125-3.7344-9.332-5.1523-14.473-3.7148-5.1445 1.4375-9.1289 5.5078-10.457 10.68l-0.42969 1.6797-0.75781 2.9688-0.71875 2.9688-0.73438 2.9805-0.70703 2.9805-1.3359 6.0156-0.63281 3.0078-0.63281 3.0195-0.88281 4.3945v-0.003906c-0.83984 5.168 1.0859 10.398 5.0781 13.785 3.9961 3.3867 9.4688 4.4336 14.43 2.7617 4.9609-1.6758 8.6836-5.8242 9.8086-10.938l0.80859-4.0312 0.58203-2.8281 0.61719-2.8281 0.60547-2.8164 0.63281-2.8164 0.68359-2.8047 0.66797-2.793 0.68359-2.8047 0.70703-2.7773 0.44141-1.6914zm-15.059 114.46v3.4102c-0.027344 47.16 7.1016 94.051 21.148 139.07 1.5898 5.0859 0.34766 10.641-3.2617 14.562-3.6094 3.9258-9.0391 5.625-14.242 4.4609-5.2031-1.168-9.3906-5.0195-10.98-10.105-7.3945-23.613-12.988-47.746-16.738-72.203-3.8398-25.082-5.7695-50.418-5.7734-75.789v-3.6016c0.027344-3.957 1.6211-7.7383 4.4375-10.52s6.6211-4.3281 10.574-4.3008c3.957 0.023437 7.7422 1.6211 10.523 4.4336 2.7773 2.8164 4.3281 6.6211 4.3008 10.578z"
              fill-rule="evenodd"/>
    </g>
</svg>
