<?xml version="1.0" encoding="UTF-8"?>
<svg width="1200pt" height="1200pt" version="1.1" viewBox="0 0 1200 1200" xmlns="http://www.w3.org/2000/svg">
 <g fill="currentColor">
  <path d="m600 400.78c-52.836 0-103.51 20.988-140.87 58.352-37.363 37.359-58.352 88.031-58.352 140.87s20.988 103.51 58.352 140.87c37.359 37.363 88.031 58.352 140.87 58.352s103.51-20.988 140.87-58.352c37.363-37.359 58.352-88.031 58.352-140.87-0.0625-52.816-21.07-103.45-58.418-140.8-37.348-37.348-87.984-58.355-140.8-58.418zm-52.828 231.23c4.7188 4.1016 6.9062 10.398 5.7422 16.539-1.1602 6.1445-5.5 11.207-11.391 13.297-5.8945 2.0898-12.453 0.89453-17.227-3.1406l-52.922-45.375c-3.8945-3.3359-6.1406-8.207-6.1406-13.336s2.2461-10 6.1406-13.336l52.922-45.258c3.5352-3.0703 8.1484-4.6055 12.82-4.2617 4.668 0.34375 9.0078 2.5391 12.055 6.0938 3.0469 3.5547 4.5508 8.1797 4.1758 12.848-0.37891 4.668-2.5977 8.9922-6.1758 12.016l-37.359 31.898zm88.781-103.36-37.805 151.22c-0.95313 3.7969-3.1484 7.1719-6.2344 9.582-3.0859 2.4102-6.8867 3.7227-10.805 3.7305-1.4375 0.003906-2.8711-0.17578-4.2656-0.53906-4.5195-1.1289-8.4102-4.0078-10.809-8.0039-2.3984-3.9961-3.1133-8.7773-1.9883-13.301l37.805-151.22c1.5977-6.0117 6.25-10.73 12.238-12.41 5.9883-1.6797 12.418-0.070313 16.91 4.2305 4.4922 4.3008 6.375 10.656 4.9531 16.711zm92.672 84.68-52.922 45.375c-3.5352 3.0703-8.1484 4.6055-12.82 4.2617-4.668-0.34375-9.0078-2.5391-12.055-6.0938-3.0469-3.5547-4.5508-8.1797-4.1758-12.848 0.37891-4.668 2.5977-8.9922 6.1758-12.016l37.359-32.016-37.359-32.016c-3.918-2.9102-6.4453-7.3203-6.9844-12.168-0.53906-4.8516 0.96484-9.707 4.1484-13.406 3.1836-3.6992 7.7617-5.9062 12.637-6.0977s9.6133 1.6562 13.074 5.0938l52.922 45.375c3.8945 3.3359 6.1406 8.207 6.1406 13.336 0 5.1289-2.2461 10-6.1406 13.336z"/>
  <path d="m152.34 76.172c0 42.07-34.102 76.172-76.172 76.172s-76.172-34.102-76.172-76.172 34.102-76.172 76.172-76.172 76.172 34.102 76.172 76.172"/>
  <path d="m382.8 93.75c5.5469 0.011719 10.98 1.5938 15.668 4.5625 4.6875 2.9727 8.4375 7.207 10.816 12.219l45.773 96.891h38.883l-52.875-111.91c-5.2422-11.02-13.496-20.336-23.805-26.867s-22.258-10.016-34.461-10.047h-196.71c1.875 11.645 1.875 23.512 0 35.156z"/>
  <path d="m1200 76.172c0 42.07-34.102 76.172-76.172 76.172s-76.172-34.102-76.172-76.172 34.102-76.172 76.172-76.172 76.172 34.102 76.172 76.172"/>
  <path d="m790.71 110.53c2.3789-5.0117 6.1289-9.2461 10.816-12.219 4.6875-2.9688 10.121-4.5508 15.668-4.5625h196.71c-1.875-11.645-1.875-23.512 0-35.156h-196.71c-12.203 0.03125-24.152 3.5156-34.461 10.047s-18.562 15.848-23.805 26.867l-52.875 111.91h38.883z"/>
  <path d="m152.34 1123.8c0 42.07-34.102 76.172-76.172 76.172s-76.172-34.102-76.172-76.172 34.102-76.172 76.172-76.172 76.172 34.102 76.172 76.172"/>
  <path d="m409.29 1089.5c-2.3789 5.0117-6.1289 9.2461-10.816 12.219-4.6875 2.9688-10.121 4.5508-15.668 4.5625h-196.71c1.875 11.645 1.875 23.512 0 35.156h196.71c12.203-0.03125 24.152-3.5156 34.461-10.047s18.562-15.848 23.805-26.867l52.875-111.91h-38.883z"/>
  <path d="m1200 1123.8c0 42.07-34.102 76.172-76.172 76.172s-76.172-34.102-76.172-76.172 34.102-76.172 76.172-76.172 76.172 34.102 76.172 76.172"/>
  <path d="m817.2 1106.2c-5.5469-0.011719-10.98-1.5938-15.668-4.5625-4.6875-2.9727-8.4375-7.207-10.816-12.219l-45.773-96.891h-38.883l52.875 111.91c5.2422 11.02 13.496 20.336 23.805 26.867s22.258 10.016 34.461 10.047h196.71c-1.875-11.645-1.875-23.512 0-35.156z"/>
  <path d="m230.86 711.33v35.156h186.33c-8.8516-10.992-16.695-22.758-23.438-35.156z"/>
  <path d="m969.14 746.48v-35.156h-162.89c-6.7422 12.398-14.586 24.164-23.438 35.156z"/>
  <path d="m969.14 453.52h-186.33c8.8516 10.992 16.695 22.758 23.438 35.156h162.89z"/>
  <path d="m230.86 488.67h162.89c6.7422-12.398 14.586-24.164 23.438-35.156h-186.33z"/>
  <path d="m600 834.38c-53.926 0.058594-106.21-18.578-147.94-52.734h-279.8v175.78h855.47v-175.78h-279.8c-41.73 34.156-94.012 52.793-147.94 52.734zm-281.25 52.734h-35.156c-6.2812 0-12.082-3.3516-15.223-8.7891s-3.1406-12.141 0-17.578 8.9414-8.7891 15.223-8.7891h35.156c6.2812 0 12.082 3.3516 15.223 8.7891s3.1406 12.141 0 17.578-8.9414 8.7891-15.223 8.7891zm93.75 0h-35.156c-6.2812 0-12.082-3.3516-15.223-8.7891s-3.1406-12.141 0-17.578 8.9414-8.7891 15.223-8.7891h35.156c6.2812 0 12.082 3.3516 15.223 8.7891s3.1406 12.141 0 17.578-8.9414 8.7891-15.223 8.7891zm521.48-17.578c0 4.6602-1.8516 9.1328-5.1484 12.43-3.2969 3.2969-7.7695 5.1484-12.43 5.1484h-410.44c-6.2812 0-12.082-3.3516-15.223-8.7891s-3.1406-12.141 0-17.578 8.9414-8.7891 15.223-8.7891h410.44c4.6602 0 9.1328 1.8516 12.43 5.1484 3.2969 3.2969 5.1484 7.7695 5.1484 12.43z"/>
  <path d="m365.62 600c-0.027344-25.922 4.2734-51.668 12.727-76.172h-206.09v152.34h206.09c-8.4531-24.504-12.754-50.25-12.727-76.172z"/>
  <path d="m834.38 600c0.027344 25.922-4.2734 51.668-12.727 76.172h206.09v-152.34h-206.09c8.4531 24.504 12.754 50.25 12.727 76.172z"/>
  <path d="m172.27 418.36h279.8c41.762-34.105 94.02-52.73 147.94-52.73s106.18 18.625 147.94 52.73h279.8v-175.78h-855.47zm333.7-105.47h410.44c6.2812 0 12.082 3.3516 15.223 8.7891s3.1406 12.141 0 17.578-8.9414 8.7891-15.223 8.7891h-410.44c-6.2812 0-12.082-3.3516-15.223-8.7891s-3.1406-12.141 0-17.578 8.9414-8.7891 15.223-8.7891zm-128.62 0h35.156c6.2812 0 12.082 3.3516 15.223 8.7891s3.1406 12.141 0 17.578-8.9414 8.7891-15.223 8.7891h-35.156c-6.2812 0-12.082-3.3516-15.223-8.7891s-3.1406-12.141 0-17.578 8.9414-8.7891 15.223-8.7891zm-93.75 0h35.156c6.2812 0 12.082 3.3516 15.223 8.7891s3.1406 12.141 0 17.578-8.9414 8.7891-15.223 8.7891h-35.156c-6.2812 0-12.082-3.3516-15.223-8.7891s-3.1406-12.141 0-17.578 8.9414-8.7891 15.223-8.7891z"/>
 </g>
</svg>
