<?xml version="1.0" encoding="UTF-8"?>
<svg width="1200pt" height="1200pt" version="1.1" viewBox="0 0 1200 1200" xmlns="http://www.w3.org/2000/svg">
    <g fill="currentColor">
        <path d="m757.87 1089.5h-31.594v-63.141h142.13c26.109 0 47.391-21.234 47.391-47.391v-189.47c0-26.109-21.234-47.391-47.391-47.391h-315.79c-26.109 0-47.391 21.234-47.391 47.391v189.47c0 26.109 21.234 47.391 47.391 47.391h142.13v63.141h-31.594c-8.7188 0-15.797 7.0781-15.797 15.797s7.0781 15.797 15.797 15.797h94.734c8.7188 0 15.797-7.0781 15.797-15.797s-7.0781-15.797-15.797-15.797zm-221.02-110.53v-189.47c0-8.7188 7.0781-15.797 15.797-15.797h315.79c8.7188 0 15.797 7.0781 15.797 15.797v189.47c0 8.7188-7.0781 15.797-15.797 15.797h-315.79c-8.7188 0-15.797-7.0781-15.797-15.797z"/>
        <path d="m1073.7 426.32h-221.06c-26.109 0-47.391 21.234-47.391 47.391v236.86c0 8.7188 7.0781 15.797 15.797 15.797s15.797-7.0781 15.797-15.797v-236.86c0-8.7188 7.0781-15.797 15.797-15.797h221.06c8.7188 0 15.797 7.0781 15.797 15.797v600c0 8.7188-7.0781 15.797-15.797 15.797h-221.06c-8.7188 0-15.797-7.0781-15.797-15.797v-15.797c0-8.7188-7.0781-15.797-15.797-15.797s-15.797 7.0781-15.797 15.797v15.797c0 26.109 21.234 47.391 47.391 47.391h221.06c26.109 0 47.391-21.234 47.391-47.391v-600.05c0-26.109-21.234-47.391-47.391-47.391z"/>
        <path d="m1057.9 678.94v-173.68c0-8.7188-7.0781-15.797-15.797-15.797s-15.797 7.0781-15.797 15.797v173.68c0 8.7188 7.0781 15.797 15.797 15.797s15.797-7.0781 15.797-15.797z"/>
        <path d="m1010.5 552.61v-47.391c0-8.7188-7.0781-15.797-15.797-15.797s-15.797 7.0781-15.797 15.797v47.391c0 8.7188 7.0781 15.797 15.797 15.797s15.797-7.0781 15.797-15.797z"/>
        <path d="m963.14 521.06v-15.797c0-8.7188-7.0781-15.797-15.797-15.797s-15.797 7.0781-15.797 15.797v15.797c0 8.7188 7.0781 15.797 15.797 15.797s15.797-7.0781 15.797-15.797z"/>
        <path d="m480.61 840.19c-6.2812-3.0469-12.516-6.4688-18.609-10.219-16.406-9.9375-40.125-7.2188-53.953 6.6094-5.0625 5.0625-13.031 5.0625-18.094 0l-26.531-26.531c-2.3906-2.3438-3.75-5.6719-3.75-9 0-3.375 1.3594-6.6562 3.75-9.0469 14.344-14.344 17.062-36.469 6.6094-53.906-13.547-22.453-23.719-47.016-30.281-73.031-4.9219-19.688-22.5-33.422-42.797-33.422-7.0312 0-12.797-5.7188-12.797-12.797v-37.594c0-7.0312 5.7188-12.797 12.797-12.797 20.297 0 37.875-13.734 42.797-33.422 6.5625-26.016 16.734-50.625 30.234-73.031 4.0781-6.7031 6.2344-14.578 6.2344-22.734 0-11.672-4.6875-23.062-12.844-31.219-5.0625-5.0625-5.0625-13.031 0-18.094l26.531-26.531c4.7344-4.7344 13.359-4.7344 18.094 0 14.297 14.344 36.469 17.062 53.906 6.6094 22.453-13.5 47.016-23.719 73.031-30.281 19.688-4.9219 33.422-22.5 33.422-42.797 0-7.0312 5.7188-12.797 12.797-12.797h37.594c7.0312 0 12.797 5.7188 12.797 12.797 0 20.297 13.734 37.875 33.422 42.797 26.062 6.5625 50.625 16.734 73.031 30.234 16.406 9.9375 40.125 7.2188 53.953-6.6094 5.0625-5.0625 13.031-5.0625 18.094 0l26.531 26.531c1.875 1.875 3.1875 4.4531 3.6094 7.3125 1.4062 8.625 9.5156 14.484 18.141 13.078s14.438-9.5156 13.078-18.141c-1.5-9.3281-5.9531-18.047-12.469-24.562l-26.531-26.531c-16.828-16.828-45.938-16.828-62.766 0-3.8438 3.8438-10.875 4.5938-15.281 1.9219-25.125-15.141-52.594-26.531-81.703-33.844-5.5781-1.4062-9.5156-6.4219-9.5156-12.188 0-24.469-19.922-44.344-44.391-44.344h-37.594c-24.469 0-44.391 19.922-44.391 44.344 0 5.7656-3.9375 10.781-9.5156 12.188-29.062 7.3125-56.531 18.703-81.609 33.844-4.875 2.9062-11.297 2.1094-15.281-1.875-16.5-16.5-46.266-16.5-62.719 0l-26.531 26.531c-8.3906 8.3906-13.031 19.547-13.031 31.359 0 11.859 4.6406 22.969 13.031 31.359 2.25 2.25 3.5625 5.5781 3.5625 8.9062 0 2.3438-0.5625 4.5469-1.6875 6.375-15.141 25.125-26.531 52.594-33.844 81.703-1.4062 5.5781-6.375 9.5156-12.141 9.5156-24.469 0-44.391 19.922-44.391 44.344v37.594c0 24.469 19.922 44.344 44.391 44.344 5.7656 0 10.734 3.9375 12.141 9.5625 7.3125 29.062 18.703 56.531 33.844 81.609 2.9062 4.875 2.1094 11.297-1.875 15.281-8.25 8.25-12.984 19.688-12.984 31.406 0 11.672 4.7344 23.109 12.984 31.359l26.531 26.531c8.6719 8.6719 20.016 12.984 31.359 12.984s22.734-4.3125 31.359-12.984c3.8438-3.8438 10.969-4.5 15.188-1.9688 6.8906 4.2188 14.016 8.1094 21.188 11.625 7.8281 3.8438 17.297 0.5625 21.094-7.2656 3.8438-7.8281 0.5625-17.297-7.2656-21.094z"/>
        <path d="m728.29 311.68c7.9219 3.4688 15.609 7.3125 22.922 11.344 2.3906 1.3125 5.0156 1.9688 7.6406 1.9688 3.0469 0 6.0469-0.89062 8.6719-2.625 1.0312-0.65625 2.1094-1.3594 3.1875-1.9688 7.5469-4.3594 10.078-14.062 5.7188-21.609-3.6094-6.1875-10.734-9.0469-17.391-7.4062-5.8594-3-11.859-5.9062-18-8.625-7.9688-3.5156-17.297 0.046875-20.812 8.0625-3.5156 7.9688 0.09375 17.297 8.0625 20.812z"/>
        <path d="m677.29 282.61c1.7812 7.1719 8.2031 12 15.281 12 1.2656 0 2.5312-0.14062 3.8438-0.46875 8.4375-2.1094 13.594-10.688 11.484-19.125-3.0469-12.234-8.5312-23.625-16.406-33.984-5.25-6.9375-15.188-8.2969-22.125-3.0469-6.9375 5.2969-8.2969 15.188-3.0469 22.125 5.25 6.8906 8.9062 14.484 10.922 22.5z"/>
        <path d="m870.05 356.48c3.9375 3.9375 7.2656 8.2969 9.9375 13.031 2.9062 5.1094 8.25 7.9688 13.734 7.9688 2.625 0 5.3438-0.65625 7.7812-2.0625 7.5938-4.3125 10.219-13.969 5.9062-21.562-4.0781-7.1719-9.1406-13.781-15-19.688l-7.6875-7.7344c-6.1406-6.1875-16.125-6.1875-22.312-0.09375-6.1875 6.1406-6.2344 16.125-0.09375 22.359z"/>
        <path d="m806.81 312.56c8.4375 0.79688 16.406 3.3281 23.719 7.4062 2.4375 1.3594 5.0625 2.0156 7.6875 2.0156 5.5312 0 10.922-2.9062 13.781-8.0625 4.2656-7.5938 1.5469-17.203-6.0469-21.469-11.156-6.2812-23.297-10.031-36.094-11.297-8.7188-0.84375-16.406 5.5312-17.25 14.203s5.5312 16.406 14.203 17.203z"/>
        <path d="m518.06 735.79c5.25-6.9844 3.7969-16.875-3.1875-22.125-35.672-26.719-57-69.234-57-113.67 0-78.375 63.75-142.13 142.13-142.13s142.13 63.75 142.13 142.13c0 37.5-14.438 72.797-40.641 99.469-6.0938 6.2344-6.0469 16.219 0.1875 22.312 6.2344 6.1406 16.219 6.0469 22.312-0.1875 32.062-32.578 49.688-75.75 49.688-121.6 0-95.766-77.906-173.68-173.68-173.68-95.77 0-173.68 77.906-173.68 173.68 0 54.328 26.016 106.27 69.656 138.94 2.8594 2.1094 6.1406 3.1406 9.4688 3.1406 4.7812 0 9.5625-2.2031 12.656-6.3281z"/>
        <path d="m316.87 836.86h-159c-26.109 0-47.391-21.234-47.391-47.391l0.046875-631.6c0-26.109 21.234-47.391 47.391-47.391h410.53c26.109 0 47.391 21.234 47.391 47.391v64.266c0 8.7188 7.0781 15.797 15.797 15.797s15.797-7.0781 15.797-15.797v-64.266c0-43.547-35.438-78.938-78.938-78.938h-410.63c-43.547 0-78.938 35.438-78.938 78.938v631.6c0 43.547 35.438 78.938 78.938 78.938h159c8.7188 0 15.797-7.0781 15.797-15.797s-7.0781-15.797-15.797-15.797z"/>
        <path d="m178.31 295.36c3.0938 3.0938 7.125 4.6406 11.156 4.6406s8.0625-1.5469 11.156-4.6406l47.391-47.391c6.1875-6.1875 6.1875-16.172 0-22.312l-47.391-47.391c-6.1875-6.1875-16.172-6.1875-22.312 0-6.1875 6.1875-6.1875 16.172 0 22.312l36.188 36.188-36.188 36.188c-6.1875 6.1875-6.1875 16.172 0 22.312z"/>
        <path d="m284.21 268.4c-8.7188 0-15.797 7.0781-15.797 15.797s7.0781 15.797 15.797 15.797h63.141c8.7188 0 15.797-7.0781 15.797-15.797s-7.0781-15.797-15.797-15.797z"/>
    </g>
</svg>
