<?xml version="1.0" encoding="UTF-8"?>
<svg width="1200pt" height="1200pt" version="1.1" viewBox="0 0 1200 1200" xmlns="http://www.w3.org/2000/svg">
 <path d="m1065.4 903.24-173.06-87.141 57-28.688c5.3906-2.7656 8.7656-8.2969 8.7656-14.297s-3.375-11.531-8.7656-14.297l-173.06-87.141 57-28.688c5.3906-2.7656 8.7656-8.2969 8.7656-14.297s-3.375-11.531-8.7656-14.297l-172.55-86.859c13.781-4.2188 27.141-9.7031 39.844-16.688l21.844 15.141c11.625 8.0625 27.375 6.6094 37.312-3.375l5.8594-5.8594 57.938 57.938c3 3 7.0781 4.6875 11.297 4.6875h57.844c6.9375 24.234 29.156 42.141 55.688 42.141 32.062 0 58.219-26.062 58.219-58.219 0-32.062-26.062-58.219-58.219-58.219-26.531 0-48.609 17.859-55.688 42.234h-51.234l-53.156-53.297 5.8594-5.8594c9.9375-9.9375 11.391-25.688 3.375-37.312l-15.141-21.844c7.4531-13.453 13.312-27.844 17.625-42.609l26.156-4.7812c13.922-2.5312 24-14.625 24-28.781v-8.3906h106.22c6.9375 24.234 29.156 42.234 55.688 42.234 32.062 0 58.219-26.062 58.219-58.219 0-32.062-26.062-58.219-58.219-58.219-26.531 0-48.609 17.859-55.688 42.141h-106.22v-8.3906c0-14.156-10.078-26.297-24-28.781l-26.156-4.7812c-4.3125-14.766-10.219-29.062-17.625-42.609l15.141-21.844c8.0625-11.625 6.6094-27.375-3.375-37.312l-5.8594-5.8594 53.297-53.297h51.234c6.9375 24.234 29.156 42.141 55.688 42.141 32.062 0 58.219-26.062 58.219-58.219 0-32.062-26.062-58.219-58.219-58.219-26.531 0-48.609 17.859-55.688 42.234h-57.844c-4.2188 0-8.2969 1.6875-11.297 4.6875l-57.938 57.938-5.8594-5.8594c-9.9375-9.9375-25.688-11.391-37.312-3.375l-21.844 15.141c-13.453-7.4531-27.844-13.312-42.609-17.625l-4.7812-26.156c-2.5312-13.922-14.625-24-28.781-24h-48.703c-14.156 0-26.297 10.078-28.781 24l-4.7812 26.156c-14.766 4.3125-29.062 10.219-42.609 17.625l-21.844-15.141c-11.625-8.0625-27.375-6.6094-37.312 3.375l-5.8594 5.8594-57.938-57.938c-3-3-7.0781-4.6875-11.297-4.6875h-57.844c-6.9375-24.234-29.156-42.234-55.688-42.234-32.062 0-58.219 26.062-58.219 58.219 0 32.062 26.062 58.219 58.219 58.219 26.531 0 48.609-17.859 55.688-42.141h51.234l53.297 53.156-5.8594 5.8594c-9.9375 9.9375-11.391 25.688-3.375 37.312l15.141 21.844c-7.4531 13.453-13.312 27.844-17.625 42.609l-26.156 4.7812c-13.922 2.5312-24 14.625-24 28.781v8.3906h-106.22c-6.9375-24.234-29.156-42.141-55.688-42.141-32.062 0-58.219 26.062-58.219 58.219 0 32.062 26.062 58.219 58.219 58.219 26.531 0 48.609-17.859 55.688-42.234h106.22v8.3906c0 14.156 10.078 26.297 24 28.781l26.156 4.7812c4.3125 14.766 10.219 29.062 17.625 42.609l-15.141 21.844c-8.0625 11.625-6.6094 27.375 3.375 37.312l5.8594 5.8594-53.297 53.156h-51.234c-6.9375-24.234-29.156-42.234-55.688-42.234-32.062 0-58.219 26.062-58.219 58.219 0 32.062 26.062 58.219 58.219 58.219 26.531 0 48.609-17.859 55.688-42.141h57.844c4.2188 0 8.2969-1.6875 11.297-4.6875l57.938-57.938 5.8594 5.8594c9.9375 9.9375 25.688 11.391 37.312 3.375l21.844-15.141c12.609 6.9375 26.062 12.469 39.844 16.688l-172.55 86.859c-5.3906 2.7656-8.7656 8.2969-8.7656 14.297s3.375 11.531 8.7656 14.297l57 28.688-173.16 87.469c-5.3906 2.7656-8.7656 8.2969-8.7656 14.297s3.375 11.531 8.7656 14.297l57 28.688-173.06 87.141c-5.3906 2.7656-8.7656 8.2969-8.7656 14.297s3.375 11.531 8.7656 14.297l458.06 230.58c2.2969 1.0781 4.6875 1.6875 7.2188 1.6875s4.9219-0.60938 7.2188-1.6875l458.16-230.63c5.3906-2.7656 8.7656-8.2969 8.7656-14.297s-3.375-11.531-8.7656-14.297zm-117.14-366c14.391 0 26.156 11.766 26.156 26.156s-11.766 26.156-26.156 26.156-26.156-11.766-26.156-26.156 11.625-26.156 26.156-26.156zm63.609-234.71c14.391 0 26.156 11.766 26.156 26.156s-11.766 26.156-26.156 26.156-26.156-11.766-26.156-26.156 11.766-26.156 26.156-26.156zm-63.609-234.74c14.391 0 26.156 11.766 26.156 26.156 0 14.391-11.766 26.156-26.156 26.156s-26.156-11.766-26.156-26.156c0-14.391 11.625-26.156 26.156-26.156zm-696.47 52.453c-14.391 0-26.156-11.766-26.156-26.156 0-14.391 11.766-26.156 26.156-26.156s26.156 11.766 26.156 26.156c0 14.391-11.766 26.156-26.156 26.156zm-63.609 234.71c-14.391 0-26.156-11.766-26.156-26.156s11.766-26.156 26.156-26.156 26.156 11.766 26.156 26.156c0 14.438-11.766 26.156-26.156 26.156zm63.609 234.74c-14.391 0-26.156-11.766-26.156-26.156s11.766-26.156 26.156-26.156 26.156 11.766 26.156 26.156-11.766 26.156-26.156 26.156zm231-105.98-21.375 14.766-31.219-31.219 14.859-21.375c6.4688-9.2344 6.9375-21.141 1.4531-30.938-6.8438-12.234-12.234-25.219-16.078-38.625-3-10.922-11.859-18.844-22.922-20.859l-25.547-4.6875v-44.156l25.547-4.6875c11.156-2.0625 19.922-9.9375 22.922-20.859 3.7031-13.453 9.1406-26.391 16.078-38.625 5.5312-9.8438 5.0625-21.703-1.4531-30.938l-14.766-21.375 31.219-31.219 21.375 14.859c9.2344 6.4688 21.141 6.9375 30.938 1.4531 12.234-6.8438 25.219-12.234 38.625-16.078 10.922-3 18.844-11.859 20.859-22.922l4.6875-25.547h44.156l4.6875 25.547c2.0625 11.062 9.9375 19.922 20.859 22.922 13.453 3.7031 26.391 9.1406 38.625 16.078 9.8438 5.5312 21.703 5.0625 30.938-1.4531l21.375-14.859 31.219 31.219-14.859 21.375c-6.4688 9.2344-6.9375 21.141-1.4531 30.938 6.8438 12.234 12.234 25.219 16.078 38.625 3 10.922 11.859 18.844 22.922 20.859l25.547 4.6875v44.156l-25.547 4.6875c-11.062 2.0625-19.922 9.9375-22.922 20.859-3.7031 13.453-9.1406 26.391-16.078 38.625-5.5312 9.8438-5.0625 21.703 1.4531 30.938l14.766 21.375-31.219 31.219-21.375-14.859c-9.2344-6.4688-21.141-6.9375-30.938-1.4531-12.234 6.8438-25.219 12.234-38.625 16.078-10.922 3-18.844 11.859-20.859 22.922l-4.6875 25.547h-44.156l-4.6875-25.547c-2.0625-11.062-9.9375-19.922-20.859-22.922-13.453-3.7031-26.391-9.1406-38.625-16.078-9.8438-5.3906-21.703-4.9219-30.938 1.5469zm65.297 75.375c3.9375 11.625 15 19.688 27.609 19.688h48.703c12.609 0 23.531-8.0625 27.609-19.688l138.47 69.703-190.45 95.906-190.31-95.906zm-88.688 130.55 133.45 67.219c2.2969 1.0781 4.6875 1.6875 7.2188 1.6875s4.9219-0.60938 7.2188-1.6875l133.45-67.219 165.84 83.531-306.56 154.31-306.47-154.31zm140.63 440.68-422.63-212.76 165.84-83.531 249.61 125.63c2.2969 1.0781 4.6875 1.6875 7.2188 1.6875s4.9219-0.60938 7.2188-1.6875l249.61-125.63 165.84 83.531zm115.45-801.61c0-63.703-51.844-115.45-115.45-115.45-63.703 0-115.45 51.844-115.45 115.45 0 63.703 51.844 115.45 115.45 115.45 63.703 0.09375 115.45-51.75 115.45-115.45zm-198.98 0c0-46.078 37.453-83.531 83.531-83.531s83.531 37.453 83.531 83.531-37.453 83.531-83.531 83.531-83.531-37.453-83.531-83.531z"/>
</svg>
